<?xml version="1.0" encoding="UTF-8"?>
<svg version="1.1" viewBox="0 0 2000 2000" width="500" height="500" xmlns="http://www.w3.org/2000/svg">
<path transform="translate(296,153)" d="m0 0h9l5 2 27 4 25 7 24 10 17 10 13 10 10 9 9 9 10 13 11 17 8 16 6 16 5 20 4 21 2 6 11 6 16 5 21 4 29 4 44 5 15 3v4l-14 7-28 10-19 5-17 2h-13l-37-3-13-2-1 26-5 35-6 23-8 20-9 17-11 15-9 10-4 5-8 7-15 12-12 9-10 9-4 9-1 4v8l4 16 9 16 11 15 11 18 8 18 6 17 8 8 10 8 13 10 21 14 22 12 25 11 18 6 23 5 12 2-1-9-6-25-4-24-1-9v-43l3-17 5-15 6-11 10-12 10-7 9-4 21-4 44-2 12-2 12-5 4-4-2-6-12-11-11-9-13-12-10-11-11-17-7-15-6-21-4-27-1-37 1-42 4-23 10-30 8-17 11-17 11-14 16-16 15-11 14-8 13-6 20-6 14-2h37l18 3 21 7 16 8 16 10 13 11 14 14 10 14 10 17 7 16 5 15 4 18 2 15 1 15v26l-2 30-4 24-5 18-9 21-11 19-12 16-9 10-14 13-14 11-11 10-1 7 6 2 43 3 28 2 21 4 11 5 8 6 7 9 9 16 13 30 6 17v2l5-5 6-7 10-5 19-2 30-2 14-2 31-2h36l4 1h35l8 3 5 4 2 4-1 8-13 30-12 28-18 43-20 46-15 36-6 17 11-1 5 3 3 4v9l-2 12 144-3 75-1h59l1-80 2-6 9-10 4-5-3-11-1-9 3-7 4-5 10-5 9 1 5 1 8-7 7-7h2v-2h2v-2h2l2-4 39-39 5-3 7 1 10 6 7 8 2 4v9l-8 10-42 42-10 11-1 7 1 3v9l-6 9-5 4-2 1h-13l-10-3h-5l-4 8-2 22v39l1 10 4 1 156 4 54 2 22 1 7 2 2-87 2-5 9-10 3-4-1-7-2-7v-11l4-7 4-5 10-5 9 1 6 1 34-34 14-16h2l2-4 10-10 5-3h7l12 6 8 9 3 7-1 7-11 13-10 10-7 8-11 12-8 8-7 8-8 8 1 9 1 7-4 9-7 8-4 3-3 1h-8l-13-4h-5l-3 5-1 7-1 53v150l-1 69v383l14 19 12 16 11 14 13 16 10 13 11 14 7 8 11 3 38 7 12 4 9 5 11 9 9 11 6 10 6 16 3 12 2 23-1 23-3 17-5 16-7 16-10 16-5 6-16 14-10 6-13 4-10 2-10 1h-11l-18-3-24-8-15-6-14-9-18-18v-2h-2l-2 12-2 7-2 6-2 27-2 7-13 3-85 13-95 14-48 7h-14l-20-4-21 3-37 7-17 2h-21l-18-3-129-36-39-11-50-13-34-8-7-3-1-6-1-326v-107l2-3-2-9v-329l-1-3-17-6-6-5-1-2h-11l-67 7-13 1 1 5 5 102 2 62 1 56v120l-3 91-3 64v75l3 25 3 13 7 14 5 6 18 13 9 6 8 9 6 12 2 14-1 11-5 10-4 5-6 4-14 4-20 3-22 2h-35l-22-3-24-6-36-12-6 18-7 10-7 4-11 3-32 4-14 1h-32l-21-3-19-5-20-7-24-10-16-8-9-7-6-12-2-13v-11l2-27 11-97 6-60 4-59 2-40 1-29v-147l-1-52-1-82v-69l1-47 2-44 3-50v-6l-9-2-64-11-31-7-33-9-28-10-17-9-4 76-2 47v14l2 6 7 8 8 8 10 8 10 10 12 18 15 29 7 19v8l-8 7-4 2-8 1 10 38 3 13v10l-5 4-2 1h-7l-6-3-2-2h-4l-1 10-4 6-6 4-9-3-6-5-4-7v-2h-3v19l-5 5-5 3-1 7v37l1 56v125l-2 69-1 28v78l3 25 4 17 7 16 7 9 8 7 14 7 17 5 43 9 13 5 9 6 7 10 3 8 1 10-2 11-7 14-12 12-11 6-12 4-36 6-6 13-8 11-9 7-13 5-17 3-23 2-24 1-78 1-68-1-26-1-14-3-9-5-6-7-5-12-2-8-1-9v-22l3-31 8-49 11-56 8-47 6-42 4-44 1-29v-29l-1-31-3-38-5-42-10-67-15-89-6-42-3-29-1-15-1-40 1-51 4-97 3-54 4-47 5-43 6-40 8-38 8-27 8-18 8-14 11-17 1-8-4-6-9-10-10-10-7-6-7-8-11-15-9-16-6-13-6-18-5-23-2-16-1-33-2-16-2-21v-27l3-23 5-19 6-15 8-16 10-15 9-11 10-11 11-9 15-11 13-8 26-11 18-5 9-3 5-2zm622 603 1 90 4-1 14-31 6-16-1-6-13-22-7-12zm-145 527-1 1-13 91-9 71-4 37-3 32-2 52 1 34 2 16 4 15 7 11 7 8 3 2h4l7-57 7-65 3-42 1-27v-73l-2-35-3-35-5-35zm938 235-1 22v88l3-1 10-14 12-12 14-10 16-8-2-4-11-13-13-16-9-11-13-17-4-4z" fill="#CACCCC"/>
<path transform="translate(792,607)" d="m0 0h39l4 1 1 12h2l2 8 3 1 2 6v10l2 10h2l2 9v9h2v15h2l1 23 12 3 27 5 3 1 20 2 2-28 5-21 6-13 6-1 3 4 1 10v48l1 9-4 2-8-3 1 4 4 2 20 7 6 1 4-4 5-13 3-9 1-2h2l1-8 2-2 1-5h2l3-12h2l1-7 2-1 5-11 6-8 9-6 9-2 43-3 14-2 31-2h36l4 1h35l8 3 5 4 2 4-1 8-13 30-12 28-18 43-20 46-15 36-6 17 11-1 5 3 3 4v9l-2 12 144-3 75-1h59l1-80 2-6 9-10 4-5-3-11-1-9 3-7 4-5 10-5 9 1 5 1 8-7 7-7h2v-2h2v-2h2l2-4 39-39 5-3 7 1 10 6 7 8 2 4v9l-8 10-42 42-10 11-1 7 1 3v9l-6 9-5 4-2 1h-13l-10-3h-5l-4 8-2 22v39l1 10 4 1 156 4 54 2 22 1 7 2 2-87 2-5 9-10 3-4-1-7-2-7v-11l4-7 4-5 10-5 9 1 6 1 34-34 14-16h2l2-4 10-10 5-3h7l12 6 8 9 3 7-1 7-11 13-10 10-7 8-11 12-8 8-7 8-8 8 1 9 1 7-4 9-7 8-4 3-3 1h-8l-13-4h-5l-3 5-1 7-1 53v150l-1 69v383l14 19 12 16 11 14 13 16 10 13 11 14 7 8 11 3 38 7 12 4 9 5 11 9 9 11 6 10 6 16 3 12 2 23-1 23-3 17-5 16-7 16-10 16-5 6-16 14-10 6-13 4-10 2-10 1h-11l-18-3-24-8-15-6-14-9-18-18v-2h-2l-2 12-2 7-2 6-2 27-2 7-13 3-85 13-95 14-48 7h-14l-20-4-21 3-37 7-17 2h-21l-18-3-129-36-39-11-50-13-34-8-7-3-1-6-1-326v-107l2-3-2-9v-329l-1-3-17-6-6-5-1-2h-11l-67 7-17 3-30 2-10 1h-9l-9-5-4-8 1-7 8-20 7-16 6-13 6-16h2l1-7 3-5 5-14 4-10h2l1-7 3-5 2-7 2-2 3-10 9-20 11-25 3-9-1-6-13-22-7-12-5-2-3-5-3-9-6-4-8-2-35-3-39-2-24-2-10 4-7 3-11-1-5-3-12-4-16-3-6-5-20-5-4-3v-13l4-13 1-2h8l40 8 8 2 35 2 15 2 24 3h2l-1-10h-2l-1-2-7-3-17-2-3-2-1-6-1-29-7-14-3-10h-2l-4-11-2-1zm919 911-1 22v88l3-1 10-14 12-12 14-10 16-8-2-4-11-13-13-16-9-11-13-17-4-4z" fill="#B79F7D"/>
<path transform="translate(1046,1346)" d="m0 0h4v2l16 1 38 6 56 8 2 1v142l10 1 24 4 3 1v-112l1-30 2-1 34 6 26 4 57 7 6 1v-2l26-1 31-3 28-2 17-2 18-1 5-1 52-4 16-2 29-2 3-1 34-3 31-2 11-1h12v-2l32-4-2-1h-9v-1l6-1h9l1 4 5 2v22l-4-2-1-5-1 2h-3l-1 6-4 4-3 2-2 6-2 2-2 9-3 6-2 25-2 6v8l1 5-2 5-1 16v9l1 1v12l-4 20-1 11h2l1 6v6l-1 5v15l1 3v13l-1 2 2 3v5l-2 3-2 8-1 3 3 16 1 3-1 2v18l-6 2 1 7-1 2h-2l-1 10v5l-2 5-5 4-1 7-5 5-2 3 1 9-4 1v5l-3 3-5 3-1 5-7 3v2h-2l-1 4-4 3h-8l2 6-6 2-1 4-5 1-3-1-6 2-5-2-1 3-8-1-3 5-6 1-8 1-10 5-8 5-6 1-4-1-8 3-2 2-5 2-2 4-4 1v2l-4 1-2-1v-2l-7 7-7 2-6 5-5 1v2l-9 2-5 6-10 1-2 5-9 4-6 7h-3l-1 5-9 3-5 5-7 5h-2v2h-3l-1 3-8 4-9 1-11 4h-2l-1 4-5 1-11 1-9 2h-14l-15-3-16-6-8-2-20-4-16-4-6-2-7-1v-2l-9-1-7-2v-2l-3 1-11-3-13-3-8-3-11-2v-2l-3 1-8-3-12-3-6-2-10-2-21-6-7-1-17-3-13-3h-7l-2 3-9-2-4-2-1-6-1-326v-107z" fill="#B79E7C"/>
<path transform="translate(1793,686)" d="m0 0h7l12 6 8 9 3 7-1 7-11 13-10 10-7 8-11 12-8 8-7 8-8 8 1 9 1 7-4 9-7 8-4 3-3 1h-8l-13-4h-5l-3 5-1 7-1 53v150l-1 69v383l14 19 12 16 11 14 13 16 10 13 11 14 7 8 11 3 38 7 12 4 9 5 11 9 9 11 6 10 6 16 3 12 2 23-1 23-3 17-5 16-7 16-10 16-5 6-16 14-10 6-13 4-10 2-10 1h-11l-18-3-24-8-15-6-14-9-18-18v-2h-2l-2 12-2 7-2 6-2 27-2 7-13 3-85 13-95 14-48 7h-14l-20-4-21 3-37 7-17 2h-21l-18-3-129-36-39-11-50-13-26-6-2-1 2-4h8l16 4 9 1 7 1 10 3 15 4 10 2 10 3 14 4 5 1v2l3-1 15 4 6 2 20 5h2v2l16 3v2l3-1 9 2 5 2 12 3 16 3 16 4 12 5 15 3h17l6-2 15-1 2-4 13-5 12-2 5-3 1-2h3v-2l9-6h2l2-4 2-2 8-1 1-5h3l2-4 3-1 2-4 8-2 2-5 7-2 3 1 1-3h2l2-4 9-1v-2l8-4 4-4 7-2 4-5h2v2h6v-2l4-1 2-5 6-3 2-2 8-2 6 1 10-5 5-3 9-4h11l2-5 4-1 5 1 1-2 7 1 5-2 7 1 1-5 1-1h5l-2-6 8-1 4-2 1-4h2v-2l-2-1 9-2v-5l3-3 3-1 2-5 1-4h3l-1-8 5-6h2l1-10 4-3h2l1-11 1-7 1-2h2v-6-4l6-1-1-18 1-4-1-1-3-17 2-4 2-8 1-1v-5l-2-4 1-5v-9l-1-9v-13l1-5v-8h-2l-1-4 3-17 2-10v-12l-1-1v-12l1-13 2-6-1-7v-7l2-4 2-25 4-9 2-7 2-2 2-6 4-3h2l2-8h3l1-3h1l2 7 2 1 1-231v-186l-3-2v-22l1-3 1-31 2-92 2-5 9-10 3-4-1-7-2-7v-11l4-7 4-5 10-5 9 1 6 1 34-34 14-16h2l2-4 10-10zm-82 832-1 22v88l3-1 10-14 12-12 14-10 16-8-2-4-11-13-13-16-9-11-13-17-4-4z" fill="#AC9475"/>
<path transform="translate(792,607)" d="m0 0h39l4 1 1 12h2l2 8 3 1 2 6v10l2 10h2l2 9v9h2v15h2l1 23 12 3 27 5 3 1 20 2 2-28 5-21 6-13 6-1 3 4 1 10v48l1 9-4 2-8-3 1 4 4 2 20 7 6 1 4-4 5-13 3-9 1-2h2l1-8 2-2 1-5h2l3-12h2l1-7 2-1 5-11 6-8 9-6 9-2 43-3 14-2 31-2h36l4 1h35l8 3 5 4 2 4-1 8-13 30-12 28-18 43-20 46-15 36-8 21-2 4-1 9 1 8-12 4 6 2 9 1 22 1h22l43-1 3 1-1 103-1 44-37-1-1-1-1-141h-31l-44-2h-38l-1 18h-2l-1 4-5 4-2 5v8l2 7-10 2v2l-4 4-2 5 1 6 7 7v2l-7 6-4 8-10 2-67 7-17 3-30 2-10 1h-9l-9-5-4-8 1-7 8-20 7-16 6-13 6-16h2l1-7 3-5 5-14 4-10h2l1-7 3-5 2-7 2-2 3-10 9-20 11-25 3-9-1-6-13-22-7-12-5-2-3-5-3-9-6-4-8-2-35-3-39-2-24-2-10 4-7 3-11-1-5-3-12-4-16-3-6-5-20-5-4-3v-13l4-13 1-2h8l40 8 8 2 35 2 15 2 24 3h2l-1-10h-2l-1-2-7-3-17-2-3-2-1-6-1-29-7-14-3-10h-2l-4-11-2-1z" fill="#2C2C2D"/>
<path transform="translate(296,153)" d="m0 0h9l5 2 27 4 25 7 24 10 17 10 13 10 10 9 9 9 10 13 11 17 8 16 6 16 5 20 4 21 2 6 11 6 16 5 21 4 29 4 44 5 15 3v4l-14 7-28 10-19 5-17 2h-13l-37-3-10-2-1-1-1-14-42-6-50-6-14-1h-45l-44 5-49 6-43 7-29 6-14 5-3-1-3-33v-27l3-23 5-19 6-15 8-16 10-15 9-11 10-11 11-9 15-11 13-8 26-11 18-5 9-3 5-2z" fill="#06569D"/>
<path transform="translate(1722,801)" d="m0 0 4 2-3 9-1 2-5 2-2 4-1 7-1 53v150l-1 69v383l14 19 12 16 11 14 13 16 10 13 11 14 7 8 11 3 38 7 12 4 9 5 11 9 9 11 6 10 6 16 3 12 2 23-1 23-3 17-5 16-7 16-10 16-5 6-16 14-10 6-13 4-10 2-10 1h-11l-18-3-24-8-15-6-14-9-18-18v-2h-2l-2 12-2 7-2 6-2 27h-1l-2-54v-367l1-9-4 1-2-2-1-8v-313l1-48 2-26v-29l2-9 4-4 6-3 1-15 1-44v-14l-1-24-1-10 1-13 7-10 4-4zm-11 717-1 22v88l3-1 10-14 12-12 14-10 16-8-2-4-11-13-13-16-9-11-13-17-4-4z" fill="#C9CBCB"/>
<path transform="translate(911,1072)" d="m0 0h2l3 3 5 2 2 7 2 4 4 27 2 18 1 5 2 42v11l2 43v98l-1 21v20l-1 13v12l-2 18-1 5v10l-1 17v13l-2 15-1 4v13l-1 24-2 29 1 38-5 5-6-1-5-6-11-7-6-10-3-19 1-8-2-13-2-4v-21l-2-9 1-21-2-1-1-5 1-2v-32l-1-13-1-6v-16l-2-11v-15l-2-16-1-11-1-20-1-7-4-27-2-13-5-50-2-13-3-28-1-12-1-8v-34l1-10 5-13 3-7 6-7 3-3 5-1v-2l6-1 2-5 11-6 10-2z" fill="#ACADAD"/>
<path transform="translate(1793,686)" d="m0 0h7l12 6 8 9 3 7-1 7-11 13-10 10-7 8-11 12-8 8-7 8-8 8 1 9 1 7-4 9-7 8-4 3-3 1h-8l-13-4-1-3 3-9-3-1-8 4h-2l-2 5-5 7-1 13 1 13 1 30v15l-1 34-1 15-9 5-2 5-1 7v30l-2 24-1 50v311l1 8 5 1v376l1 33v27l-8 3-84 13-102 15-48 7h-14l-20-4h-11v-3l14-3 24-5 36-8 35-7 16-3 9-1 7-1 7-2 13-2 8-2 14-2 7-2 15-2 13-2 7-2 9-2 11-2 9-3 5-6 3-9v-9l1-3 2-36v-76l1-62 1-126v-45l1-38 2-6 1-14 1-217v-186l-3-2v-22l1-3 1-31 2-92 2-5 9-10 3-4-1-7-2-7v-11l4-7 4-5 10-5 9 1 6 1 34-34 14-16h2l2-4 10-10z" fill="#938D85"/>
<path transform="translate(1818,1607)" d="m0 0h15l12 3 11 6 5 4v2l3 1v2h2l2 3v3h2l8 17 3 10 2 1 3 15v30l-3 15-6 17-9 17-5 8h-2l-1 4-11 10-13 8-12 4-6 1h-11l-11-2-8-4v-2l-4-1-13-13-8-13-5-13-3-10-1-15v-20l3-22 3-8 5-13 6-11h2l1-4 9-10 5-5h2l1-3 3-2h3v-2l12-5z" fill="#C9CBCB"/>
<path transform="translate(1713,1485)" d="m0 0 5 5 13 18 14 18 13 16 10 13 11 14 11 13 11 3 38 7 12 4 9 5 11 9 9 11 6 10 6 16 3 12 2 23-1 23-3 17-5 16-7 16-10 16-5 6-16 14-10 6-13 4-10 2-10 1h-11l-18-3-24-8-15-6-14-9-16-16-1-5v-110l1-16 8-10 7-9 11-11 14-10 14-7h2l-4-7-2-3-2-6-8-9v-2h-2l-5-8v-2l-3-1-8-10-1-5-3-1-7-9v-2h-2v-3l-3-1-2-10 4 2 11 11 2 4 5 4 4 7 11 12 2 4 4 4 5 6 8 8 2 4 7 4-1-1-2-4-3-1-2-5-6-8-7-9-8-9-8-11-8-8-4-8-7-8-5-8-4-5zm105 122-9 3-12 5v2l-4 1-3 2v2l-4 2-8 9-5 5v3h-2l-7 13-4 11-3 8-3 22v20l1 15 4 13 5 12 7 11 14 14h3v2l11 5 8 1h11l13-3 12-6 9-7 9-8v-3h2l11-19 5-11 6-20 1-7v-30l-3-15-2-2-6-16-5-10h-2l-1-4-1-2h-2l-1-3h-2l-1-3-11-7-10-4-6-1z" fill="#2E2D2E"/>
<path transform="translate(792,607)" d="m0 0h39l4 1 1 12h2l2 8 3 1 2 6v10l2 10h2l2 9v9h2v15h2l1 23 12 3 27 5 3 1 20 2 2-28 5-21 6-13 6-1 3 4 1 10v48l1 9-4 2-8-3 1 4 4 2 20 7 6 1 4-4 5-13 3-9 1-2h2l1-8 2-2 1-5h2l3-12h2l1-7 2-1 5-11 2-2-1 4-4 11-11 26-5 12h-2l-2 10-7 15-3 5-4 13-6 15h-2l-2 10h-2l-1 5-2 4-6-12-9-15-7-12-5-2-3-5-3-9-6-4-8-2-35-3-39-2-24-2-10 4-7 3-11-1-5-3-12-4-16-3-6-5-20-5-4-3v-13l4-13 1-2h8l40 8 8 2 35 2 15 2 24 3h2l-1-10h-2l-1-2-7-3-17-2-3-2-1-6-1-29-7-14-3-10h-2l-4-11-2-1z" fill="#918B83"/>
<path transform="translate(1677,1379)" d="m0 0h2l-1 6-1 38v46l-1 127-1 62v75l-2 35-1 4v8l-4 11-7 6-7 2-13 2-13 3-4 1-25 4-14 3-13 2-8 2-12 2-4 1-21 3-28 6-49 10-12 3-26 5h-3l1 4-48 9-17 2h-21l-18-3-129-36-35-10-2-2 12 1 10 3 9 1 10 3 10 2 5 2 8 2 7 2 20 5 13 3 10 3 7 1 9 3 21 5 10 3 21 5 11 1h19l1-2 24-3 11-2 9-1 13-4 9-7 9-5 13-6 10-4 4-3 18-6 14-7 3-2 9-3 9-2 11-1 9-3 12-2 12-3 4-2 18-4 6-2 9-2 10-2 5-3 12-3 3-2 7-1 1-3 10-2v-3l7-3 5-6 2-4h2l1-9 3-5v-7l2-4 1-8 1-36 1-16v-15l2-14 1-17 1-14 1-8v-48l-1-24-1-8 1-16 2-22v-32l3-36 2-7v-8l3-13z" fill="#9F896D"/>
<path transform="translate(758,207)" d="m0 0h37l18 3 21 7 16 8 16 10 13 11 14 14 10 14 10 17 7 16 4 11-1 3-5-9-7-14-5-6-10-6-22-3-4-1h-52l-18-1-10-3-11-3-12-6-9-4-26-11-24-8-7-2h-11l-8 4h-3v2l-10 6h-3l16-16 15-11 14-8 13-6 20-6z" fill="#FDFDFD"/>
<path transform="translate(1681,936)" d="m0 0 4 1 2 43v276l-1 129-1 31v180l1 30v130l2 29 1 9v10l-3 4-5 2-44 7-24 4-35 5-17 3-42 6-24 4-35 5-18 2-14 1-2 1-17 1v-3l14-3 24-5 36-8 35-7 16-3 9-1 7-1 7-2 13-2 8-2 14-2 7-2 15-2 13-2 7-2 9-2 11-2 9-3 5-6 3-9v-9l1-3 2-36v-76l1-62 1-126v-45l1-38 2-6 1-14 1-217v-186l-2-2 1-23z" fill="#776D61"/>
<path transform="translate(1051,1343)" d="m0 0 17 1 46 6 48 7 36 5 7 2 12 1 10 2 31 4 22 4 30 4 7 1h29l27-2 18-2 16-1 5-1 23-2 37-3 7-1 18-1 16-2 135-12 22-1v3l-23 3h-9v2l-33 3-31 2-24 2-13 2-19 1-28 3-40 3-5 1-29 2-17 2-17 1-31 3h-26v2l-12-1-35-4-49-7-28-5-1 30-1 112-22-3-15-3v-142l-37-5-59-9-15-2z" fill="#655A4F"/>
<path transform="translate(807,858)" d="m0 0h54l1 10 3 82v13l-1 9-5 8-6 8-9 10-8 9h-3l-12-12-7-8-1-3h-2l-5-9-2-3v-40l2-56z" fill="#2C2C2D"/>
<path transform="translate(1810,1611)" d="m0 0h2v6l4 2 7 4 5 4 5 9 3 16v19l-4 16-3 8-2 8-3 10-5 8h-2l-2 5-5 5-6 5-14 5h-17l-4 1-1 4-2 2h-3l-4-12-3-16v-31l4-19 6-16 6-11 7-9 15-15 2-1 1-3 6-3z" fill="#FCFCFC"/>
<path transform="translate(1793,686)" d="m0 0h7l12 6 8 9 3 7-1 7-11 13-10 10-7 8-11 12-8 8-7 8-8 8 1 9 1 7-4 9-7 8-4 3-3 1h-8l-10-3-2-5 9-10 2-5-4-8-6-5-3-3-3-2-5 1-4 1-2 4-6 5h-5l-3-6-1-4v-11l4-7 4-5 10-5 9 1 6 1 34-34 14-16h2l2-4 10-10z" fill="#2E2E2E"/>
<path transform="translate(1106,877)" d="m0 0h1l1 14-12 4 6 2 9 1 22 1h22l43-1 3 1-1 103-1 44-37-1-1-1-1-141h-31l-44-2h-38l-1 18h-1v-22l2-3 3-1 40-1 10-1 3-5z" fill="#655A4F"/>
<path transform="translate(1517,689)" d="m0 0 7 1 10 6 7 8 2 4v9l-8 10-42 42-10 11-1 7 1 3v9l-6 9-5 4-2 1h-13l-4-1-1-2 1-9 2-3h2l-1-8-6-8-5-5h-8l-1 3h-4l-1 3-3 2-5-1-3-7-1-9 3-7 4-5 10-5 9 1 5 1 8-7 7-7h2v-2h2v-2h2l2-4 39-39z" fill="#2E2E2E"/>
<path transform="translate(421,682)" d="m0 0 7 6 13 11 19 14 16 10 18 10 20 9 15 6 22 6 23 4 2-3 3 1h13l13-5 11-7 6-4h10l13 1 9-1v2l4 2 4 5 11 5 11 1 7-2 23 4-4 2-19 6-8 4-7 2-16 2-26 1-18 3-24 2h-8l-23-3-22-6-12-3-18-6-19-9-7-4-13-8-8-7-3-4v-2l-4-2-13-12-4-5v-2l-4-2-8-9-6-9z" fill="#FDFDFD"/>
<path transform="translate(811,1115)" d="m0 0 4 1 2 10 3 22 1 34v14l-1 5-1 19-2 18-2 6v7l-7 14-9 7h-5l-3-4-8-3-6 1-4 1-3-7 1-10v-8l4-21 3-18 6-29 6-20 4-8 5-11 4-8 7-11z" fill="#ACADAD"/>
<path transform="translate(1716,777)" d="m0 0 4 1 5 3v2l4 2 5 6 2 7-9 11-2 3v3l-3-1 3-11-3-1-8 4h-2l-2 5-5 7-1 13 1 13 1 30v15l-1 34-1 15-9 5-2 5-1 7v30l-2 24-1 50v110l-1 87h-1l-1-276-1-27-1-16h-3l-2 23h-1v-22l1-3 1-31 2-92 2-5 9-10 3-4 1-4 6-2 6-5 1-2z" fill="#928C84"/>
<path transform="translate(1715,814)" d="m0 0 3 1-3 5-1 7-1 53v150l-1 69-1 381h-3l-1-5-1-11v-71l-1-20v-50l-1-45-1-24v-35l-1-28-1-23 1-16-1-9v-20l2-32 2-16 2-12 1-132 1-60 1-33 1-18 3-5z" fill="#FDFDFD"/>
<path transform="translate(715,687)" d="m0 0h3l2 5 9 2 5 2 9 1 20 4 9 3 14 3 8 2 9 1 8 3 11 1 13 3 10 1 4 2 39 7 13 3 5 1 10 3 5 4 2 3-1 6-2 8-5-1-2-3-3-9-6-4-8-2-35-3-38-3-19-2h-9l-8 3h-6l-13-5-28-6-10-3-17-3-4-2-1-2v-10l3-8z" fill="#2E2E2E"/>
<path transform="translate(792,607)" d="m0 0h39l4 1 1 12h2l3 9 3 10v10l3 10v3h2l3 21 1 14v14l-5 1-3-1v-15l-2-5h-2l-1-2-7-3-17-2-3-2-1-6-1-29-7-14-3-10h-2l-4-11-2-1z" fill="#2F2E2F"/>
<path transform="translate(650,637)" d="m0 0 6 1 6 4 8 7 4 5 5 10 5 7 3 6 5 4 6 11-1 10-7 8-8 2-2 4-2 6-2 1h-15l-7-3-2-4v-3h-2l-4-20-1-6-1-23-1-12 1-9z" fill="#ACADAD"/>
<path transform="translate(1439,776)" d="m0 0h6l9 9 4 8-1 5h-2l-2 6v7l-6-1-3-4v-2l-8 5-2 6h-2v73l-1 1h-22l-2-5 1-75 2-6 9-10 4-5 1-4 5-1 3-3 4-1z" fill="#948E86"/>
<path transform="translate(1106,877)" d="m0 0h1l1 14-12 4 6 2 9 1 22 1h22l43-1 3 1-1 103-1 44h-12v-1h11v-51l-1-34-1-6v-8l-1-7h-2l-2 6h-2v2l-7 3-2-3-3 2v-4l-3-1-1-2-5 1-3 10-1 44v43l1 2 7 1 1 2h-11l-1-1-1-141h-31l-44-2h-38l-1 18h-1v-22l2-3 3-1 40-1 10-1 3-5z" fill="#776D61"/>
<path transform="translate(1052,1344)" d="m0 0h16l46 6 48 7 36 5 7 2 12 1 10 2 31 4 22 4 30 4 7 1h29l27-2 18-2 16-1 5-1 23-2 37-3 7-1 18-1 16-2 135-12 22-1v3l-23 3h-9v2l-33 3-31 2-24 2-13 2-19 1-28 3-40 3-5 1-29 2-17 2-17 1-31 3h-26v2l-12-1-1-1-20-3-36-6-14-2-6-1-14-2-26-3-14-3-20-2-10-2-84-12-16-2z" fill="#373634"/>
<path transform="translate(1107,646)" d="m0 0h19v1l-8 1-1 5 22-1 10-1 3 2v6l-6 15-3 3-12 2-55 2h-17l-1-1 1-8 5-12v-5l-2-2v-3l14-2z" fill="#ACACAA"/>
<path transform="translate(291,537)" d="m0 0h23l24 5 17 8 19 2 1 1v6l-3 8-5 10-7-1-10-6-10-3-18-3-20-2-36-7-10-3-4-3 1-5 8-3 14-3z" fill="#ACADAD"/>
<path transform="translate(1111,865)" d="m0 0h12l5 3 3 4v9l-2 12 59-1 34 1 1 1h64l8-1h29l3-1h130l-1 2-12 1h-31l-45 2-86 1-30 1h-40l-6-1v2l-3 1-1 2 3-1 62 3 31 1 5 1v1h-39l-32-1-31-2v-6l-46 1h-22l-22-1-14-2-2-3 12-3-1-9 2-10z" fill="#B9A282"/>
<path transform="translate(933,659)" d="m0 0 5 1 3 7v54l1 9-4 2-8-3 1 4 4 2 20 7 6 1 4-4 5-13 3-9 1-2h2l1-8 2-2 1-5h2l3-12h2l1-7 2-1 5-11 2-2-1 4-4 11-11 26-5 12h-2l-2 10-7 15-3 5-4 13-6 15h-2l-2 10h-2l-1 5-2 4-6-12-9-15 4-2h2l2-10 4-5h-14l-4-4 3-1-2-11 3-3 3-11v-44h-2l-3 9-3 24-1 12h-7l-9-2v-1l14 1 2-28 5-21 6-13z" fill="#B79E7D"/>
<path transform="translate(1270,1255)" d="m0 0 2 1 5 13 5 12 2-1 6-16 3-6 3 4 9 20v2h-6l-1 41 7 1v7l-18-2-15-2-10-2-1-1v-5h7v-36l1-5h-7l-1-3 4-12z" fill="#B79E7C"/>
<path transform="translate(1856,1679)" d="m0 0h3l1 2 2 15v12l-5 14-8 16-12 20-6 9-2 1-2 7-5 5-6 2-4 1h-7l-11-4-9-6-2-2 1-4 12-4 9-5h5v-2l14-8h2v-2l5-3 6-8 6-10 5-17 3-10z" fill="#ACADAD"/>
<path transform="translate(1677,1786)" d="m0 0 3 1 1 20-9 3-55 9-27 4h-5v2l-24 4-42 6-24 4-35 5-18 2-14 1-2 1-17 1v-3l14-3 15-3 16-2 19-3 34-6 19-3 21-3 32-6 20-2 7-2 21-3 12-2 15-2 15-3 5-2 1-2z" fill="#665B50"/>
<path transform="translate(1269,1728)" d="m0 0h2l4 9 6 16-1 2h-5v39l15 3-1-22v-12l-1-5-5-3 3-9 5-12 4 1 4 11v5h2l3 6v3h-6l1 40 5 2 1 6-1 1-8-1-33-8-3-2v-5l1-1h6l-1-16v-23l-5-2v-7z" fill="#6C6156"/>
<path transform="translate(1140,1810)" d="m0 0 12 1 10 3 9 1 10 3 10 2 5 2 8 2 7 2 20 5 13 3 10 3 7 1 9 3 21 5 10 3 21 5 11 1h19l1-2 24-3 11-2 20-3 4 1h-3l1 4-48 9-17 2h-21l-18-3-129-36-35-10z" fill="#9F8B71"/>
<path transform="translate(849,578)" d="m0 0 27 1 41 3 21 4 11 5 8 6 1 2-13-1-16 2-18 2h-9l-14-3-14-9-8-5-12-5-5-1z" fill="#FDFDFD"/>
<path transform="translate(1695,1379)" d="m0 0h1l1 107 1 53v254l-1 16h-1l-2-54v-367z" fill="#ACADAD"/>
<path transform="translate(1327,892)" d="m0 0h130l-1 2-12 1h-31l-45 2-86 1-30 1h-40l-6-1v2l-3 1-1 2 3-1 62 3 31 1 5 1v1h-39l-32-1-31-2v-6h-31v-1l18-2 24-2h75l8-1h29z" fill="#A38C6F"/>
<path transform="translate(1684,1015)" d="m0 0h1l1 16v71l-1 222-1 35-1 16h-2v-227l2-71v-58z" fill="#675C51"/>
<path transform="translate(1713,1485)" d="m0 0 5 5 13 18 14 18 13 16 10 13 11 14 10 12v1h-14l-8 2-4-1h2l-4-7-2-3-2-6-8-9v-2h-2l-5-8v-2l-3-1-8-10-1-5-3-1-7-9v-2h-2v-3l-3-1-2-10 4 2 11 11 2 4 5 4 4 7 11 12 2 4 4 4 5 6 8 8 2 4 7 4-1-1-2-4-3-1-2-5-6-8-7-9-8-9-8-11-8-8-4-8-7-8-5-8-4-5z" fill="#6B6055"/>
<path transform="translate(1791,1668)" d="m0 0h6l10 6 3 6-2 3-7 2-3 2-1 4 2 8 6 6v6l-4 4-6 2-9-2-6-4-5-10-1-13 3-8 8-9z" fill="#CACCCC"/>
<path transform="translate(1442,804)" d="m0 0h2l2 5-5 2-3 7-2 22v39l1 10 4 1 36 1v1l-91 1h-59l-5 1h-35l-1 2v-2l-3 1h-60l-1-1-34-1v-1l85-2 75-1h59l1-2 1 1h22l1-73h2l1-6z" fill="#BDAB93"/>
<path transform="translate(1062,1787)" d="m0 0h8l16 4 9 1 7 1 10 3 15 4 10 2 10 3 14 4 5 1v2l3-1 15 4 6 2 20 5h2v2l16 3v2l3-1 9 2 5 2 12 3 16 3 16 4 12 5 4 2-4 1-13-4-26-6-6-2-5-1-15-4-5-1-16-4-10-2-3-2-9-2-5-2-10-2-9-2-15-3-9-2h-7l-50-13-26-6-2-1z" fill="#AD9576"/>
<path transform="translate(445,1778)" d="m0 0v3l-13 5-17 3-23 2-24 1-78 1-68-1-26-1-10-2 1-2h19l10 1 93-1h54l41-2 19-3z" fill="#ADAEAE"/>
<path transform="translate(1422,815)" d="m0 0 2 3 2 5 2 8 1 6 1 20v31h-18l-2-2 2-4 3-43 2-18 1-3h2v-2z" fill="#786E62"/>
<path transform="translate(271,566)" d="m0 0h14l26 3 11 4 5 4-1 4-7 2h-25l-36-1-7-3v-4l8-5z" fill="#FDFDFD"/>
<path transform="translate(1044,919)" d="m0 0 1 4-4 16 1 6 3 4v40l-1 9-5-3-3-3-2-1v-2l-3-1-1-4-6-2-2 1 2-4 4-4h2l-7-8-2-4 1-5 3-6 3-1v-2l4-2h6l-3-7v-8l3-6 5-4z" fill="#8F8981"/>
<path transform="translate(933,659)" d="m0 0 5 1 3 7v54l1 9-4 2-10-3 1-13v-37h-2l-3 9-3 24-1 12h-7l-9-2v-1l14 1 2-28 5-21 6-13z" fill="#ACADAD"/>
<path transform="translate(1138,655)" d="m0 0h12l-1 5-1 4h-2l-1 7-3 4-5 1-27 1h-21l-2-1v-2l15-6h2l-7-7v-4h21l2 3-1 1 9-1v-2z" fill="#C7C9C9"/>
<path transform="translate(1693,945)" d="m0 0h1l-1 62-1 23-1 94v253l2 3-4-2-1-8v-313l1-48 2-26v-29z" fill="#ACADAD"/>
<path transform="translate(707,695)" d="m0 0 1 4v13l7 3 16 4 6 5 20 4 11 4 2 2 11 1 10-4 3-2 3 1-5 4h-2l-2 5-9 5h-10l-19-3-10-1-10-4v-2l-4-2v-4l3-4-1-3-22-5-6-4v-6l4-4z" fill="#ACADAD"/>
<path transform="translate(326,344)" d="m0 0h45l33 3 54 7 19 3 1 1v14l-4 1-1-5 2-3v-6l-47-6-62-4h-51l-52 6-38 4-33 5-11 2h-6v-1l38-7 44-6 58-7z" fill="#AAABAA"/>
<path transform="translate(1106,877)" d="m0 0h1l1 14-12 4 6 2 9 1 22 1h35v1l-6 1 1 141 1 1 9 1v1h-11l-1-1-1-141h-31l-44-2h-38l-1 18h-1v-22l2-3 3-1 40-1 10-1 3-5z" fill="#9F896D"/>
<path transform="translate(678,575)" d="m0 0h4l-2 5-4 8-5 1-22-1h-25l-4 1h-14l-3-1-1 2-6-1-3-1 12-6 21-4 44-2z" fill="#FDFDFD"/>
<path transform="translate(624,1723)" d="m0 0 9 2 7 2 19 6 13 2 2 1 20 2h21l30-2 42-5 2 2-5 3-11 3-32 4-14 1h-32l-21-3-19-5-20-7-10-4z" fill="#ACADAD"/>
<path transform="translate(699,549)" d="m0 0 6 1 19 5 13 4 5 4-1 5-3 3-6 2h-11l-16-3-7-3-1-6-4-5v-4h2v-2z" fill="#ACADAD"/>
<path transform="translate(807,1703)" d="m0 0 17 4 9 3 7 2 26 5 16 2h28l22-1 19-2h6l5-1 13-1-1 3-16 4-25 3-12 1h-35l-22-3-24-6-33-11z" fill="#ACADAC"/>
<path transform="translate(953,752)" d="m0 0h6l1 4-5 14-3 8h-2l-2 10h-2l-1 5-2 4-6-12-9-15 4-2h2l2-10 4-4z" fill="#A9A9A8"/>
<path transform="translate(645,721)" d="m0 0h7l14 4 22 2 4 1 19 1v4l-1 1h-19l-31 4-6 1-4-1-11-2-1-7 3-6z" fill="#FDFDFD"/>
<path transform="translate(1678,1103)" d="m0 0h1l1 5v232l-2 2-1-3v-230z" fill="#CACCCC"/>
<path transform="translate(1722,801)" d="m0 0 4 2-3 9-1-4-3-1-6 4-3 6-1 9-2 114v21l-1 38-2 4h-1l-1-61-3-2 4-2 1-15 1-44v-14l-1-24-1-10 1-13 7-10 4-4z" fill="#ACADAD"/>
<path transform="translate(715,687)" d="m0 0h3l2 5 9 2 5 2 9 1 20 4 9 3 14 3 8 2 9 1 8 3 11 1 13 3 10 1 4 2 39 7 13 3 5 1 10 3 5 4-1 2-5-4-10-2-6-2-19-3-12-3-12-2-7-1h-9l-2-2-7-1-21-1-4-3-5-2-12-2-9-2-5-2-20-4-1-1-19-3-6-1-13-2v-2l-6 1 1-4z" fill="#655A4F"/>
<path transform="translate(1824,1609)" d="m0 0h14l9 2 10 6 4 3v2l3 1v2h2l2 3v3h2l8 17 3 10 2 7v13l-2-4-4-9-6-14-6-10v-2l-4-2-3-5-4-4v-2l-4-2-11-9-15-5z" fill="#F9FAFA"/>
<path transform="translate(1111,865)" d="m0 0h12l5 3 3 4v9l-1 7-5 4-21 2-4 3-4-1-1-2 12-3-1-9 2-10z" fill="#918B82"/>
<path transform="translate(1681,936)" d="m0 0 4 1 2 43v94l-2-1v-50l-1-4v60l-1 41h-1l-1-158-2-2 1-23z" fill="#786E62"/>
<path transform="translate(1408,1845)" d="m0 0 4 1h-3l1 4-48 9-17 2h-21l-18-3-24-7 2-2 9 2 4-1 8 3 28 3 19-1 1-2 24-3 11-2z" fill="#948F87"/>
<path transform="translate(1270,1255)" d="m0 0 2 1 5 13 5 12h-7v39h-7v-35l1-5h-7l-1-3 4-12z" fill="#333131"/>
<path transform="translate(806,857)" d="m0 0h56l2 8 1 38 1 3 1 28v32l-3 4v-20l-3-82v-10h-54v18l-3 93h-2l-1-4v-21l3-65 1-16z" fill="#817A71"/>
<path transform="translate(1293,1258)" d="m0 0 3 4 9 20v2h-6l-1 39-7-1v-40h-6l-1-2 6-16z" fill="#313030"/>
<path transform="translate(1212,894)" d="m0 0h11l12 1 47 1v2l-30 1h-40l-6-1v2l-3 1-1 2 3-1 62 3 31 1 5 1v1h-39l-32-1-31-2v-6h-31v-1l18-2z" fill="#A18B6E"/>
<path transform="translate(1276,1756)" d="m0 0h7l6 2 1 5v34h-5l-9-4z" fill="#B79E7C"/>
<path transform="translate(1107,646)" d="m0 0h19v1l-8 1-1 5 22-1 10-1 3 2v6l-6 15-3 3-12 2-55 2h-17l-1-1 1-8 3-6 1 3-2 4v5h26l19-1 4-1 27-1 6-2 3-9h2l1-5 1-4-23 2-23-3-7-3v-2l3-2z" fill="#685D52"/>
<path transform="translate(1713,1500)" d="m0 0 5 1 3 2h3l8 10 3 6 8 8 12 16 9 10 6 9 2 2 1 4 5 4 2 1-1 2-5-2-4-3-3-5-4-4v-2l-4-2-4-5-5-6-9-11-6-7-3-5-4-3-3-5-8-7z" fill="#F0F1F1"/>
<path transform="translate(650,667)" d="m0 0 5 1 4 13 1 5v18l-1 8-1 5-1 2-4-1-3-10-2-12v-25z" fill="#928C84"/>
<path transform="translate(1062,652)" d="m0 0 4 2 2 5 6-1 2 2-5 2 6 1 5-1 8 2 1 5-4 4-6 3 5 1h20v1l-19 1h-26l-1-1 1-7 3-11v-5z" fill="#928B82"/>
<path transform="translate(709,693)" d="m0 0 1 3-1 4v12l25 5 16 4 21 5 10 4 9-1 5-2h9l29 3v1h-11l-24-2-10 4-7 3-11-1-5-3-12-4-16-3-6-5-20-5-4-3v-13z" fill="#928C84"/>
<path transform="translate(793,605)" d="m0 0h43l3 12 2 12-2-1-1-8h-2l-1-5v-7h-42v3l3 1 3 9v2h2l4 10 7 14 1 35 2 1-5-1-2-1-1-5-1-27-3-8-2-5-4-13-3-9-2-1-2-7z" fill="#ABACAB"/>
<path transform="translate(1713,1504)" d="m0 0 4 2 11 11 2 4 5 4-1 2-4-2 4 7 1 3h2l10 13 7 9 11 13 4 5v2h2v2l2 1-6 3-4 1 2-1-4-7-2-3-2-6-8-9v-2h-2l-5-8v-2l-3-1-8-10-1-5-3-1-7-9v-2h-2v-3l-3-1z" fill="#948E87"/>
<path transform="translate(1292,1735)" d="m0 0 2 1v2h2l3 8v5h2l2 4v4l-6 1-1 37h-4l-1-2-1-36-2-3-3-1 1-6 3-6z" fill="#2E2E2E"/>
<path transform="translate(1715,1623)" d="m0 0v3l-2 6-1 11v97l1 21 1 4-5-4-1-5v-110l1-16z" fill="#7D746A"/>
<path transform="translate(1439,776)" d="m0 0h6l9 9 4 8-1 5h-2l-2 6v7l-5-1-1-3 4-7-1-4-11 1-1 3-9 2-2-5h2l2-5 11-9 2-6h-5z" fill="#786E62"/>
<path transform="translate(1269,1728)" d="m0 0h2l4 13 4 9v4h-4l-1 7v27l-1 4-4-1-1-2 1-37-6-2-1-4 5-10 1-7z" fill="#2D2C2D"/>
<path transform="translate(803,881)" d="m0 0h1v15l-2 48v25h2l5 10 2 5h2l5 6v2l3 1 7 8 5 5-6-2-9-4-1-4-4-2-4-4-7-11-4-14v-12l4-61z" fill="#AAABAA"/>
<path transform="translate(900,789)" d="m0 0 4 2-2 4-2 1-25 2h-40l-2-1 1-3 20-2 26-1z" fill="#ACADAD"/>
<path transform="translate(326,344)" d="m0 0h45l23 2v1h-17l-13-1h-34l-25 2v2l-42 5-38 4-33 5-11 2h-6v-1l38-7 44-6 58-7z" fill="#9A9691"/>
<path transform="translate(455,1645)" d="m0 0 9 2 51 11 11 4-4 1-26-1-17-3-13-5-11-7z" fill="#FDFDFD"/>
<path transform="translate(1271,1730)" d="m0 0 2 1 6 16 2 7-1 1h-5v39l4 2h-9l-8-2 1 3 9 3 25 6h6l2-1-1 4-8-1-33-8-3-2v-5l1-1h6l-1-16v-23l-5-2v-7l6-13h1v5l-5 10 1 4 5 2v37l1 2 3 1v-31l1-7 3-1 2 1-5-13-3-9z" fill="#6B6054"/>
<path transform="translate(1713,1485)" d="m0 0 5 5 13 18 14 18 13 16 10 13 11 14 10 12v1h-7l-5-5-3-2 1-2 4 1-4-3v-2l-3-1-2-5-6-8-7-9-8-9-8-11-8-8-4-8-7-8-5-8-4-5z" fill="#7D756C"/>
<path transform="translate(1866,1625)" d="m0 0 5 5 4 5 2 8h2l6 16 3 17v27l-5 22-1 9h-2l-1 4-3 6h-2v5l-3 1-2 7-3 1-4 6-1-3h2l2-5 9-16 5-12 5-17 1-7v-30l-2-11v-4l-3-1-3-10-7-14v-3h-2z" fill="#797066"/>
<path transform="translate(1712,1503)" d="m0 0 3 1h-2l3 10 2 1v3h2l4 6v2l3 1 4 5 4 7 5 6 3 3 4 6v2h2l3 4v2l3 1 4 5 2 6 1 4-5-5-11-13-11-14-10-12-9-12-4-12z" fill="#B0B2B2"/>
<path transform="translate(439,1066)" d="m0 0h2l1 5h2l7 18 7 21 5 14v5l-4-4-9-20-9-25-2-10z" fill="#ACADAD"/>
<path transform="translate(828,765)" d="m0 0h45l28 1 1 2-10 2h-31l-28-1-6-2z" fill="#ACADAD"/>
<path transform="translate(440,1018)" d="m0 0 5 1 6 8 12 25 6 10 1 9-5-1-4-7-6-16-6-13-3-5-5-4z" fill="#AAABAA"/>
<path transform="translate(1376,892)" d="m0 0h81l-1 2-12 1h-31l-27 1h-27l-2-2 1-1z" fill="#9F896D"/>
<path transform="translate(1794,1617)" d="m0 0 3 1-10 9-10 10-8 13-6 14-5 19-1 6v31l3 16 3 9v3h-2l-6-18-1-15v-20l3-22 3-8 5-13 6-11h2l1-4 9-10 5-5h2l1-3z" fill="#C7C9C9"/>
<path transform="translate(1261,1321)" d="m0 0h7l10 2 27 3v7l-18-2-15-2-10-2-1-1z" fill="#313030"/>
<path transform="translate(736,687)" d="m0 0 11 1 14 3 8 2h31l40 4h3l1 4-5 1-21-3-15-2-35-2-32-7z" fill="#ACADAD"/>
<path transform="translate(1204,1369)" d="m0 0 18 1 14 2 6 1 40 6 23 4 7 1v1l-18-1-21-3-24-3-36-6-9-2z" fill="#6B6055"/>
<path transform="translate(1024,981)" d="m0 0 6 3 2 4 2 1v2l5 2 5 5v5l-12-3-8-4-4-5-5-1 4-1 2-6z" fill="#ACADAD"/>
<path transform="translate(725,812)" d="m0 0 9 2 10 4 8 3h7l1 1v9l-4 1-9-4-18-10-4-3z" fill="#ACADAD"/>
<path transform="translate(414,1092)" d="m0 0 4 4 5 15 3 10 7 16 2 4v5l-3-1-8-15-8-20-3-11v-6z" fill="#ACADAD"/>
<path transform="translate(1740,1528)" d="m0 0 5 2 10 13 9 10 6 9 2 2 1 4 5 4 2 1-1 2-5-2-4-3-3-5-4-4v-2l-4-2-4-5-5-6-7-8 1-2h3l-5-5z" fill="#C5C7C7"/>
<path transform="translate(1442,804)" d="m0 0h2l2 5-5 2-3 7-2 22v39l1 11-4-1v-74l3-7z" fill="#CCCECE"/>
<path transform="translate(921,748)" d="m0 0 2 1 4 3h14l2 2-5 3-3 8-1 3h-2l-1 2-5-3-5-9-5-2 4-1v-6z" fill="#938D85"/>
<path transform="translate(158,462)" d="m0 0 5 5 1 6 4 4 3 5v3l3 1 2 8h2l3 3 3 7 5 5 2 5h2v2h2l6 8 4 4-1 2-12-11-7-8-11-15-9-16-6-13z" fill="#FDFDFD"/>
<path transform="translate(695,747)" d="m0 0 22 2 9 3v3h-11l-18-2h-13l-4 1-2-1 2-4z" fill="#ACADAD"/>
<path transform="translate(1719,806)" d="m0 0 4 2-1 6-7 1-3 5-1 18-1 33-1 17h-1v-62l2-12 5-6z" fill="#C9CBCB"/>
<path transform="translate(1206,903)" d="m0 0h16l76 3 5 1v1h-39l-32-1-26-2z" fill="#9F896D"/>
<path transform="translate(730,843)" d="m0 0 6 1 17 6 6 2 1 7-3 1-15-6-10-5-3-5z" fill="#ACADAD"/>
<path transform="translate(824,733)" d="m0 0h19l51 4v1l-15 1-3 1-17-1-7-1h-12l-15-2z" fill="#FDFDFD"/>
<path transform="translate(1764,1652)" d="m0 0 1 2-4 11-3 8-3 22v20l1 15 4 13 5 12 1 3h-2l-6-13-5-17-1-7v-30l3-16 5-15z" fill="#7C736A"/>
<path transform="translate(802,684)" d="m0 0 18 1 15 3 4 2v2l-5 1-19-3-22-1-3-2 5-2z" fill="#FDFDFD"/>
<path transform="translate(892,822)" d="m0 0 5 1v2l-17 3-21 2h-23v-2z" fill="#928C84"/>
<path transform="translate(996,667)" d="m0 0 1 3-5 12-11 26-5 12h-2l-2 10-7 15h-1v-5l5-10 5-15h2l1-8 2-2 1-5h2l3-12h2l1-7 2-1 5-11z" fill="#7C746A"/>
<path transform="translate(803,1156)" d="m0 0 3 1v9l-3 11-4 10-5 1 1-8 4-16z" fill="#928C84"/>
<path transform="translate(770,1736)" d="m0 0h8l-1 2-26 4-24 2h-17l-2-2 3-1 35-2z" fill="#96918A"/>
<path transform="translate(1262,1794)" d="m0 0 16 3 22 5 4 4-1 1-10-1-28-7-3-2z" fill="#2C2C2D"/>
<path transform="translate(514,1737)" d="m0 0 4 2-10 4-21 4-8 1h-9l5-4 14-3 12-2 11-1z" fill="#ADAEAE"/>
<path transform="translate(1812,1768)" d="m0 0 3 1-3 6h-2l-2 4-7 1-8-3-2-3v-3h9l7-2z" fill="#928C84"/>
<path transform="translate(1785,1679)" d="m0 0h7l3 1-1 6-4 6-1 1h-9l-1-1v-6l4-6z" fill="#ACADAD"/>
<path transform="translate(720,783)" d="m0 0h8l11 3 2 4-2 4-7 1-11-6z" fill="#ACADAD"/>
<path transform="translate(1756,1541)" d="m0 0 5 5 22 28 6 8h-7l-5-5-3-2 1-2 4 1-4-3v-2l-3-1-2-5-6-8-7-9z" fill="#8D877F"/>
<path transform="translate(1714,778)" d="m0 0h4l-1 5-3 4h-2l-1 3-5 3h-3v2l-6 2-4 1 3-5 1-4 6-2 6-5 1-2z" fill="#ABABAB"/>
<path transform="translate(1118,865)" d="m0 0 8 1 5 6v9l-1-4-13-3-5-3v-5z" fill="#AEAFAF"/>
<path transform="translate(793,605)" d="m0 0h43l3 12 2 12-2-1-1-8h-2l-1-5v-7h-42v3l3 1 1 4h-2l-3-3-2-7z" fill="#959089"/>
<path transform="translate(1062,666)" d="m0 0 1 3-2 4v5h26l19-1h31v1l-6 1-55 2h-17l-1-1 1-8z" fill="#6B6155"/>
<path transform="translate(1438,1840)" d="m0 0h5l-3 2-4 1h24v1l-18 2-14 1-2 1-17 1v-3l14-3z" fill="#7A7064"/>
<path transform="translate(414,349)" d="m0 0 13 1 44 6 7 2v14l-4 1-1-5 2-3v-6l-47-6-10-1v-2z" fill="#A3A29F"/>
<path transform="translate(864,903)" d="m0 0 2 3 1 28v32l-3 4z" fill="#908B84"/>
<path transform="translate(1106,877)" d="m0 0h1l1 14-7 2-9 1-33 1-12 1-1 23h-1v-22l2-3 3-1 40-1 10-1 3-5z" fill="#71675B"/>
<path transform="translate(1076,648)" d="m0 0h8v6l-4 2-12 1-6-5v-2z" fill="#CACCCC"/>
<path transform="translate(880,793)" d="m0 0h17l-1 2-29 2h-28l-1-2 14-1z" fill="#928C84"/>
<path transform="translate(833,731)" d="m0 0h13l39 3 11 1-3 2h-13l-37-3v-2h-10z" fill="#B2B1AE"/>
<path transform="translate(925 1e3)" d="m0 0h3v2l-24 3-13 1h-14l-5-3 2-1 2 1h9l20-2z" fill="#8D8781"/>
<path transform="translate(1794,1617)" d="m0 0 3 1-10 9-10 10-8 13-6 14-3 10h-2l-1 2 1-6 3-9 4-9 6-11h2l1-4 9-10 5-5h2l1-3z" fill="#B6B6B5"/>
<path transform="translate(1457,892)" d="m0 0h33l15 1v1l-18 1h-43v-1l12-1z" fill="#AB9475"/>
<path transform="translate(1439,776)" d="m0 0h6l9 9 4 8-1 5h-2l-2 6v7l-5-1-1-3 4-7 3-3-3-8-5-9-2-2-5-1z" fill="#655A4F"/>
<path transform="translate(841,629)" d="m0 0h2l2 6v10l2 10h2l2 9v9h2v24h-1l-2-20-1-6v-9h-2l-4-13v-12z" fill="#857E76"/>
<path transform="translate(1716,777)" d="m0 0 4 1 5 3v2l4 2 5 6 2 7-9 11-2 3v3l-3-1 2-6 7-7-1-8-8-10-6-5z" fill="#72685C"/>
<path transform="translate(1871,1741)" d="m0 0 1 2-7 11-6 9-9 9-2-1 3-5 7-9h2l1-5 2-1 2-5 1-2h2v-2z" fill="#FDFDFD"/>
<path transform="translate(1267,1731)" d="m0 0h1v5l-5 10 1 4 5 2v37l1 3h-2l-2-10v-29l-5-2v-7z" fill="#6D6357"/>
<path transform="translate(1327,892)" d="m0 0h49v1l-18 1 1 1 9 1v1h-32v-1l13-1-5-1-17-1z" fill="#AA9374"/>
<path transform="translate(905,833)" d="m0 0 4 1-1 10-5 4-5-1-1-4 1-3 4-4z" fill="#ACADAD"/>
<path transform="translate(290,348)" d="m0 0h15v2l-34 4h-8l2-1v-2z" fill="#A3A29F"/>
<path transform="translate(1730,1524)" d="m0 0 4 2 9 10 6 8-3 3-4-4-5-6v-2h-2l-6-9z" fill="#7B7166"/>
<path transform="translate(1419,871)" d="m0 0 3 1 4 11v4l-7 1-3-1 1-9z" fill="#655A4F"/>
<path transform="translate(855,857)" d="m0 0h7l2 8v55h-1l-2-52v-10h-6z" fill="#827A72"/>
<path transform="translate(801,625)" d="m0 0 3 4 4 11 4 7 1 35 2 1h-3l-1-2-1-9-1-24-5-11-3-9z" fill="#928C84"/>
<path transform="translate(1095,647)" d="m0 0h5l-1 2h-2l3 3 9 2 20 2 4 1-5 2h-5l-4-2-14-1-13-3-3-2v-2z" fill="#928C84"/>
<path transform="translate(1144,653)" d="m0 0h6l1 1v7l-5 13-3 3h-33v-1l27-1 6-2 3-9h2l1-5 1-4h-10z" fill="#888078"/>
<path transform="translate(1881,1728)" d="m0 0h1v6h-2l-1 4-3 6h-2v5l-3 1-2 7-3 1-4 6-1-3h2l2-5 9-16 5-10z" fill="#6F655A"/>
<path transform="translate(277,1790)" d="m0 0h21l31 1v1l-38 1-36-1v-1z" fill="#98938B"/>
<path transform="translate(1856,1767)" d="m0 0 2 1-9 9-6 4-10 5-9 3-12 1-13-2v-1h19l13-3 12-6 9-7z" fill="#776D63"/>
<path transform="translate(1747,1544)" d="m0 0h3l2 4 4 4 5 6 3 3-2 3-4-4-1 2-9-11-2-5z" fill="#6F6459"/>
<path transform="translate(740,719)" d="m0 0 13 1 21 5 7 2h14l-3 2-5 2h-6l-13-5-28-6z" fill="#665B50"/>
<path transform="translate(730,1579)" d="m0 0 4 1 1 4v10l-1 5-4-4-2-8 1-6z" fill="#ACADAD"/>
<path transform="translate(1204,1369)" d="m0 0 18 1 14 2 6 1 1 3-14-1-25-5z" fill="#6A5F54"/>
<path transform="translate(1756,1553)" d="m0 0 6 3 1-3 4 5 5 6 1 4 5 4 2 1-1 2-5-2-4-3-3-5-4-4v-2l-4-2z" fill="#A8A8A7"/>
<path transform="translate(1288,1758)" d="m0 0h1l1 5v34h-5l2-1v-26z" fill="#A78F72"/>
<path transform="translate(1298,906)" d="m0 0h25l2 2-2 2-39-1v-1l14-1z" fill="#AD9576"/>
<path transform="translate(1027,965)" d="m0 0 7 1 5 3 2 4-1 3-9-4-5-3-1-3z" fill="#ACADAD"/>
<path transform="translate(904,1722)" d="m0 0 22 1v1l-5 1h-35l-6-1v-1z" fill="#96918A"/>
<path transform="translate(1636,1823)" d="m0 0h7v2l-39 6h-6l1-2 15-2 7-1 13-2z" fill="#B0B1B1"/>
<path transform="translate(1280,1750)" d="m0 0 4 1v4l2 2-10-1v37l8 2v1l-7-1-2-1v-39l5-1z" fill="#9E8A72"/>
<path transform="translate(459,355)" d="m0 0 18 2 1 1v14l-4 1-1-5 2-3v-6l-16-2z" fill="#A09E9A"/>
<path transform="translate(1739,1520)" d="m0 0 5 5 12 15-1 4-16-20z" fill="#7E766C"/>
<path transform="translate(734,818)" d="m0 0 7 1 15 8v3l-7-2-15-9z" fill="#928C84"/>
<path transform="translate(1866,1625)" d="m0 0 5 5 4 5 4 12 3 8-1 4-3-8-6-14-2-3v-3h-2z" fill="#ABAAA6"/>
<path transform="translate(424,1129)" d="m0 0h5l6 12v5l-3-1z" fill="#AEAFAF"/>
<path transform="translate(895,820)" d="m0 0 5 2-1 4-8 2h-11v-1l17-2-1-2-12 1h-10v-1z" fill="#ACADAD"/>
<path transform="translate(1424,786)" d="m0 0h5l-5 7h-2v2l-6 5-4 5h-2l-1 4v-5l11-12z" fill="#B0B2B2"/>
<path transform="translate(1297,1849)" d="m0 0 9 1 16 4 11 1v2l-28-3-8-3z" fill="#9F896D"/>
<path transform="translate(439,1066)" d="m0 0h2l6 16 1 9-2-1-7-20z" fill="#928C84"/>
<path transform="translate(1710,1517)" d="m0 0 2 1-1 22-2 2-2-5v-4l1-9z" fill="#FDFDFD"/>
<path transform="translate(1047,900)" d="m0 0h38l-1 2h-33l-3 2-1 12h-1v-15z" fill="#AD9576"/>
<path transform="translate(415,1098)" d="m0 0h2l6 19 4 11-1 2-6-13-5-16z" fill="#928C84"/>
<path transform="translate(1062,666)" d="m0 0 1 3-2 4v5l19 1-4 2h-17l-1-1 1-8z" fill="#6F6459"/>
<path transform="translate(1062,652)" d="m0 0 4 2 2 5 6-1 2 2-5 2 6 1-2 2-7 1-2-2-1-8z" fill="#AE9B80"/>
<path transform="translate(790,606)" d="m0 0h40v1l-37 1v3l3 1 1 4h-2l-3-3z" fill="#73695F"/>
<path transform="translate(1756,1541)" d="m0 0 5 5 11 14v3l-4-2-9-13-3-3z" fill="#878077"/>
<path transform="translate(1206,898)" d="m0 0 24 1v1l-17 1 3 2h-14l1-3h3z" fill="#AD9576"/>
<path transform="translate(1766,1758)" d="m0 0 4 5 9 10 5 5 4 2v2l-6-2-5-4-10-13z" fill="#756B61"/>
<path transform="translate(1118,865)" d="m0 0 8 1 4 4-1 2-13-3-3-3z" fill="#CFD1D1"/>
<path transform="translate(1107,646)" d="m0 0h6v1l-10 2-1 2 15 3v1h-8l-11-3-1-3 3-2z" fill="#7C7368"/>
<path transform="translate(1764,1652)" d="m0 0 1 2-4 11-3 8-2 12h-1v-10l5-15z" fill="#72685E"/>
<path transform="translate(1273,1380)" d="m0 0h15l17 3 7 1v1l-18-1-21-3z" fill="#6E6458"/>
<path transform="translate(1665,1351)" d="m0 0h9l-1 6h-17v-1l14-2-2-1h-9v-1z" fill="#7E7161"/>
<path transform="translate(805,973)" d="m0 0 2 2 4 7v2h2l5 6v2l3 1 5 7-4-2-12-13-5-8z" fill="#857E74"/>
<path transform="translate(1437,778)" d="m0 0h5l-5 5-6 3h-8l1-2 5-1 3-3z" fill="#A09F9C"/>
<path transform="translate(1710,1740)" d="m0 0h2l1 21 1 4-4-3z" fill="#6A6055"/>
<path transform="translate(1443,801)" d="m0 0 4 1 1 8-4-4v-2l-8 5-2 6h-1l1-7 3-1v-2z" fill="#ABACAC"/>
<path transform="translate(257,352)" d="m0 0h8l-2 1v2l-16 1-5-1v-1z" fill="#A09E9A"/>
<path transform="translate(1267,1790)" d="m0 0 1 2 6 1 1-3v4l4 2h-9l-6-1v-2l-3-1h6z" fill="#73685D"/>
<path transform="translate(831,607)" d="m0 0h6l4 22-2-1-1-8h-2l-1-5v-7z" fill="#89837C"/>
<path transform="translate(1794,1617)" d="m0 0 3 1-10 9-7 7-1-2 7-8 4-2 1-3z" fill="#CCCDCD"/>
<path transform="translate(1871,1743)" d="m0 0 1 3-9 15h-2l-1 4-3 2 1-4 4-5 4-7z" fill="#BBBCBB"/>
<path transform="translate(775,726)" d="m0 0 6 1h14l-3 2-5 2h-6l-6-3z" fill="#695E53"/>
<path transform="translate(1755,1727)" d="m0 0 2 4h2l3 12 1 5h-2l-6-18z" fill="#BABAB9"/>
<path transform="translate(1350,894)" d="m0 0 5 1 2-1 2 1 9 1v1h-32v-1l13-1z" fill="#AD9576"/>
<path transform="translate(1711,751)" d="m0 0 9 1 6 2-2 3-5-2-13-1 2-2z" fill="#6E655B"/>
<path transform="translate(1809,1608)" d="m0 0 4 1-11 5-5 1v2l-6 2 2-4 7-3z" fill="#70665C"/>
<path transform="translate(1434,873)" d="m0 0h1l2 17-4-1v-15z" fill="#D3D5D5"/>
<path transform="translate(1454,798)" d="m0 0v3l-1 9-3 1-3-3 4-8z" fill="#685D52"/>
<path transform="translate(833,731)" d="m0 0h13l15 1v1l-6 1h-12v-2h-10z" fill="#A7A5A1"/>
<path transform="translate(1730,1509)" d="m0 0 3 1 6 8-1 4-5-4-3-6z" fill="#847C74"/>
<path transform="translate(1681,948)" d="m0 0 2 1 1 16-1-3-3-1v-8z" fill="#655A4F"/>
<path transform="translate(971,725)" d="m0 0h2l-1 5-7 15h-1v-5l5-10z" fill="#7F776E"/>
<path transform="translate(1787,1620)" d="m0 0 3 2-8 7-4 5h-2l-1 2 1-4z" fill="#6D6358"/>
<path transform="translate(1770,1562)" d="m0 0 5 2 5 6-1 3-4-2v-2l-3-1z" fill="#948F87"/>
<path transform="translate(1193,901)" d="m0 0h7l-1 6-4 1-3-4z" fill="#655A4F"/>
<path transform="translate(834,828)" d="m0 0h2v2l32-1v1l-8 1h-26z" fill="#ACADAD"/>
<path transform="translate(979,705)" d="m0 0 1 2-4 13h-2l-1 5h-1l1-8 1-2h2l1-8z" fill="#94908A"/>
<path transform="translate(996,667)" d="m0 0 1 3-5 12-3 1-1 5h-1l1-7 2-1 5-11z" fill="#878078"/>
<path transform="translate(1636,1823)" d="m0 0h7v2l-22 3v-2l13-2z" fill="#B3B4B4"/>
<path transform="translate(1267,1731)" d="m0 0h1v5l-5 10 1 4 3 1-1 2-5-2v-7z" fill="#6C6156"/>
<path transform="translate(1140,1810)" d="m0 0 12 1 6 3v2l-16-4z" fill="#A48E72"/>
<path transform="translate(1725,783)" d="m0 0 4 2 5 6 2 7-3 3-2-10-6-7z" fill="#655A4F"/>
<path transform="translate(1436,751)" d="m0 0 9 1 7 1-1 2h-2l-1 2-10-3v-2z" fill="#6C6359"/>
<path transform="translate(265,351)" d="m0 0h15v2l-17 1 2-1z" fill="#A5A5A3"/>
<path transform="translate(1268,1771)" d="m0 0h1v18l1 3h-2l-2-10 1-10z" fill="#685D52"/>
<path transform="translate(741,850)" d="m0 0 6 1 10 5-4 1-11-5z" fill="#928C84"/>
<path transform="translate(685,749)" d="m0 0h7l3 2-11 2-4 1v-3z" fill="#918B83"/>
<path transform="translate(1870,1748)" d="m0 0 1 4-2 5-3 1-4 6-1-3h2l2-5z" fill="#746B60"/>
<path transform="translate(1710,780)" d="m0 0h2l-2 4-8 7-4 1-1-3 6-2 6-5z" fill="#8D867E"/>
<path transform="translate(770,1736)" d="m0 0h8l-1 2-14 2 1-3z" fill="#99958F"/>
<path transform="translate(1739,1520)" d="m0 0 5 5 4 5v2l-4-2-6-7z" fill="#71675D"/>
<path transform="translate(1678,1348)" d="m0 0 2 1v8l-4-1v-3l1-4z" fill="#E2E3E3"/>
<path transform="translate(1281,1321)" d="m0 0 8 1-3 2h-8l-7-1v-1z" fill="#8F8577"/>
<path transform="translate(1044,919)" d="m0 0 1 4-2 7-2-4-4 6-1-3 4-5 3-2z" fill="#847563"/>
<path transform="translate(1067,649)" d="m0 0h5v3l-8 1-2-1v-2z" fill="#F4F4F4"/>
<path transform="translate(1292,1268)" d="m0 0 3 2 3 10-2 1-3-6-1-4z" fill="#655A4F"/>
<path transform="translate(1731,801)" d="m0 0 2 1-8 9v4l-3-1 2-6 5-5z" fill="#73695F"/>
<path transform="translate(963,745)" d="m0 0v3l-2 7-2-2-5-1 5-4z" fill="#827A70"/>
<path transform="translate(1118,656)" d="m0 0 10 3-2 2-8 1 1-3z" fill="#ACADAD"/>
<path transform="translate(1723,1501)" d="m0 0 4 1 4 7h-3l-5-6z" fill="#7B7267"/>
<path transform="translate(845,696)" d="m0 0h1v13l-1 2 3 1-5-1 1-7z" fill="#685D52"/>
<path transform="translate(476,360)" d="m0 0h1v12l-3 1-1-5 2-3z" fill="#ACADAD"/>
<path transform="translate(1881,1728)" d="m0 0h1v6h-2v3l-3-1 2-6z" fill="#685E53"/>
<path transform="translate(1291,1322)" d="m0 0 7 1v2l4 1h-8l-6-1z" fill="#8F8272"/>
<path transform="translate(1026,969)" d="m0 0 5 2 4 4v1h-7l2-1z" fill="#7B7368"/>
<path transform="translate(1092,895)" d="m0 0 5 1 14 2v1h-10l-7-1z" fill="#AD9576"/>
<path transform="translate(1084,673)" d="m0 0h3v3l2 1-6 1-3-2z" fill="#B1A798"/>
</svg>
