<?xml version="1.0" encoding="UTF-8"?>
<svg version="1.1" viewBox="0 0 2000 2000" width="500" height="500" xmlns="http://www.w3.org/2000/svg">
<path transform="translate(523,122)" d="m0 0h448l12 2 8 5 6 8 2 7v60h292l16 1 8 3 7 7 4 8 1 7v603h193l30 1 9 2 8 6 5 9 1 4 1 46v404l-1 21h242l38 1 9 3 7 6 5 9 1 5v501l-2 9-7 9-8 4-14 2h-1696l-10-2-9-6-4-5-3-8-1-256v-126l1-1245 3-9 6-8 8-5 5-1h326l1-54 2-12 5-8 5-4 7-3z" fill="#D7D7D7"/>
<path transform="translate(252,314)" d="m0 0h217l1 56 1 10 4 6 8 6 5 2 7 1h480l10-2 8-6 5-6 2-9 1-58h195l9 3 8 7 4 7 1 179v321l-84 1-104-1-69 1-25 1-7 1-347 1-10 4-5 4-5 9-1 4v12l5 10 8 7 10 4 336 1-1 5-1 41v179l1 75 2 1h-2v134l-1 1-224 1-40 1-20 1-13 2-1 3-1 28-1 68v309h1080l177 1v111l-2 9-7 9-8 4-14 2h-1057l-154-1-9-6-5-5-1-4-1-26v-65h-361l-10-2-9-7-5-6-2-12v-1404l2-8h2l1-5 5-4 4-4z" fill="#F9F9F9"/>
<path transform="translate(523,122)" d="m0 0h448l12 2 8 5 6 8 2 7v60h292l16 1 8 3 7 7 4 8 1 7v603h29l1 1v219l-2 8-6 9-10 7-8 2-8-1-8-4-16-10-10-7-23-15-13-9-4-3-4 1-25 17-12 8-25 16-11 6h-14l-8-4-8-8-3-5-1-4-1-33 1-191 40-1h41v-332l-1-168-6-10-8-6-8-3h-196v65l-4 7-9 8-5 2-7 1h-480l-9-2-9-5-6-7-1-2-1-10v-56l-217 1-11 3-2 4-4 4-1 3h-2l-1 8v1404l2 12 7 8 9 5 7 1 361 1 1 65 1 26 2 5 7 6 5 3v1l-64 1h-421l-10-2-9-6-4-5-3-8-1-256v-126l1-1245 3-9 6-8 8-5 5-1h326l1-54 2-12 5-8 5-4 7-3z" fill="#C1C1C1"/>
<path transform="translate(144,204)" d="m0 0h326v108l-212 1-10 2-5 3h-2l-2 4-4 4-1 3h-2l-1 8v1404l2 12 7 8 9 5 7 1 361 1 1 65 1 26 2 5 7 6 5 3v1l-64 1h-421l-10-2-9-6-4-5-3-8-1-256v-126l1-1245 3-9 6-8 8-5z" fill="#9A9A9A"/>
<path transform="translate(1006,312)" d="m0 0h190l10 4 8 7 5 9 1 168v56l-1 276-41 1h-40v191l1 33 3 7 7 8 6 4 3 1h14l13-7 20-13 15-10 19-13 7-5 4 1 16 11 23 15 22 15 12 6 8 1 10-3 9-7 5-9 1-6v-220h164l30 1 9 2 8 6 5 9 1 4 1 46v345h-654l-1-21v-35l-1-3-1-72v-190l1-30 2-5h-336l-12-5-8-8-4-9v-12l4-10 4-5 8-5 6-2 347-1 7-1 25-1 70-1 121 1h66l-1-170v-160l-1-170-6-9-9-6-5-1h-58l-137-1v58h-1v-59z" fill="#D7D7D7"/>
<path transform="translate(232,329)" d="m0 0 1 4-1 6v1360l1 38 1 12 3 6 8 7 5 2 32-1 12-1h12l23 1 13 1 17 1 257 1 1-81h1v54h1080l177 1v111l-2 9-7 9-8 4-14 2h-1057l-154-1-9-6-5-5-1-4-1-26v-65h-361l-10-2-9-7-5-6-2-12v-1404z" fill="#D7D7D7"/>
<path transform="translate(1201,204)" d="m0 0h90l16 1 8 3 7 7 4 8 1 7v603h29l1 1v219l-2 8-6 9-10 7-8 2-8-1-8-4-16-10-10-7-23-15-13-9-4-3-4 1-25 17-12 8-25 16-11 6h-14l-8-4-8-8-3-5-1-4-1-33 1-191 40-1h41v-332l-1-168-6-10-8-6-8-3h-194l-1-1v-107z" fill="#9A9A9A"/>
<path transform="translate(693,1739)" d="m0 0h1e3l177 1v111l-2 9-7 9-8 4-14 2h-555l-1-1-15-2-1-4 1-8 2-34v-33l1-53h-583z" fill="#D7D7D7"/>
<path transform="translate(618,1685)" d="m0 0h1257v55h-1252l-5-1z" fill="#8D8D8D"/>
<path transform="translate(1178,832)" d="m0 0h143l35 1 1 1v219l-2 8-6 9-10 7-8 2-8-1-8-4-16-10-10-7-23-15-13-9-4-3-4 1-25 17-12 8-25 16-11 6h-14l-8-4-8-8-3-5-1-4-1-33 1-191z" fill="#8C8C8C"/>
<path transform="translate(1569,1325)" d="m0 0 80 1 9 1v222l-3 7-6 8-10 7-6 2-8-1-14-7-51-34-10-7-3-2v2l-9 5-18 13-35 23-13 7h-12l-8-4-6-5-5-7-2-7v-222l1-1z" fill="#8D8D8D"/>
<path transform="translate(877,1326)" d="m0 0h135l43 1 1 89v132l-4 10-7 8-8 5-10 2-11-4-16-10-42-28-11-7-5 2-11 7-33 22-17 11-12 6h-11l-8-4-7-6-5-9-1-3v-223z" fill="#8C8C8C"/>
<path transform="translate(1221,1191)" d="m0 0h353v55h-654l-1-21v-33z" fill="#8D8D8D"/>
<path transform="translate(579,670)" d="m0 0h456l9 5 6 7 4 11v7l-3 10-9 10-11 4-6 1h-443l-10-5-6-5-4-6-2-7v-10l3-9 7-8z" fill="#4E4E4E"/>
<path transform="translate(581,505)" d="m0 0h450l11 4 5 4 5 8 2 6v9l-3 9-6 8-8 5-9 2h-446l-8-3-9-8-4-8-1-4v-11l6-12 7-6z" fill="#4D4D4D"/>
<path transform="translate(582,834)" d="m0 0h351l-2 3h-2v2l-5 5-4 8-2 37h-337l-10-5-7-7-4-9v-12l4-10 4-5 8-5z" fill="#4E4E4E"/>
<path transform="translate(479,558)" d="m0 0h11l12 6 6 7 3 7 1 11-4 11-9 10-73 73-7 5-8 3h-8l-11-4-12-11-33-33-5-9-2-4v-10l3-9 9-10 9-4h12l10 4 10 9 12 12 4-1 55-55 11-7z" fill="#4D4D4D"/>
<path transform="translate(479,764)" d="m0 0h12l9 4 5 5 4 5 3 10-1 9-4 10-11 12-41 41-5 4-7 8-12 12-10 8-11 4h-9l-8-3-10-9-37-37-5-10-1-5v-7l3-8 4-6 6-5 7-3 11-1 10 3 9 7 13 13 2 5 5-5 12-11 46-46 6-3z" fill="#4D4D4D"/>
<path transform="translate(1277,1326)" d="m0 0h21l2 3 1 28 1 42v77l-1 36v42l1 58-1 71 2 2h-28l1-10-1-46v-276l1-11-2-7v-7z" fill="#C1C1C1"/>
<path transform="translate(693,1739)" d="m0 0h610l-1 5 1 33 1 54v33l-2 5h-2v2l-6 2-6 1-15-2-1-4 1-8 2-34v-33l1-53h-583z" fill="#C1C1C1"/>
<path transform="translate(122,282)" d="m0 0h1l1 39 1 340v53l-1 470v540l-1 38h-1l-1-164v-126z" fill="#C1C1C1"/>
<path transform="translate(232,329)" d="m0 0 1 4-1 6v1360l1 38 1 12 3 6 8 7 5 2 32-1 12-1h12l23 1 13 1 17 1 255 1 2 2h-360l-10-2-9-7-5-6-2-12v-1404z" fill="#D7D7D7"/>
<path transform="translate(1356,833)" d="m0 0h164l30 1 9 2 8 6 5 9 1 4 1 46v288l-2-4v-183l-1-135-3-12-4-8v-3h-2l-3-3-8-3-16-2h-95l-67-1-15 1z" fill="#FAFAFA"/>
<path transform="translate(230,1699)" d="m0 0h2l1 38 1 12 3 6 8 7 5 2 32-1 12-1h12l23 1 13 1 17 1 255 1 2 2h-360l-10-2-9-7-5-6-2-12z" fill="#CFCFCF"/>
<path transform="translate(122,1276)" d="m0 0h2v448l-1 38h-1l-1-164v-126z" fill="#C5C5C5"/>
<path transform="translate(1006,312)" d="m0 0h190l10 4 8 7 5 9 1 168v56h-1l-1-46-1-3-1-176-6-9-9-6-5-1h-58l-137-1v58h-1v-59z" fill="#CECECE"/>
<path transform="translate(250,313)" d="m0 0h220l2 64 4 7 7 6 6 3 40 1 107 1v1h-141l-9-2-9-5-6-7-1-2-1-10v-56l-217 1-6 1z" fill="#D7D7D7"/>
<path transform="translate(1196,313)" d="m0 0 6 1 9 6 6 8 2 4 1 168v56h-1l-1-46-1-3-1-176-6-9-9-6-5-1z" fill="#D2D2D2"/>
<path transform="translate(122,1546)" d="m0 0h2v178l-1 38h-1l-1-157z" fill="#C1C1C1"/>
<path transform="translate(1356,833)" d="m0 0h164l18 1-3 2h-95l-67-1-15 1z" fill="#FAFAFA"/>
<path transform="translate(930,839)" d="m0 0 1 3-4 10-3 24-2 5-3 3v-32l4-8z" fill="#F5F5F5"/>
<path transform="translate(977,123)" d="m0 0 6 1 8 5 6 8 2 7v41l-2-4-3-36-3-9v-3h-3v-2h-3l-4-4z" fill="#D8D8D8"/>
<path transform="translate(230,1699)" d="m0 0h2l1 38 1 12 3 6 8 7 4 2v2l-4-1-8-6-5-6-2-12z" fill="#CECECE"/>
<path transform="translate(319,1747)" d="m0 0 18 1 3 2 8 1-2 1-1 3h-21l-6-3-2-3z" fill="#D8D8D8"/>
<path transform="translate(490,123)" d="m0 0h9l-1 2-7 2v2l-8 5-4 1v2l-5 1 2-6 7-6z" fill="#D8D8D8"/>
<path transform="translate(1573,1326)" d="m0 0h76v1l-53 1-2 2h-8l-2-2-11-1z" fill="#ADADAD"/>
<path transform="translate(1356,833)" d="m0 0h18l-1 2-15 1z" fill="#F9F9F9"/>
<path transform="translate(1260,973)" d="m0 0 2 1 1 1v5l-1 2-3-1v-2h-2l2-5z" fill="#9A9A9A"/>
</svg>
