<?xml version="1.0" encoding="UTF-8"?>
<svg version="1.1" viewBox="0 0 1600 1600" width="500" height="500" xmlns="http://www.w3.org/2000/svg">
<path transform="translate(622,191)" d="m0 0h46l34 3 36 6 28 7 36 12 28 12 17 8 22 12 26 16 20 14 14 11 26 24v2l3 1 7 8 15 16 9 11 12 15 14 20 12 19 14 26 11 23 10 27 9 29 7 30 5 30 3 30v48l-3 33-6 36-9 36-10 29-14 32-14 27-10 17-11 17-12 17-11 13-9 11-15 16-22 22-11 9-12 10-19 14-21 14-16 9-3 3 5 2 10 7 6 7 1 3v95l-1 15-6 7-15 9-2 1 2 5 5 6v112l-5 6-13 8-26 14-18 11-26 15-22 13-21 11-9 3-7 1h-9l-13-3-19-10-24-14-26-15-24-14-28-16-8-6-3-5-1-22v-83l3-10 5-6 13-7-1-5-3-5-1-4-1-80-27-5-31-8-21-7-6-3 2 15 6 54 8 68 9 74 1 8v13l-9 7-25 14-21 13-19 11-15 8-6-2-29-17-28-17-23-13-48-28-26-15-22-13-26-15-24-14-26-15-19-11-17-10-4-4v-14l13-98 20-160 5-42 2-5 14-9 25-14 24-14 5-3h2l-8-21-10-33-5-21-5-33-3-31v-50l3-30 5-29 5-23 10-33 8-21 9-21 14-28 10-17 11-17 10-14 10-13 9-11 12-13 14-15 16-15 15-13 17-13 18-13 18-11 16-9 22-11 28-12 36-12 27-7 25-5 32-4z" fill="#D9E8FC"/>
<path transform="translate(1315,297)" d="m0 0h21l20 4 12 5 14 9 9 8 11 15 8 17 4 14 2 20-1 19-4 23-8 24-8 16-7 11-6 9 10 2 8 6 6 8 3 21 4 25 10 55 7 47 2 23v21l-3 23-8 36-10 38-20 65-7 11-6 15-6 11-9 10-11 14-7 14-6 19-7 30-6 33-1 7v10l7 39 12 60 4 15 8 16 13 18 16 21 14 21 6 14 12 38 17 55 14 45 10 29 11 22 2 6v11l-6 10-6 4-30 10-16 9-10 6-14 3h-17l-14-2-12-4-8-5-5-6-2-5 1-9 6-9 6-3 29-4 14-7 20-13 3-1-2-5-13-22-17-28-13-21-17-29-34-56-16-27-7-10-3 7-10 36-9 29-4 12-1 7-1 40-2 7-5 6-7 3-6 1-14-5-14-8-6-5h-2l-7 10-7 9-5-1-22-11-17-10-27-15-25-14-24-13-23-13-24-13-21-12-12-7-3-4v-23l7-162 2-59 1-12 4-4 27-7 7-3 9-9 6-16 7-17 9-14 10-9 13-6 7-2 6-11 9-10 11-8 5-10 7-24 11-38 16-54 6-25 3-33 2-38v-10l-9-10-5-8-3-8-1-11 2-12 7-16 10-16 13-17 8-7 7-5 4-12 7-10 5-5 8-7 13-9 10-10-2-5-8-13-8-16-5-13-2-10v-20l5-25 6-18 8-21 5-15 6-9 5-6 11-8 14-7 16-5zm60 335-7 8-9 19-4 16-1 8v18l5 25 11 33 8 28 3 6h1l2-44v-49l-3-32-4-35zm-213 255-6 9-5 10-6 20v6l15 14 7 8 7 14 1-4-5-34-5-41-1-2zm-78 39-8 6-8 10-9 19v3l12 5 6 4h2v-16l3-17 5-11v-3zm10 2-4 5-4 12-2 16v16l15 10 29 17 20 12 17 10 2-1-2-36-3-20-6-16-8-12-3-3h-3l-7 19-4 7-6 4-4 1h-9l-8-4-6-11-2-10v-14zm81 40m-5 3v19l1 39 10 7 7 4h3v-18l-5-23-6-16-6-10zm23 60 1 10 3 4h3l-1-6-5-8z" fill="#3267A8"/>
<path transform="translate(395,410)" d="m0 0 11 1 13 4 16 8 9 8 14 10 24 16 22 12 17 10 11 9 11 12 8 13 7 15 6 18 6 26 9 47 7 24 5 13 4 7v2h2l3 5 3 3v2l4 2 10 6 16 8 9 6 4 5 2 4v7l-5 10-10 11-14 11-38 28-16 12-14 10-10 8-8 7-4 7-3 26-3 8-5 4-17 8-9 6-13 12-13 13h-2l-1 3-5 3-9 5-8 3 5 4 27 14 7 4 2 31 7 57 2 16 6 57 9 76 8 67 3 24v13l-9 7-25 14-21 13-19 11-15 8-6-2-29-17-28-17-23-13-48-28-26-15-22-13-26-15-24-14-26-15-19-11-17-10-4-4v-14l13-98 20-160 5-42 2-5 14-9 25-14 24-14 5-3h2v-2l12-5h15l13 4 11 6 11 8 4 5 2 1v-37l4-15 4-6 5-5 8-5 7-2h9l7 1-1-8v-19l3-15 5-12 7-12 8-10 7-8v-7l-9-17-10-14-9-11-15-15-13-10-18-12-8-5-7-7-7-14-2-10 1-18 5-18 8-16 6-9 11-12 13-12 7-7 8-7 10-8 15-9 10-4z" fill="#8FB1F8"/>
<path transform="translate(669,276)" d="m0 0h30l17 4 16 8 12 7 13 9 10 6 12 4h14l27-7 22-6 21-3h41l9-3 6-4h2v-3l4 1 11 9 9 9 8 7 2 4 3 1 7 8 15 16 9 11 12 15 14 20 12 19 14 26 11 23 1 12-3 1-1 4-10 24-5 16-1 9v15l5 22 12 39 1 6v17l-4 12-5 9-9 11-9 13-2 6v12l3 11v6h2l2 15-2 7-5 2-2 4-6 3-11-1-17-8-10-8-4-3v-2l-4-2-9-9-7-10-2-1-3-5-9-10h-7l-11 8-7 9-7 12-10 22-5 9-4 4-4 8-7 6-4 2h-8l-9-6-6-7-5-11-4-14-6-39-5-29-6-18-8-14-2-4-3-1-4-5-3-2v-2h-3l-1-2-19-7-15-4-17-8-3-2v-2l-4-1v-2l-4-2-9-10-8-13-6-12-2-2h-8l-17 6-10 2h-12l-12-3-16-8-9-9-4-9v-10l8-19 3-7v-13l-4-8-8-8-13-8-15-8-11-6-6-5-5-7-4-10-5-21-6-10-6-5-2-1h-12l-16 4-11 1h-11l-17-4-16-8-3-4v-9l4-6 9-4 4-1 32-1 11-4 7-5 3-9 2-12 3-6 7-6 9-4h9l9 4 5 4 7 8 8 8 9 5h7l8-4 12-11 9-10 9-8 10-6z" fill="#ACC0FD"/>
<path transform="translate(1315,297)" d="m0 0h21l20 4 12 5 14 9 9 8 11 15 8 17 4 14 2 20-1 19-4 23-8 24-8 16-7 11-6 9 10 2 8 6 6 8 3 21 4 25 10 55 7 47 2 23v21l-3 23-8 36-10 38-20 65-7 11-2 5-16 8-13 6-23 8-29 6-37 5h-40l-27-4-10-3-16-8-7-6v-2l-4 4-6 11-6 16-2 8v6l8 7v3l-5 1-4-4-3-1-3 11-5 12-5 5-4 3-4 1h-9l-8-4-5-8-3-8-1-6v-14h-2l-4 8-3 13-2 18-1 4-3-1-2-6v-9l3-17 6-14-8 4-8 9-7 13-4 4h-4l3-9 7-12 9-10 10-6 11-4 3-1 6-11 9-10 11-8 5-10 7-24 11-38 16-54 6-25 3-33 2-38v-10l-9-10-5-8-3-8-1-11 2-12 7-16 10-16 13-17 8-7 7-5 4-12 7-10 5-5 8-7 13-9 10-10-2-5-8-13-8-16-5-13-2-10v-20l5-25 6-18 8-21 5-15 6-9 5-6 11-8 14-7 16-5zm60 335-7 8-9 19-4 16-1 8v18l5 25 11 33 8 28 3 6h1l2-44v-49l-3-32-4-35z" fill="#F36E86"/>
<path transform="translate(662,979)" d="m0 0 5 1 9 6 22 12 17 10 14 8 19 11 20 12 18 10 17 10 23 13 5 2 13-7 19-12 13-8 3-3v101l-6 7-15 9-2 1 2 5 5 6v112l-5 6-13 8-26 14-18 11-26 15-22 13-21 11-9 3-7 1h-9l-13-3-19-10-24-14-26-15-24-14-28-16-8-6-3-5-1-22v-83l3-10 5-6 13-7-1-5-3-5-1-4-1-90 1-8 4 2 11 7 23 13 41 24 14 8 22 13 17 9 14 4h14l12-3 16-8 22-13 3-2h3l-1-5-10-5-22-13-15-9-23-13-22-13-23-13-25-15-21-12-1-3 21-12z" fill="#7EA2E5"/>
<path transform="translate(1379,877)" d="m0 0h2l-1 6-8 15-9 10-11 14-7 14-6 19-7 30-6 33-1 7v10l7 39 12 60 4 15 8 16 13 18 16 21 14 21 6 14 12 38 17 55 14 45 10 29 11 22 2 6v11l-6 10-6 4-30 10-16 9-10 6-14 3h-17l-14-2-12-4-8-5-5-6-2-5 1-9 6-9 6-3 29-4 14-7 20-13 3-1-2-5-13-22-17-28-13-21-17-29-34-56-16-27-7-10-3 7-10 36-9 29-3 6h-1l-1-11-2-50-7-128-2-31-2-3-8-4-16-10-23-14-5-6-2-9-4-28-5-16-5-13-5-9-2-1v-2h-2l-5-34-4-31v-9l11 7 13 6 19 4 16 2h40l37-5 29-6 26-9z" fill="#333136"/>
<path transform="translate(395,410)" d="m0 0 11 1 13 4 16 8 9 8 14 10 24 16 22 12 17 10 11 9 11 12 8 13 7 15 6 18 6 26 9 47 7 24 5 13 4 7v2h2l3 5 3 3v2l4 2 10 6 16 8 9 6 4 5 2 4v7l-5 10-10 11-14 11-38 28-16 12-14 10-10 8-8 7-4 7-3 26-3 8-5 4-17 8-5 2-4-7-8-9-16-24-10-17-14-27-12-28-8-22-7-24-6-27-5-32-2-18-1-15v-56l3-35 6-32 5-19 13-37 4-10-8-5-15-6-9-2h-13l-12 3-12 5-8 5-10 7-8 7h-2v-2l11-9 14-9 10-5 10-3z" fill="#ACC0FD"/>
<path transform="translate(663,278)" d="m0 0h7l-2 17-2 25v12l2 24 4 20 6 20 8 22 9 20 13 23 10 15 10 13 10 11 7 8 17 17 14 11 17 13 20 13 17 10 26 12 25 9 21 6 25 5 15 2 15 1h17l32-3 29-6 8-2 5 1 2 15-1 12-4 11-6 10-2 2-2 5-8 10-4 8-1 3v12l3 11v6h2l2 15-2 7-5 2-2 4-6 3-11-1-17-8-10-8-4-3v-2l-4-2-9-9-7-10-2-1-3-5-9-10h-7l-11 8-7 9-7 12-10 22-5 9-4 4-4 8-7 6-4 2h-8l-9-6-6-7-5-11-4-14-6-39-5-29-6-18-8-14-2-4-3-1-4-5-3-2v-2h-3l-1-2-19-7-15-4-17-8-3-2v-2l-4-1v-2l-4-2-9-10-8-13-6-12-2-2h-8l-17 6-10 2h-12l-12-3-16-8-9-9-4-9v-10l8-19 3-7v-13l-4-8-8-8-13-8-15-8-11-6-6-5-5-7-4-10-5-21-6-10-6-5-2-1h-12l-16 4-11 1h-11l-17-4-16-8-3-4v-9l4-6 9-4 4-1 32-1 11-4 7-5 3-9 2-12 3-6 7-6 9-4h9l9 4 5 4 7 8 8 8 9 5h7l8-4 12-11 9-10 9-8 10-6z" fill="#8FB1F9"/>
<path transform="translate(418,255)" d="m0 0h2l-2 4-10 10h-2l-2 4-4 4h-2v2h-2l-2 5-3 3h-2l-3 9h-2v3h-2l-2 6-8 11-5 9h-2l-1 4-6 10-8 16-7 15-11 25-11 30-4 15-3 10-1 8 3 1-9 9-8 11-8 16-5 16-2 15 1 13 4 11 6 9 8 7 12 7 15 11 11 9 16 16 12 16 8 13 5 10v7l-7 8-8 10-8 14-5 13-2 12v19l1 8-4 1-4-1h-9l-11 4-5 4h-2l-6 12-3 12-1 37-3-1-4-5-13-9-10-5-11-3h-15l-9 4-4-1-6-15-11-36-5-21-5-33-3-31v-50l3-30 5-29 5-23 10-33 8-21 9-21 14-28 10-17 11-17 10-14 10-13 9-11 12-13 14-15 16-15 15-13 17-13 18-13z" fill="#C7D7EF"/>
<path transform="translate(478,881)" d="m0 0v3l-4 5 5 4 9 5 16 10 14 9 16 8 27 12 23 9 26 9 23 6 32 6 12 3 25-14 8-4 10-3h14l14 3 23 13 15 8 9 6 19 11 16 9 16 8 11 7 15 10 7 8 1 3v95h-1l-1-85-5 5-36 22-6 3-5-2-27-15-22-13-18-10-18-11-35-20-26-15-12-7-3-2-5 1-25 14-5 2 4 4 20 11 15 9 24 14 26 15 24 14 14 8 27 16 9 5 1 3-1 2-11 6-23 13-10 5-12 3h-14l-14-4-21-11-15-9-17-10-26-15-45-26-8-6-1 17-12-1-28-6-31-9-14-6-2-9-4-37-4-32-2-31-16-8-22-12v-3l12-5 6-4 4-2 5-5z" fill="#C7D6EF"/>
<path transform="translate(389,412)" d="m0 0h13l15 4 16 8 2 3-8 20-12 36-6 29-3 22-2 27v54l2 26 5 34 6 28 6 22 10 28 10 24 8 16 10 19 11 18 14 20 10 12v4l-11 9-19 19h-2l-1 3-5 3-6 4-9 2-9-1-14-8-10-6-3-1-1-63-5-22-8-16-6-10-2-1-1-3-4-3-3-5-3-3-3-1-5-5-6-3-1-2-10-3h-14l-5 2h-3l-2 4h-2l-1 5-3 6v58l3 6 4 4 7 16 4 13 1 8v42l-1 39h-5l-5-5v-50l-1-29-3-14-8-18-5-5-2-1-2-11-4-2-7-6-1-3-15-10-7-3-6-1h-10l-9 6-4 8-2 12-2 79-6-1v-2l-4-2v-41l-5-4-26-15-5-5 9-6 14-8 15-9 4-8 6-8 7-5 4-2h15l13 4 11 6 11 8 4 5 2 1v-37l4-15 4-6 5-5 8-5 7-2h9l7 1-1-8v-19l3-15 5-12 7-12 8-10 7-8v-7l-9-17-10-14-9-11-15-15-13-10-18-12-8-5-7-7-7-14-2-10 1-18 5-18 8-16 6-9 11-12 13-12 7-7 6-3 9-8 15-9 10-5 10-3z" fill="#8FB1F8"/>
<path transform="translate(1315,297)" d="m0 0h21l20 4 12 5 14 9 9 8 11 15 8 17 4 14 2 20-1 19-4 23-8 24-8 16-7 11-5 7-3 5-12 11-14 9-13 6-11 3-12 2-34 1-26 4-40 9-8 2h-4l1-8 7-11 4-5 13-10 11-8 9-9-2-5-8-13-8-16-5-13-2-10v-20l5-25 6-18 8-21 5-15 6-9 5-6 11-8 14-7 16-5z" fill="#333136"/>
<path transform="translate(582,1152)" d="m0 0 5 2 10 5 16 10 14 7v2l5 2 13 7 24 14 10 6 5 2v2l5 1 2 1v2l6 2 8 4 9 4 6 2h10l12-1 10-4h7l11 7 8 5 1 103-16 9-17 10-19 9-11 2h-9l-13-3-19-10-24-14-26-15-24-14-28-16-8-6-3-5-1-22v-83l3-10 5-6 13-7z" fill="#B7C9E6"/>
<path transform="translate(1205,540)" d="m0 0h7v1l8 1 12 5 5 5 6 7 4 10 1 29v65l-1 22-4 35-5 25-5 19-7 19-7 16-9 16-6 11-6 9-5 9-6 9-11 17-9 14-2 5-1-2-4 4-6 11-6 16-2 8v6l8 7v3l-5 1-4-4-3-1-3 11-5 12-5 5-4 3-4 1h-9l-8-4-5-8-3-8-1-6v-14h-2l-4 8-3 13-2 18-1 4-3-1-2-6v-9l3-17 6-14-8 4-8 9-7 13-4 4h-4l3-9 7-12 9-10 10-6 11-4 3-1 6-11 9-10 11-8 5-10 7-24 11-38 16-54 6-25 3-33 2-38v-10l-9-10-5-8-3-8-1-11 2-12 7-16 10-16 13-17 8-7 7-5z" fill="#EFACAF"/>
<path transform="translate(1154,940)" d="m0 0 7 6 7 8 6 11 2-1v2l3 1 8 16 6 18 4 23 1 13-4-4 2 10 4 2 1-2 3 3v2l5 2 23 14 16 10 5 3 1 2 2 31 8 148 1 30 1 13-2 11-1 40-2 7-5 6-7 3-6 1-14-5-14-8-6-5h-2l-7 10-1-2-2-1-2-6-2-4-1-15v-82l-1-28-1-3h-2l1-10 5-22v-36l-2-30-2-8-7-6-8-4-10-4-2-1-2 14v11l-2 2-9-1-5-7v-6l5-9h2l1-7v-8l-3-5 1-1h5l5-31 1-7v-15h-2v-2l-6-2-14-9-18-10-14-9-9-6-5-3-6-4-22-11-5 1-3 5-3 9-2 9v25l22 14 14 8 15 9 11 7 16 8 11 8 4 4-3 1-14-6-10-7-2-1v-2l-6-2v-2l-6-2-16-10-7-4-26-14-5-1v35l-5 2-4-3v-39l-3-5-12-7-10-5-10-7-5-1-1 4-1-3 4-4 27-7 7-3 9-9 6-16 2-6h5l2-4 1 2-4 10 8 2 12 7 1-3 3 3 1-4 1 8 21 13 22 13 20 12 17 10h1l-2-36-3-20-6-16-6-10 5-1zm21 28m-5 3v19l1 39 10 7 7 4h3v-18l-5-23-6-16-6-10z" fill="#4274BD"/>
<path transform="translate(476,932)" d="m0 0h2l1 4v8h2l1 17 7 57 2 16 6 57 9 76 8 67 3 24v12l-5-1-14-7-15-6-11-5h-6l-10 18-11 23-10 18h-2l-1 5h-5v-13l-3-50-1-30-2-22-1-31-2-27-2-48-3-49-2-47v-22l-1-5 6-5 16-9 24-14 16-9z" fill="#6B92D4"/>
<path transform="translate(577,1044)" d="m0 0 4 2 11 7 23 13 41 24 14 8 22 13 17 9 17 5 1 1 2 25 1 4 5 2 9 4 4 1v6l-4 4-4 6-4 4-2 7-2 9v8l-4 13v6l-2 2-12-1-10-5-7-3-6-3v-2l-7-2-1-2-7-3-23-13-11-7-12-6-6-5-16-8-11-7-15-8-4-6-1-4-1-90z" fill="#6B92D4"/>
<path transform="translate(662,979)" d="m0 0 5 1 9 6 22 12 17 10 14 8 19 11 20 12 18 10 17 10 23 13 5 2 13-7 19-12 13-8 3-3v101l-6 7-15 9-2 1-1 3-7 3-19 11-11 7-11 6-9 5-5-1v-102l-16-9-39-23-21-12-24-14-21-12-27-16-14-8-1-3 21-12z" fill="#6B92D4"/>
<path transform="translate(476,932)" d="m0 0h2l1 4v8h2l1 17 7 57 2 16 6 57 9 76 8 67 3 24v12l-5-1-14-7-15-6-11-5h-7l2-4 2-6v-17l-2-21-1-3-4-46-2-13-2-27-3-32-3-50-3-29-2-27-2-20h-8v2l-12 6-1 2h-6l3-3 11-6 24-14 16-9z" fill="#7EA2E4"/>
<path transform="translate(629,997)" d="m0 0 9 6 21 12 25 15 25 14 15 9 25 14 13 8 27 16 5 3-1 4-11 6-23 13-10 5-12 3h-14l-14-4-21-11-15-9-17-10-26-15-45-26-8-6v8h-1v-15l3-7 4-5 15-10 11-6 16-10z" fill="#ABBFFD"/>
<path transform="translate(720,949)" d="m0 0h14l14 3 23 13 15 8 9 6 19 11 16 9 16 8 11 7 15 10 7 8 1 3v95h-1l-1-85-5 5-36 22-6 3-5-2-27-15-22-13-18-10-18-11-35-20-26-15-12-7-6-3 3-2 28-16 12-7z" fill="#ABBFFD"/>
<path transform="translate(335,749)" d="m0 0h14l10 3 1 3 5 1 6 5v2l4 1 5 5 2 4 3 2v3l3 1 5 9 5 8 5 13 4 18v63l5 1 14 8 11 6 12-1-2 2-6 2 5 4 27 14 7 4v14h-1l-1-12-24 13-17 10-16 9-8 5-7 1-8-5-13-8-15-9-13-8-15-8-3-1-1-2v-10l1-2 4 2 8 5 11 6 16 9 19 10 11 6 6-1 11-6 24-14 5-3-4-4-16-9-24-14-29-17-27-15-12-7-6-1-7-21-5-9v-2l-3-1-3-6v-58l5-11 4-4z" fill="#ABBFFD"/>
<path transform="translate(1398,501)" d="m0 0 5 2 3 4 3 21 1 15-1 8-6 26-6 16-11 24-9 14h-2l-2 4-6 9-7 15-4 16-1 8v18l5 25 11 33 7 25 1 13h-2l3 7-1 10-2 7-2 2-7 1-4-4-2-3v-4l-3-1-6-7v-2h-2l-4-10-1-12-1-15-6-9-7-6v-2h-2v-7l2-4v-8l-5-8-5-12-1-11 4-10 3-5h2l3-13v-14l-2-9 3-6 8-9 5-6 3-9-1-11v-12l3-12h2l2-5 4-5h2l2-4 5-4 4-3h2l1-3 7-4 2-12h-3l-1-5-2-2-5-17h2l1-4h2v-3h2l1-3 5-4 9-3 2 1z" fill="#F25A7A"/>
<path transform="translate(1409,543)" d="m0 0h2l12 65 7 47 2 23v21l-3 23-8 36-10 38-12 39-3 7-3-2-4-17-3-9-4-18-1-3 2-44v-49l-3-32-4-35-1-2 3-3 7-11 7-16 7-15 6-21 4-17z" fill="#EFACAF"/>
<path transform="translate(1164,113)" d="m0 0h5l-1 4-7 10-13 19-13 18-11 16-10 14-19 28h-4l-8-9-9-11-8-9-5 1-21 12h-2l-4-21-5-23-5-5-18-13-12-8 1-3 48-5 71-9z" fill="#DAE9FC"/>
<path transform="translate(582,1152)" d="m0 0 5 2 10 5 16 10 14 7v2l5 2 7 4 3 3 24 14 25 15 11 6 8 4 13 4 15-1 11-4 5-2 5 1 13 8 4 2-1 6-11 4-26 16-10 4-5 1h-12l-15-4-17-8-15-9-26-15-28-16-17-10-10-5-13-8-7-5-2-3 2-11 6-8 13-7z" fill="#D9E8FC"/>
<path transform="translate(561,1182)" d="m0 0 2 1v2l4 2 23 14 11 6 27 15 24 14 26 15 16 8 13 4 4 1h12l7-2 9-4 12-7 15-9 9-2 1-6-6-2-13-8-6 1-9 4-16 2-11-2-9-4-12-7-10-5-45-27 3-1 13 8 24 14 5 2v2l5 1 2 1v2l6 2 8 4 9 4 6 2h10l12-1 10-4h7l11 7 8 5 1 103-16 9-17 10-19 9-11 2h-9l5-5v-11l-1-13-1-29-1-16v-26l-16-5-16-8-26-15-19-11-11-7-11-6-23-13-14-8-7-2-4-4v74h-1z" fill="#C8D7EF"/>
<path transform="translate(1062,972)" d="m0 0 7 1 9 5 15 8 3 3 9 5 11 7 15 9 14 8 13 8 2 1v2h2l1 2v13l-5 32-2 6-5 1 3 5v8l-2 3v-8l-7-5-14-6h-6l-9 6-5 6-3-1 1-7 2-1 4-9 1-4-5-4-14-9-7-4-9-6-17-8h-6l-3 3-1 16 2 7-1 7-2 2h-7l-5-5-2-5v-10l1-8v-20l-2-5-9-3-16-8-2-2-1-2-5-2v-4l5 2 8 6 16 8 8 6 1 3v39l4 2 3-1 1-35 7 1 13 7 15 8 12 8 11 6 2 1v2l4 1 2 1v2l4 2 10 6 13 5 1-1-14-10-16-8-11-7-34-20-17-11-1-1v-25l4-16 3-6z" fill="#3267A8"/>
<path transform="translate(1011,869)" d="m0 0 1 3-2 5-8 11-10 13-11 13-7 8-11 12-23 23-11 9-12 10-19 14-21 14-16 9-4 2-13-8-25-13-19-11-13-8-4-4 15-2 48-10 22-6 26-9 26-11 32-16 13-8 15-10 9-7 5-5 10-8 3-7z" fill="#C8D7EF"/>
<path transform="translate(302,567)" d="m0 0 5 1 15 10 13 10 10 9 12 12 12 16 8 13 5 10v7l-7 8-8 10-8 14-5 13-2 12v19l1 8-4 1-4-1v-2h-2l-6-18-10-24-7-19-8-29-6-30-5-39v-9z" fill="#D9E8FC"/>
<path transform="translate(855,1164)" d="m0 0 5 5 3 4v112l-5 6-13 8-26 14-5 2-1-89-1-11-13-8-9-5 4-4 17-9 10-6 13-8 17-10z" fill="#C7D6EF"/>
<path transform="translate(336,738)" d="m0 0h9l5 2 8 2 6 3v2l5 2 7 6 5 3 7 8 4 4v3h2l4 7v2h2l10 20 4 12 2 13v65l-6-1-3-1-1-63-5-22-8-16-6-10-2-1-1-3-4-3-3-5-3-3-3-1-5-5-6-3-1-2-10-3h-14l-5 2h-3l-2 4h-2l-1 5-3 6v58l3 6 4 4 7 16 4 13 1 8v42l-1 39h-5l-5-5v-50l-1-29-3-14-8-18-5-5-2-1-2-11-4-2-7-6-1-3-15-10-7-3-6-1h-10l-9 6-4 8-2 12-2 79-6-1v-2l-4-2v-41l-5-4-26-15-5-5 9-6 14-8 15-9 4-8 6-8 7-5 4-2h15l13 4 11 6 11 8 4 5 2 1v-37l4-15 4-6 5-5 8-5z" fill="#4778C0"/>
<path transform="translate(1457,1406)" d="m0 0 3 4 10 21 1 3v11l-6 10-6 4-30 10-16 9-10 6-14 3h-17l-14-2-12-4-8-5-5-6-2-5 1-9 6-9 6-3 29-4 14-7 20-13 5-2 6 2h17l11-4 5-4h2l2-5z" fill="#68CAAC"/>
<path transform="translate(256,794)" d="m0 0h10l8 2 10 5 11 8 1 3 10 8 2 5v6l5 2 6 10 6 15 2 11 1 29v24h-1l-1-14-7-3-21-14-9-4-20-11-19-11-9-5-1 41-3-1h2v-39l1-40 2-12 4-8 8-6z" fill="#8EB0F8"/>
<path transform="translate(720,790)" d="m0 0h7l10 4 7 6 3 5 1 4v7l-4 11-8 7-13 6-21 9-10 6-6 7-7 11-9 10-8 4h-11l-10-4-8-6-9-10-4-9v-10l3-11h2l1-3 11-6 22-3 12-5 13-9 13-10 14-8z" fill="#ABBFFD"/>
<path transform="translate(914,824)" d="m0 0h7l8 4 3 5 1 3v11l-6 10h-2l-1 3-14 9-19 10-9 7-7 10-5 9-7 10-8 8-12 6-6 1h-10l-11-4-5-3-2-5v-11l3-6 5-5 11-5 5-8 4-15 2-14 5-10 5-5 10-2 21 1 12-3 17-9z" fill="#ACC0FE"/>
<path transform="translate(357,752)" d="m0 0 3 1v2l5 1 6 5v2l4 1 5 5 2 4 3 2v3l3 1 5 9 5 8 5 13 4 18v61l-6-2-28-16-11-7-5-3v-2h-2l-3-8-4-25-1-20 2-12 9-18 1-5v-13z" fill="#8EB0F8"/>
<path transform="translate(1154,940)" d="m0 0 7 6 7 8 6 11 2-1v2l3 1 8 16 6 18 4 23 1 13-4-4 2 10 4 2 1-2 1 7-5 1-14-8-8-4-3-1-6 39-1 11 6 5 6 4-1 3-11-4h-2l-2 6-2 15-3 4-7-1-1-7 5-17v-8l-3-5 1-1h5l5-31 1-7v-15h-2v-2l-6-2-14-9-18-10-14-9-9-6-5-3-6-4-22-11-5 1-3 5-3 9-2 9v25l22 14 14 8 15 9 11 7 16 8 11 8 4 4-3 1-14-6-10-7-2-1v-2l-6-2v-2l-6-2-16-10-7-4-26-14-5-1v35l-5 2-4-3v-39l-3-5-12-7-10-5-10-7-5-1-1 4-1-3 4-4 27-7 7-3 9-9 6-16 2-6h5l2-4 1 2-4 10 8 2 12 7 1-3 3 3 1-4 1 8 21 13 22 13 20 12 17 10h1l-2-36-3-20-6-16-6-10 5-1zm21 28m-5 3v19l1 39 10 7 7 4h3v-18l-5-23-6-16-6-10z" fill="#6F95D6"/>
<path transform="translate(878,1044)" d="m0 0h1v101l-6 7-15 9-2 1-1 3-7 3-14 8-3-1v-41l-1-42v-17l14-8 19-12 13-8z" fill="#7DA1E4"/>
<path transform="translate(826,1076)" d="m0 0h2l1 5v96l-6-2 2 5-4 4-14 8-6 3h-4l-1-24-1-77 15-8z" fill="#4274BD"/>
<path transform="translate(335,749)" d="m0 0h14l9 4 2 4v13l-3 10-6 10-2 6-1 14 2 22 3 18v6l-6-1-6-3-7-2-4-4-6-12v-2l-3-1-3-6v-58l5-11 4-4z" fill="#C6D5EF"/>
<path transform="translate(809,1216)" d="m0 0 3 1 1 100-24 14-5 3h-3l-1-45v-55l8-4 9-6 9-5h2z" fill="#4274BD"/>
<path transform="translate(1243,355)" d="m0 0h1l5 27 6 21 4 16 2 12v27l-3 17-6 13-4-4-12-21-8-20-2-10v-20l5-25 6-18z" fill="#EFACAF"/>
<path transform="translate(466,1250)" d="m0 0h6l18 8 10 4 17 8-5 5-8 5-26 15-21 13-21 12-7 3 2-5 4-9 19-37 8-16z" fill="#ABBFFD"/>
<path transform="translate(1147,119)" d="m0 0h7l-1 3-7 5-17 7-10 7-6 2v2l-12 6-11 7-16 9-12 6-5 5 1 4 6 7-1 4-16 9-7 4h-2l-4-21-4-19 1-5 9-3 10-4 27-9 34-11 9-4 11-4h5v-2z" fill="#C8D7EF"/>
<path transform="translate(1172,1038)" d="m0 0 6 1 13 8 4 4 22 12 13 9 2 2v4l-17 5-9 3v2h-2l-1 3-10 10h-6l-20-12-2-4v-8l6-37z" fill="#3267A8"/>
<path transform="translate(1381,825)" d="m0 0 5 3 5 10 1 5 2 5-1 7-4 10-5 7-2 5-16 8-13 6-23 8-29 6-37 5h-40l-27-4-10-3-16-8-5-5 5 2 8 5 14 5 10 2 32 3h17l36-4 9-2 20-3 15-4 2-1 1-3h2l1-5 9-10 5-5 3-1v-2h2l2-5 4-11 3-9 5-5 1-6z" fill="#F25A7A"/>
<path transform="translate(252,784)" d="m0 0h15l5 1v1l-18 1-10 5-3 4h-2l-2 6h5l8-7 5-2h12l4 2h-15l-9 6-4 8-2 12-2 79-6-1v-2l-4-2v-41l-5-4-26-15-5-5 9-6 14-8 15-9 4-8 6-8 7-5z" fill="#6B92D4"/>
<path transform="translate(1262,1317)" d="m0 0h1v35l-2 7-5 6-7 3-6 1-14-5-14-8-6-5 4-10 9-11 6-4 3-1 22-2h7z" fill="#68CAAC"/>
<path transform="translate(928,832)" d="m0 0 3 2 1 7-4 11-5 6h-2l-1 3-6 3-17 10-11 6-6 5-9 16-6 12-10 10-12 6-6 1h-10l-11-4-5-3-1-6 16 1 16-5 9-4 6-7 6-8 8-15 11-12 11-6 13-7 15-9 4-5z" fill="#90B1F9"/>
<path transform="translate(1048,977)" d="m0 0 1 2-2 12-1 10v21l1 3 1-1 2-18 2-1 1 17 22 14 14 8 15 9 11 7 16 8 11 8 4 4-3 1-14-6-10-7-2-1v-2l-6-2v-2l-6-2-16-10-7-4-26-14-5-1v35l-5 2-4-3v-39l-3-5-12-7-10-5-10-7-5-1-1 4-1-3 4-4 27-7 7-3z" fill="#6B92D4"/>
<path transform="translate(256,794)" d="m0 0h10l8 2 10 5 11 8 1 3 10 8 2 5v6l5 2 6 10 1 7-6-2-20-11-13-8-12-6-16-9-4-1-5 6-2 3v-13l4-8 8-6z" fill="#ABBFFD"/>
<path transform="translate(855,1164)" d="m0 0 5 5 3 4v15l-6 2-10 6-14 8-15 9-8 1-11-7-9-5 4-4 17-9 10-6 13-8 17-10z" fill="#D7E7FC"/>
<path transform="translate(743,802)" d="m0 0h2l3 7v7l-4 11-8 7-13 6-21 9-10 6-6 7-7 11-9 10-8 4h-11l-10-4-8-6-9-10-3-8v-5l2 4 6 9 9 6 9 2h9l9-3 7-7 10-14 8-9 10-6h5v-2l29-12 6-4 2-3z" fill="#90B1F8"/>
<path transform="translate(1201,1044)" d="m0 0 3 2v2l5 2 23 14 16 10 5 3 1 2 2 31 8 148 1 30 1 13-3 7-2-2-3-6-1-16v-33l-2-26-3-71-2-50-1-19v-7l-17-11-11-6-16-10-4-3z" fill="#3267A8"/>
<path transform="translate(788,1202)" d="m0 0 5 1 16 9 4 3 1 11v90h-1l-1-7-1-92h-2l-3 3-9 5-11 7-3 2h-3l2 101-3 1-1-1-1-101-12-7-8-5v-4l12-6 16-9z" fill="#6E95D7"/>
<path transform="translate(243,788)" d="m0 0 2 1-6 5-5 9-3 5-34 20-3 2 6 5 15 9 4 4 9 6v8l-3 1-16-8-13-7-16-8-5-3-1-5h-2l2-4 19-11 23-13 22-13h2v-2z" fill="#AABFFD"/>
<path transform="translate(1053,994)" d="m0 0h1v22l1 5 5 2 6 5 23 14 22 13 14 8 8 3v2l6 2 4 4 9 5h3l2-3-1 6-5 1 3 5v8l-2 3v-8l-7-5-14-6h-6l-9 6-5 6-3-1 1-7 2-1 4-9 1-4-5-4-14-9-7-4-9-6-17-8h-6l-3 3-1 16 2 7-1 7-2 2h-7l-5-5-2-5v-10l1-8v-20l-2-5-9-3-16-8-2-2-1-2-5-2v-4l5 2 8 6 16 8 8 6 1 3v39l4 2 3-1 1-35 7 1 13 7 15 8 12 8 11 6 2 1v2l4 1 2 1v2l4 2 10 6 13 5 1-1-14-10-16-8-11-7-34-20-17-11-1-1v-25z" fill="#4274BD"/>
<path transform="translate(241,860)" d="m0 0 6 2 13 8 22 12 10 6 9 4 18 12 7 3v14l-6-2-13-8-20-10-9-6-11-6-17-10-9-4-1-2v-9z" fill="#ACC0FE"/>
<path transform="translate(1176,572)" d="m0 0h3v11l-3 31-1 11v16l-1 7-4-1-6-7-5-10-2-10 2-16 7-16z" fill="#F37087"/>
<path transform="translate(1177,966)" d="m0 0 3 3 7 14 6 18 4 23 1 13-4-4 2 10 4 2 1-2 1 7-5 1-14-8-8-4-3-1-6 39-1 11 6 5 6 4-1 3-11-4h-2l-2 6-2 15-3 4-7-1-1-7 5-17v-8l-3-5 1-1h5l5-31 2-13h1l-1 16-3 19-3 11-2 15-3 10-1 9 5-1 4-20 2-6 5-34 3-20 2-6 4 1 12 7 3 1-1-4v-14l-5-23-4-11-1-6-4-10z" fill="#6B92D4"/>
<path transform="translate(1154,940)" d="m0 0 7 6 7 8 6 11 2-1 1 2v7l5 12h-2l-6-11-4-3 1 19v38l-4-3h-1l-2-36-3-20-6-16-6-10 5-1z" fill="#BAC9E4"/>
<path transform="translate(1092,916)" d="m0 0h4l-2 13-4 6-4 16-2 18-1 4-3-1-2-6v-9l3-17 6-14-8 4-8 9-7 13-4 4h-4l3-9 7-12 9-10 10-6z" fill="#E2B3BC"/>
<path transform="translate(259,794)" d="m0 0 13 1 12 6 11 8 1 3 10 8 2 5-1 4-10-4-11-7-18-11-9-6-2-5z" fill="#C5D4EF"/>
<path transform="translate(1167,1024)" d="m0 0 5 5 1 2-3 12-5 33-2 15-4 15-2 11-1 1h-5v-9l3-10 2-15 4-16 4-30v-13l3 1z" fill="#7EA2E5"/>
<path transform="translate(332,864)" d="m0 0 3 3 1 3v25l-1 4 1 4v42l-1 7-6-3 1-14-1-9v-59z" fill="#4274BD"/>
<path transform="translate(413,1045)" d="m0 0h1l3 49 2 48 2 32 1 26 2 22 2 49 2 32v10l-1 2h5l1-5 1 3-5 10-3 1-1-5v-13l-1-13-2-53-3-48-2-26-3-80-1-21z" fill="#7EA2E5"/>
<path transform="translate(320,845)" d="m0 0 2 1 1 3 6 1h1l1-4 6 18 1 8v42l-1 39h-5l-5-5v-50l-1-29-3-14-3-7zm12 19-3 3v62l1 9-1 11 6 3 1-11v-38l-1-5 1-3v-25l-3-6z" fill="#6C92D4"/>
<path transform="translate(1051 1e3)" d="m0 0h1l1 17 22 14 14 8 15 9 11 7 16 8 11 8 4 4-3 1-14-6-10-7-2-1v-2l-6-2v-2l-6-2-16-10-7-4-26-14-5-1-1 3v-19z" fill="#6B92D4"/>
<path transform="translate(231,844)" d="m0 0h4l2 2 1 6 1 48-6-1v-2l-4-2v-24z" fill="#6B92D4"/>
<path transform="translate(1032,165)" d="m0 0 5 2 5 5 1 3h2l4 9v15l-5 5-6 2-4-21-3-15z" fill="#B7C9E6"/>
<path transform="translate(1177,966)" d="m0 0 3 3 7 14 6 18 4 23 1 13-4-4v5h-2v3l-2-1v-18l-5-23-4-11-1-6-4-10z" fill="#BCB0D4"/>
<path transform="translate(226,898)" d="m0 0h7l4 2v2l5 2 3 5v10l-3 5h-7l-7-5-4-8-1-7z" fill="#ABBFFD"/>
<path transform="translate(325,951)" d="m0 0h6l4 2 1 2 3 1 4 7v11l-2 4h-7l-8-5-3-8v-9z" fill="#ABBFFD"/>
<path transform="translate(1062,952)" d="m0 0 1 2-4 10 2 1-4 6-3 10-2 24-1 1-2 18-2 2-2-4v-21l2-19 2-8 6-18h5z" fill="#93B3F7"/>
<path transform="translate(639,1185)" d="m0 0 4 1 26 15 10 6 5 2v2l5 1 2 1v2l6 2 8 4 9 4 6 2h10l12-1 10-4h7l11 7 8 5 1 103-3-1v-101l-16-9-3-2-6 1-9 4-16 2-11-2-9-4-12-7-10-5-45-27z" fill="#BBCDED"/>
<path transform="translate(800,219)" d="m0 0 9 3 23 10 16 8 23 12 19 12 15 10 11 8 3 2v2l-7-1-7-5v-2l-6-2-7-6-9-5-7-6v-2l-5-1-18-11-11-3-3-3-12-5-8-4-3-1v-2l-7-2-9-4z" fill="#FEFEFE"/>
<path transform="translate(1043,987)" d="m0 0 2 2v12l-2 13h-5l-11-7-6-5 1-4 9-4 11-5z" fill="#4274BD"/>
<path transform="translate(1408,528)" d="m0 0h1l1 15-1 8-6 26-6 16-11 24-9 14h-2l-1 3-1-3 7-12 1-3h2l2-6 6-12 1-3h2l4-18 2-1 1-10 2-10 1-10 1-4 2-13z" fill="#F36F87"/>
<path transform="translate(913,822)" d="m0 0h9l9 6-1 2-6-4-3-1h-7l-16 8-12 5-11 1-16-1-10 2-3 1-2 4-4 9-3 19-4 12-3 4 1-5 3-10 2-15 3-9 4-8 6-5 2-1 15-1 16 1 11-4 17-9z" fill="#C8D7EF"/>
<path transform="translate(1382,491)" d="m0 0v3l-6 7h-2l-1 3-13 9-17 8-9 3-12 2-32 1-24 3-34 7h-6l4-2 39-8 15-2 34-1 20-4 12-5 11-6 10-8z" fill="#F35A7A"/>
<path transform="translate(1088,929)" d="m0 0h2l1 4-4 12-3 24-1 4-3-1-2-6v-9l3-17 5-10z" fill="#E6B1B9"/>
<path transform="translate(1167,1024)" d="m0 0 5 5 1 2-3 12-5 33h-1l1-16v-4l-3 17-3 4 1-9 4-30v-13l3 1z" fill="#7EA2E5"/>
<path transform="translate(1050,1006)" d="m0 0h1l-1 27-1 30-4 1-1-1-1-47 2-4 2 13 1-1z" fill="#7EA2E5"/>
<path transform="translate(334,441)" d="m0 0 2 1-26 26-6 9-8 11-5 13-3 10-2 11-1 17h-1l-1-13 2-15 5-16 8-16 10-13 9-9 8-7z" fill="#A9BEFD"/>
<path transform="translate(1172,1031)" d="m0 0 4 1 16 9v-3h2l3 6 3 1 1-2 1 7-5 1-14-8-8-4-3-1v2h-2z" fill="#6E94D5"/>
<path transform="translate(231,844)" d="m0 0h4l2 2 1 6v37l-3-2-1-11v-3l-3-17z" fill="#4274BD"/>
<path transform="translate(873,255)" d="m0 0 4 1 21 13 17 12 4 3v2l-7-1-7-5v-2l-6-2-7-6-9-5-7-6v-2h-3z" fill="#FEFEFE"/>
<path transform="translate(1047,982)" d="m0 0h1l1 14 3-7h1l-1 16-1 1-2 18-2 2-2-4v-21z" fill="#8BADF4"/>
<path transform="translate(877,1131)" d="m0 0 2 1v13l-6 7-6 4-5-2 2-1 2-4 3-7 4-5h2v-2h2z" fill="#6D94D6"/>
<path transform="translate(980,252)" d="m0 0h2l-1 6-14 26-3 3h-2l1-7 13-24z" fill="#E0EDFD"/>
<path transform="translate(1053,994)" d="m0 0h1v22l1 5 5 2 6 5 23 14 13 8 1 2-5-2-11-6-17-10-17-11-1-1v-25z" fill="#4475BE"/>
<path transform="translate(1092,916)" d="m0 0h4l-2 13-4 2v-2l-4 1 1-4-5 1-1-2-4-1 8-5z" fill="#B7C9E6"/>
<path transform="translate(380,761)" d="m0 0 5 3 7 6v3h2l4 7v2h2l10 20v6l-2-1-8-18-10-15-4-5-7-6z" fill="#366AAC"/>
<path transform="translate(466,1250)" d="m0 0h6l18 8 10 4 17 8-1 2-5-1-14-7-24-10-6-2-6 10-1-2z" fill="#8FB1F9"/>
<path transform="translate(1177,966)" d="m0 0 3 3 7 14 6 18 4 23 1 13-2-1-1-18h-2l-1-7-2-2 1-5-4-12-3-10-7-13z" fill="#4B79BB"/>
<path transform="translate(1024,665)" d="m0 0 1 3-2 6v9l7 25v12l-3 6-5 5-4 2-4-1 6-3 5-5h2l1-9-1-13h-2l-4-17v-12z" fill="#C5D4ED"/>
<path transform="translate(309,767)" d="m0 0h1l1 21 1 4v14l-1 5 1 4-6-5v-2h2v-37z" fill="#6F95D7"/>
<path transform="translate(1202,1094)" d="m0 0 4 2-3 5h-2l-1 4-4 4-4 1-4-2-2-5 7-1 4-1v-2h2l1-3h2z" fill="#6B92D4"/>
<path transform="translate(1062,972)" d="m0 0 7 1 9 5 15 8 3 3 5 3-2 1-21-12-10-5h-6l-5 9-1-4 3-6z" fill="#4274BD"/>
<path transform="translate(814,1243)" d="m0 0h1l2 71-3 1z" fill="#B5C7EA"/>
<path transform="translate(777,1236)" d="m0 0h1l1 101-3-1z" fill="#B7C9E6"/>
<path transform="translate(527,330)" d="m0 0 2 1-5 4-10 3-30 1-11 3-5 2-2 5-1 8h-1v-9l4-6 9-4 4-1 32-1 11-4z" fill="#ACC0FE"/>
<path transform="translate(488,1041)" d="m0 0h2v2h2l1 11v14h-2v-2h-2l-1-10-1-3 1-6z" fill="#6F95D6"/>
<path transform="translate(1237,1077)" d="m0 0h4l-2 5-15 5h-6l2-4z" fill="#6B92D4"/>
<path transform="translate(1177,969)" d="m0 0 3 3 7 15 1 5-4 2-3-6-1-6-4-10z" fill="#E8ADB5"/>
<path transform="translate(752,1222)" d="m0 0h7l11 7 8 5-1 2-17-10-3-2-6 1-6 3-12 1h-11v-1l20-2z" fill="#B6C9F0"/>
<path transform="translate(1165,1052)" d="m0 0 2 3-4 26-2 7-2-1v-10l2-4 3-17z" fill="#8FB1F9"/>
<path transform="translate(390,781)" d="m0 0h2l6 10 7 15 1 11-2-2-5-15-6-11-3-5z" fill="#386CB0"/>
<path transform="translate(699,1220)" d="m0 0h5l5 3 5 2 8 3h20l-4 2-15 1-13-4-11-6z" fill="#B9CCEE"/>
<path transform="translate(291,495)" d="m0 0 1 3-4 13-2 11-1 17h-1l-1-13 2-15 4-14z" fill="#ACC0FE"/>
<path transform="translate(252,784)" d="m0 0h15l5 1v1l-18 1-10 5-3 4h-3l2-4 8-6z" fill="#769BDC"/>
<path transform="translate(1076,1120)" d="m0 0 2 1-1 3h-2l-1 6-3 3-5-1-1-3 1-3 6-2z" fill="#4274BD"/>
<path transform="translate(1186,993)" d="m0 0h2l3 6 1 9v3l-4 1-4-18z" fill="#9FB4E9"/>
<path transform="translate(1017,213)" d="m0 0 1 3-10 11-5 1 1-5 9-8z" fill="#DFECFD"/>
<path transform="translate(773,210)" d="m0 0 9 2 17 6v2l-9-1v-2h-7l-10-4z" fill="#FEFEFE"/>
<path transform="translate(328,922)" d="m0 0 2 4 1 12-1 12h-2l-1-2v-25z" fill="#6B92D4"/>
<path transform="translate(1129,1010)" d="m0 0 5 2 11 6 13 8 2 1v2h2l-1 2-15-9-16-10z" fill="#4274BD"/>
<path transform="translate(317,774)" d="m0 0h1v49l-4-4 1-5 1-1z" fill="#6B92D4"/>
<path transform="translate(1157,1096)" d="m0 0h1v9l-2 10h-4l1-9z" fill="#8FB1F9"/>
<path transform="translate(1160,949)" d="m0 0 5 1 4 7-2 3-2-2-5-2v-2l-3-1v-2h3z" fill="#96B3F4"/>
<path transform="translate(197,827)" d="m0 0 3 1 2 4 2 5 5 2 1 2-5-2-9-6-3-3z" fill="#7EA2E5"/>
<path transform="translate(1048,977)" d="m0 0 1 2-2 12-1 10h-1l-1-14h-2l1-5z" fill="#6D94D7"/>
<path transform="translate(1062,952)" d="m0 0 1 2-4 10-3 1v-2l-3-1 2-6h5z" fill="#B7C9E6"/>
<path transform="translate(853,243)" d="m0 0 16 8 5 4-3 1-18-11z" fill="#FDFDFD"/>
<path transform="translate(1101,993)" d="m0 0 5 2 10 6 8 5-3 1-12-7-8-5z" fill="#4274BD"/>
<path transform="translate(1167,1024)" d="m0 0 5 5 1 2-4 1v2h-2l-3-9 3 1z" fill="#92B2F6"/>
<path transform="translate(1191,1026)" d="m0 0 2 1 1 8v3h-2v3l-2-1v-12z" fill="#BEBCDA"/>
<path transform="translate(1194,1018)" d="m0 0h1l1 16-2-1-3-9z" fill="#7A9AD9"/>
<path transform="translate(746,1224)" d="m0 0h2l-1 3-2 1-12 1h-11v-1l20-2z" fill="#AAC0F6"/>
<path transform="translate(301,798)" d="m0 0h5l1 2v6l-4-2-3-5z" fill="#D7E6FA"/>
<path transform="translate(934,673)" d="m0 0 5 1 11 12-1 3-12-14z" fill="#C7D6EE"/>
<path transform="translate(1172,1038)" d="m0 0 6 1 13 8-2 1-13-7-4-1z" fill="#4274BD"/>
<path transform="translate(1049,986)" d="m0 0h2l1 6-2 6-2-2v-8z" fill="#ABBFFD"/>
<path transform="translate(938,673)" d="m0 0 4 1 8 10-1 2-11-12z" fill="#ACC0FE"/>
<path transform="translate(232,889)" d="m0 0 6 3-1 6-5-3z" fill="#4274BD"/>
<path transform="translate(1017,213)" d="m0 0 1 3-4 4-7 1 5-5z" fill="#F0F5FD"/>
<path transform="translate(1213,1086)" d="m0 0h3l1 3-6 1v2l-4-2 3-3z" fill="#6B92D4"/>
<path transform="translate(1052,460)" d="m0 0 2 2 1 9-4 1-1-2 2-2z" fill="#C9D8EF"/>
<path transform="translate(390,781)" d="m0 0h2l5 10-2 1-4-5z" fill="#3C6FB4"/>
<path transform="translate(752,204)" d="m0 0 10 2 4 1-1 3-12-4z" fill="#FEFEFE"/>
<path transform="translate(246,787)" d="m0 0 2 1-5 5-2 3h-3l2-4z" fill="#7197D9"/>
<path transform="translate(1189,998)" d="m0 0 2 1 1 9-3 2z" fill="#F0ACAF"/>
<path transform="translate(950,689)" d="m0 0 3 1 7 10-2 1-8-10z" fill="#C4D4ED"/>
</svg>
