<svg width="165.078" height="61.524" viewBox="0 0 165.078 61.524" xmlns="http://www.w3.org/2000/svg"><g id="svgGroup" stroke-linecap="round" fill-rule="evenodd" font-size="9pt" stroke="#080808e8" stroke-width="0.25mm" fill="#ffffff" style="stroke:#080808e8;stroke-width:0.25mm;fill:#ffffff"><path d="M 51.602 41.68 L 51.602 46.016 A 79.929 79.929 0 0 1 43.274 52.947 A 62.887 62.887 0 0 1 36.25 57.344 A 37.212 37.212 0 0 1 28.737 60.413 A 29.118 29.118 0 0 1 20.859 61.524 Q 15.469 61.524 11.523 59.473 Q 7.578 57.422 5.039 53.965 A 24.577 24.577 0 0 1 1.25 46.211 Q 0 41.914 0 37.383 A 36.968 36.968 0 0 1 0.511 31.374 A 45.487 45.487 0 0 1 1.309 27.579 Q 2.617 22.422 5.293 17.539 Q 7.969 12.657 12.031 8.692 A 30.954 30.954 0 0 1 21.277 2.513 A 35.087 35.087 0 0 1 21.621 2.364 A 29.128 29.128 0 0 1 29.405 0.293 A 37.209 37.209 0 0 1 34.141 0 A 14.347 14.347 0 0 1 38.787 0.736 A 13 13 0 0 1 41.289 1.895 Q 44.453 3.789 46.309 6.836 Q 48.164 9.883 48.164 13.282 Q 48.164 14.263 47.891 15.007 A 3.683 3.683 0 0 1 47.871 15.059 A 2.069 2.069 0 0 1 47.146 15.991 A 2.901 2.901 0 0 1 46.719 16.25 A 131.036 131.036 0 0 0 44.694 17.302 Q 43.799 17.776 42.821 18.309 A 241.042 241.042 0 0 0 40.781 19.434 A 880.939 880.939 0 0 1 33.984 23.184 A 148.939 148.939 0 0 1 31.551 24.485 Q 29.619 25.494 28.008 26.25 A 2.416 2.416 0 0 1 27.605 26.411 A 1.765 1.765 0 0 1 27.109 26.485 Q 26.495 26.485 26.126 26.014 A 1.498 1.498 0 0 1 26.113 25.997 Q 25.742 25.508 25.742 24.883 Q 25.742 23.975 26.96 23.066 A 6.809 6.809 0 0 1 27.148 22.93 A 20.412 20.412 0 0 1 28.502 22.072 Q 29.215 21.656 30.041 21.237 A 37.272 37.272 0 0 1 30.606 20.957 A 399.756 399.756 0 0 0 34.727 18.926 A 23.799 23.799 0 0 0 36.411 18.002 Q 37.224 17.509 37.899 16.996 A 13.778 13.778 0 0 0 38.203 16.758 A 5.43 5.43 0 0 0 38.875 16.124 Q 39.202 15.752 39.383 15.373 A 2.202 2.202 0 0 0 39.609 14.414 A 0.041 0.041 0 0 1 39.595 14.39 Q 39.541 14.242 39.335 13.218 A 110.864 110.864 0 0 1 39.258 12.832 A 19.562 19.562 0 0 0 38.933 11.466 Q 38.644 10.409 38.203 9.18 A 12.961 12.961 0 0 0 36.829 6.403 A 11.638 11.638 0 0 0 36.191 5.528 A 4.355 4.355 0 0 0 34.962 4.453 A 3.941 3.941 0 0 0 32.969 3.946 A 20.694 20.694 0 0 0 22.891 6.856 A 26.903 26.903 0 0 0 15.117 13.907 A 33.825 33.825 0 0 0 10.137 23.379 A 32.362 32.362 0 0 0 8.482 31.346 A 29.474 29.474 0 0 0 8.398 33.555 Q 8.398 40.586 10.625 45.215 A 17.754 17.754 0 0 0 13.12 49.095 A 14.289 14.289 0 0 0 16.719 52.129 A 16.53 16.53 0 0 0 23.996 54.359 A 20.202 20.202 0 0 0 25.508 54.414 Q 31.086 54.414 37.44 51.57 A 43.647 43.647 0 0 0 38.262 51.192 A 44.815 44.815 0 0 0 45.838 46.596 A 59.447 59.447 0 0 0 51.602 41.68 Z M 52.461 59.297 L 46.367 59.297 Q 46.495 58.4 47.005 56.174 A 167.56 167.56 0 0 1 47.246 55.137 A 412.164 412.164 0 0 1 47.838 52.664 Q 48.372 50.459 49.043 47.774 A 699.195 699.195 0 0 1 50.166 43.345 A 835.638 835.638 0 0 1 51.387 38.653 Q 52.656 33.829 53.906 29.161 Q 55.156 24.493 56.172 20.664 A 1483.209 1483.209 0 0 1 56.655 18.847 Q 57.129 17.072 57.498 15.707 A 464.831 464.831 0 0 1 57.813 14.551 L 58.438 12.266 A 118.025 118.025 0 0 1 58.931 10.514 Q 59.648 8.042 60.234 6.504 Q 61.016 4.454 61.914 3.536 Q 62.813 2.618 64.121 2.403 Q 65 2.258 66.223 2.211 A 33.088 33.088 0 0 1 67.5 2.188 A 24.68 24.68 0 0 1 68.225 2.199 A 27.835 27.835 0 0 1 68.477 2.207 A 3.912 3.912 0 0 1 68.764 2.228 Q 69.036 2.259 69.216 2.328 A 1.038 1.038 0 0 1 69.258 2.344 L 59.023 39.375 Q 60.859 35.977 63.594 33.028 A 25.963 25.963 0 0 1 67.462 29.585 A 22.504 22.504 0 0 1 69.492 28.282 A 14.632 14.632 0 0 1 72.441 26.992 A 11.26 11.26 0 0 1 75.742 26.485 Q 79.298 26.485 79.551 30.429 A 9.804 9.804 0 0 1 79.57 31.055 A 6.845 6.845 0 0 1 79.498 31.996 Q 79.359 32.989 78.954 34.338 A 27.951 27.951 0 0 1 78.809 34.805 A 155.851 155.851 0 0 1 77.988 37.295 A 202.929 202.929 0 0 1 77.051 40 A 90.128 90.128 0 0 0 75.487 44.833 A 81.98 81.98 0 0 0 75.293 45.508 Q 74.71 47.572 74.573 49.223 A 11.801 11.801 0 0 0 74.531 50.196 L 74.629 50.782 Q 74.714 51.291 75.139 51.358 A 0.873 0.873 0 0 0 75.273 51.368 A 0.433 0.433 0 0 0 75.443 51.322 Q 75.798 51.162 76.566 50.443 A 18.272 18.272 0 0 0 76.621 50.391 A 64.086 64.086 0 0 0 77.167 49.87 Q 78.027 49.039 79.141 47.911 A 230.223 230.223 0 0 1 81.455 45.6 A 259.943 259.943 0 0 1 82.266 44.805 Q 83.906 43.204 85.352 41.954 L 85.352 46.329 A 197.396 197.396 0 0 1 84.602 47.177 Q 83.447 48.478 81.9 50.18 A 544.332 544.332 0 0 1 81.797 50.293 A 116.375 116.375 0 0 1 77.285 54.981 A 48.02 48.02 0 0 1 75.046 57.054 Q 73.881 58.062 72.773 58.868 Q 71.044 60.125 69.821 60.371 A 2.867 2.867 0 0 1 69.258 60.43 A 3.709 3.709 0 0 1 68.548 60.367 Q 67.641 60.19 67.266 59.512 A 4.102 4.102 0 0 1 66.764 57.707 A 4.904 4.904 0 0 1 66.758 57.461 Q 66.758 57.11 66.816 56.661 A 52.543 52.543 0 0 0 66.864 56.286 Q 66.885 56.115 66.903 55.961 A 30.797 30.797 0 0 0 66.914 55.86 A 8.128 8.128 0 0 1 67.008 55.254 Q 67.139 54.565 67.413 53.559 A 49.571 49.571 0 0 1 67.715 52.5 Q 68.353 50.349 69.127 47.652 A 823.128 823.128 0 0 0 69.238 47.266 Q 70.078 44.336 70.703 41.348 Q 71.287 38.558 71.325 36.262 A 19.213 19.213 0 0 0 71.328 35.938 A 3.205 3.205 0 0 0 71.218 35.057 Q 70.935 34.069 69.926 33.806 A 3.28 3.28 0 0 0 69.102 33.711 Q 67.305 33.711 65.391 35.137 Q 63.477 36.563 61.719 38.887 A 31.364 31.364 0 0 0 58.766 43.64 A 34.589 34.589 0 0 0 58.594 43.985 A 30.327 30.327 0 0 0 57.028 47.761 A 26.001 26.001 0 0 0 56.523 49.454 Q 55.867 52.026 55.264 53.972 A 48.92 48.92 0 0 1 54.688 55.723 Q 53.828 58.164 52.461 59.297 Z M 105.156 59.297 L 97.695 59.297 A 22.001 22.001 0 0 1 97.76 58.067 Q 97.875 56.597 98.184 54.61 A 83.626 83.626 0 0 1 98.711 51.597 A 107.723 107.723 0 0 1 99.395 48.34 A 241.343 241.343 0 0 1 101.016 41.602 A 164.378 164.378 0 0 1 101.875 38.374 A 129.642 129.642 0 0 1 102.734 35.411 Q 103.503 32.877 104.116 31.266 A 29.742 29.742 0 0 1 104.258 30.899 Q 104.782 29.511 105.639 28.816 A 3.035 3.035 0 0 1 106.563 28.301 Q 107.991 27.807 109.865 27.776 A 15.285 15.285 0 0 1 110.117 27.774 L 112.734 27.774 L 112.285 29.336 A 675.416 675.416 0 0 1 112.046 30.166 Q 111.677 31.442 111.185 33.13 A 1945.613 1945.613 0 0 1 111.152 33.243 Q 110.469 35.586 109.746 37.95 Q 109.023 40.313 108.516 41.954 Q 109.522 40.075 111.119 37.85 A 57.015 57.015 0 0 1 111.66 37.11 Q 113.633 34.454 116.133 32.032 A 27.569 27.569 0 0 1 119.681 29.108 A 23.845 23.845 0 0 1 121.367 28.047 A 12.66 12.66 0 0 1 123.871 26.939 A 9.646 9.646 0 0 1 126.758 26.485 Q 130.314 26.485 130.567 30.429 A 9.804 9.804 0 0 1 130.586 31.055 Q 130.586 32.266 130.039 34.375 A 63.92 63.92 0 0 1 129.424 36.578 A 83.889 83.889 0 0 1 128.672 38.965 A 304.734 304.734 0 0 1 127.012 43.848 A 134.319 134.319 0 0 0 126.423 45.567 Q 126.195 46.25 125.995 46.874 A 75.285 75.285 0 0 0 125.625 48.067 A 28.008 28.008 0 0 0 125.399 48.857 Q 125.078 50.048 125.078 50.586 Q 125.078 51.264 125.513 51.289 A 0.592 0.592 0 0 0 125.547 51.289 Q 126.055 51.289 126.914 50.743 A 5.781 5.781 0 0 0 127.201 50.528 Q 127.666 50.161 128.459 49.437 A 59.423 59.423 0 0 0 128.633 49.278 A 146.345 146.345 0 0 0 129.907 48.091 A 200.581 200.581 0 0 0 131.309 46.758 A 1683.511 1683.511 0 0 1 132.734 45.391 A 1416.708 1416.708 0 0 1 134.082 44.102 A 87.154 87.154 0 0 1 134.699 43.518 Q 135.295 42.96 135.731 42.577 A 18.858 18.858 0 0 1 136.094 42.266 L 136.094 46.641 A 112.79 112.79 0 0 1 135.576 47.155 Q 134.727 47.994 133.438 49.239 A 176.506 176.506 0 0 1 131.621 50.967 A 231.198 231.198 0 0 1 129.609 52.832 A 104.007 104.007 0 0 1 125.541 56.377 A 95.783 95.783 0 0 1 125.41 56.485 A 50.894 50.894 0 0 1 123.649 57.873 Q 122.56 58.691 121.582 59.317 A 13.262 13.262 0 0 1 120.766 59.802 Q 119.97 60.235 119.388 60.369 A 2.152 2.152 0 0 1 118.906 60.43 A 6.017 6.017 0 0 1 118.036 60.372 Q 116.747 60.183 116.328 59.375 A 5.883 5.883 0 0 1 116.006 58.643 Q 115.865 58.248 115.813 57.886 A 2.956 2.956 0 0 1 115.781 57.461 A 23.691 23.691 0 0 1 116.554 51.533 A 26.456 26.456 0 0 1 116.66 51.133 Q 117.539 47.93 118.711 45 Q 119.883 42.071 120.762 39.688 Q 121.641 37.305 121.641 35.86 A 3.548 3.548 0 0 0 121.59 35.242 Q 121.53 34.9 121.396 34.628 A 1.759 1.759 0 0 0 121.172 34.278 A 1.903 1.903 0 0 0 120.856 33.97 Q 120.513 33.711 120.117 33.711 A 4.051 4.051 0 0 0 118.314 34.158 Q 117.705 34.458 117.091 34.96 A 9.695 9.695 0 0 0 116.25 35.743 Q 114.572 37.488 112.994 40.099 A 36.834 36.834 0 0 0 112.481 40.977 A 65.134 65.134 0 0 0 109.16 47.735 A 101.615 101.615 0 0 0 107.617 51.592 A 79.309 79.309 0 0 0 106.621 54.395 Q 105.768 56.955 105.326 58.625 A 29.146 29.146 0 0 0 105.156 59.297 Z M 165.078 42.188 L 165.078 46.485 A 74.561 74.561 0 0 1 160.365 51.547 Q 157.716 54.128 155.072 56.107 A 44.573 44.573 0 0 1 154.316 56.661 A 21.796 21.796 0 0 1 149.373 59.358 A 17.244 17.244 0 0 1 143.203 60.508 A 11.55 11.55 0 0 1 139.803 60.031 A 9.041 9.041 0 0 1 135.664 57.383 A 10.719 10.719 0 0 1 133.126 52.182 A 15.248 15.248 0 0 1 132.852 49.219 A 25.471 25.471 0 0 1 134.238 40.938 A 24.691 24.691 0 0 1 138.184 33.614 A 19.784 19.784 0 0 1 144.258 28.418 A 15.787 15.787 0 0 1 151.7 26.488 A 18.563 18.563 0 0 1 152.031 26.485 A 16.481 16.481 0 0 1 155.06 26.749 Q 156.906 27.094 158.408 27.89 A 10.293 10.293 0 0 1 158.555 27.969 A 4.938 4.938 0 0 1 161.012 31.254 Q 161.235 32.141 161.249 33.216 A 11.128 11.128 0 0 1 161.25 33.36 A 9.679 9.679 0 0 1 159.551 38.887 A 12.772 12.772 0 0 1 155.195 42.911 A 11.244 11.244 0 0 1 149.57 44.414 A 6.523 6.523 0 0 1 147.959 44.2 Q 147.245 44.018 146.479 43.682 A 12.454 12.454 0 0 1 145.957 43.438 A 7.848 7.848 0 0 1 143.839 41.878 A 10.979 10.979 0 0 1 142.5 40.196 A 17.879 17.879 0 0 0 141.214 43.78 A 14.243 14.243 0 0 0 140.82 47.071 A 17.224 17.224 0 0 0 141.088 50.155 A 14.987 14.987 0 0 0 141.387 51.465 A 7.323 7.323 0 0 0 142.269 53.481 A 6.374 6.374 0 0 0 143.398 54.805 A 4.822 4.822 0 0 0 145.362 55.845 Q 146.097 56.048 146.972 56.085 A 9.486 9.486 0 0 0 147.383 56.094 A 5.481 5.481 0 0 0 149.008 55.83 Q 149.701 55.615 150.444 55.225 A 12.508 12.508 0 0 0 151.484 54.61 A 30.956 30.956 0 0 0 153.789 52.935 A 41.717 41.717 0 0 0 156.172 50.879 Q 158.594 48.633 160.898 46.289 Q 162.879 44.275 164.542 42.694 A 104.8 104.8 0 0 1 165.078 42.188 Z M 103.359 42.188 L 103.359 46.563 A 433.006 433.006 0 0 1 100.212 49.624 Q 95.723 53.946 92.617 56.641 Q 89.961 58.946 87.53 59.853 A 8.955 8.955 0 0 1 84.883 60.43 Q 83.167 60.43 82.367 59.039 A 3.701 3.701 0 0 1 82.227 58.77 A 8.027 8.027 0 0 1 81.445 55.313 A 10.259 10.259 0 0 1 81.481 54.512 Q 81.572 53.365 81.895 51.582 A 106.067 106.067 0 0 1 82.402 48.975 A 142.168 142.168 0 0 1 83.027 46.114 A 219.293 219.293 0 0 1 84.473 40.176 Q 85.234 37.227 85.879 34.981 Q 86.472 32.913 86.817 32.02 A 8.074 8.074 0 0 1 86.875 31.875 Q 87.695 29.766 88.887 28.926 A 5.493 5.493 0 0 1 90.927 28.051 A 6.915 6.915 0 0 1 91.719 27.93 A 32.231 32.231 0 0 1 93.252 27.823 Q 94.037 27.786 94.914 27.777 A 56.182 56.182 0 0 1 95.508 27.774 A 179.425 179.425 0 0 1 95.291 28.506 Q 94.932 29.707 94.375 31.524 A 352.739 352.739 0 0 0 93.604 34.078 A 470.82 470.82 0 0 0 92.773 36.895 Q 91.914 39.844 91.133 42.754 Q 90.352 45.664 89.844 48.008 Q 89.441 49.865 89.358 50.987 A 7.278 7.278 0 0 0 89.336 51.524 A 3.323 3.323 0 0 0 89.356 51.869 Q 89.395 52.242 89.512 52.757 A 14.547 14.547 0 0 0 89.59 53.086 A 1.971 1.971 0 0 0 89.748 53.519 Q 90.041 54.082 90.658 54.101 A 1.415 1.415 0 0 0 90.703 54.102 Q 91.172 54.102 92.832 52.657 Q 93.973 51.663 95.327 50.383 A 126.737 126.737 0 0 0 96.602 49.161 A 169.179 169.179 0 0 0 99.634 46.139 A 149.224 149.224 0 0 0 100.586 45.157 Q 102.461 43.204 103.359 42.188 Z M 150.195 41.055 A 4.361 4.361 0 0 0 153.222 39.833 A 6.876 6.876 0 0 0 154.141 38.789 Q 155.781 36.524 155.781 33.789 A 7.913 7.913 0 0 0 155.72 32.767 Q 155.537 31.368 154.805 30.782 Q 153.982 30.123 152.632 30.02 A 6.832 6.832 0 0 0 152.109 30 Q 149.805 30 148.047 31.329 A 12.526 12.526 0 0 0 145.813 33.479 A 11.255 11.255 0 0 0 145.176 34.356 A 24.025 24.025 0 0 0 144.547 35.366 Q 143.969 36.351 143.674 37.119 A 7.044 7.044 0 0 0 143.633 37.227 A 11.521 11.521 0 0 0 145.387 39.085 A 9.743 9.743 0 0 0 146.738 40.039 A 7.879 7.879 0 0 0 148.364 40.768 A 6.121 6.121 0 0 0 150.195 41.055 Z M 94.542 18.443 A 4.614 4.614 0 0 0 95.391 18.516 Q 97.188 18.516 98.711 17.539 A 8.092 8.092 0 0 0 101.172 15.118 A 7.837 7.837 0 0 0 101.331 14.862 Q 101.659 14.311 101.849 13.778 A 4.262 4.262 0 0 0 102.109 12.344 A 2.611 2.611 0 0 0 101.73 10.973 A 3.368 3.368 0 0 0 101.094 10.215 A 2.501 2.501 0 0 0 100.936 10.084 Q 100.211 9.53 98.937 9.366 A 9.158 9.158 0 0 0 97.773 9.297 Q 96.172 9.297 94.941 10.293 A 6.938 6.938 0 0 0 93.027 12.715 A 7.599 7.599 0 0 0 92.598 13.814 A 5.739 5.739 0 0 0 92.344 15.469 Q 92.344 16.68 93.047 17.598 A 2.057 2.057 0 0 0 93.709 18.159 Q 94.07 18.355 94.542 18.443 Z" vector-effect="non-scaling-stroke"/></g></svg>