<?xml version="1.0" encoding="UTF-8"?>
<svg version="1.1" viewBox="0 0 1600 898" width="666" height="374" xmlns="http://www.w3.org/2000/svg">
<path transform="translate(1144,116)" d="m0 0 6 1 5 4 3 8v99l1 3 48 1 4 2 1 3v96l-2 4-9 1-29 1-13 1-4 4 2 4 14 11 16 12 19 14 13 10 11 8 4 1 1-60 4-6 6-3h15v-20l1-16 4-5 18-1 6-12 15-44 9-25 13-36 11-31 4-4h6l4 5 16 47 9 24 14 40 10 28 3 9h17l5 3 1 3 1 32 4 2 15 2 5 5 2 8v391l-1 29-3 5v2l9 7 7 8 1 2v9l-6 8-8 6-15 6-16 3-32 3-44 3h-37l-45-3-126-7-20-1h-69l-33 5-11 4-20 12-7 3-20 4-25 2-127 1-28 1-86 1-29 1-84 1-27 1h-173l-69-2-37-2-86-8-25-5-15-4-10-5-2-4v-5l4-4 9-5-1-79 1-494 2-3 3-1h12l1-20 3-4h17v-19l1-4 9-1h15v-61l1-1h5v62h17l7 1 1 21 17 2 3 3 1 18 1 2 12 2 3 2 1 3v378l-3 27 3 7h7l1-14 3-5 3-3 2-14 1-34 1-310 3-7 5-4 5-1h172l23 1 6 3 3 5 1 24v382l-1 27-3 9-4 8 22-2 1-4 1-17 1-172v-117l2-8 4-4 6-2h93l214-1 12 1 8 4 3 8 1 20v49l-1 96v160h18l-2-37v-164l1-274 3-7 3-3 5-2 126-1 1-1v-54l3-9 6-5 24-13 14-8 16-9 15-9 29-16zm16 123-2 1 1 8 3 2 22 1 6 1-1 9-1 1-28 1-2 1-1 9 3 5h29l4 2v6l-2 4-34 1-1 6 3 8 1 1 30 1v11l-32 1-1 6 3 5 18 1h25l3-1v-16l-2-14-4-6v-14l-2-6h-2l4-8 4-5 1-4v-9l-2-6-6-2zm1 146v367l2 3 47 4h7l1-235v-97l-10-9-11-8-17-13-14-10z" fill="#FCBB32"/>
<path transform="translate(1144,116)" d="m0 0 6 1 5 4 3 8v99l1 3 48 1 4 2 1 3v96l-2 4-9 1-29 1-13 1-4 4 1 4-16 1-3 1-1 403-19-1-61-5-9-1-4-20-4-29-1-13-1-68-1-25v-18l-1-12v-23l6-30v-12l-1-5h-2l-4-4-11-2-11-1-1-1v-13l1-6 3 3 8-13 2-7v-10l-3-4-4-2-2-7-5-2-3-1h-12l-13 4-8 6-1 4 6 5 5 2 1 3v13l4 13 5 6v7l-14 3-7 4-7 14-7 18 11 3 1 15 1 2v9l10-3 8-5 3-1 2-4 7-11 3-6 7 1 10 4 3 1-2 5-8 14-1 3-4 4-2 5-4 3h-6v2l-13 2h-11v33l-4 21-3 22-3 16-2 9-3 25-3 45-15-1-49-4-1-1-2-37v-164l1-274 3-7 3-3 5-2 126-1 1-1v-54l3-9 6-5 24-13 14-8 16-9 15-9 29-16zm16 123-2 1 1 8 3 2 22 1 6 1-1 9-1 1-28 1-2 1-1 9 3 5h29l4 2v6l-2 4-34 1-1 6 3 8 1 1 30 1v11l-32 1-1 6 3 5 18 1h25l3-1v-16l-2-14-4-6v-14l-2-6h-2l4-8 4-5 1-4v-9l-2-6-6-2z" fill="#F9F9F9"/>
<path transform="translate(1341,141)" d="m0 0h6l4 5 16 47 9 24 14 40 10 28 3 9h17l5 3 1 3 1 32 4 2 15 2 5 5 2 8v391l-1 29-4 7-10-3-13-4-17-3-10-1-70-1-34-1-51-3-1-98-1-251-9-6 2-1 1-60 4-6 6-3h15v-20l1-16 4-5 18-1 6-12 15-44 9-25 13-36 11-31z" fill="#F9F9F9"/>
<path transform="translate(822,393)" d="m0 0h29l12 1 8 4 3 8 1 20v49l-1 96v159l-36-2-31-2-53-2-3-30-6-40-6-36v-20l-1-12-27-5-10-9-8-11-8-12-1-5 15-6 7-2 8 16 6 9 13 5 4 1 1-33 1-15v-15l-6-4-17-3 1-6 5-8 3-9v-18h9l2 1v-2l-5-2-5-3-1-8-4-5-4-2h-17l-7 4-5 6-1 4v13l6 12 8 10v7l-2 6-16 1-7 2-5 4-2 3v20l6 29v21l-2 16v37l-1 17-1 67-1 13-1 1-25 3-27 6-28 10-13 6h-2l-2-9-8-10-10-7-11-5-4-1-19-1v-1l9-1 1-4 1-17 1-172v-117l2-8 4-4 6-2h93z" fill="#F9F9F9"/>
<path transform="translate(310,261)" d="m0 0h172l23 1 6 3 3 5 1 24v382l-1 27-3 9-4 8h8v1l-12 3-5 1-6-5 9-9-1-7-6-10-4-11-2-14-1-18v-16l-1-15-4-15-4-2-2-13 17 1 2-7v-16l-2-8-5 1-11 5-24 6-8 6-2 3-1 9 2 3 7 1 2-5 4 1 6 6v7l-3 13-8 16-1 34-2 30-4 24-5 16-5 12-2 2h-58l-11-2-14-7-11-11-6-10-3-10v-20l5-12 9-10 10-8 6-2v-3l-5-2-7-10-6-3-33-6-16-2 2-15 1-34 1-310 3-7 5-4z" fill="#F9F9F9"/>
<path transform="translate(211,125)" d="m0 0h5v62h17l7 1 1 21 17 2 3 3 1 18 1 2 12 2 3 2 1 3v378l-2 18-2 6-3-4v-2l-5-2h-55l-1 25-6 8-13 12-5 4-9 13-6 11-6 13-5 19-2 16 2 7 4 5 3 2 14 1 1 1 1 11 2 7v5l-13 6-23 10h-2l-1-2-1-76 1-494 2-3 3-1h12l1-20 3-4h17v-19l1-4 9-1h15v-61z" fill="#F9F9F9"/>
<path transform="translate(490,559)" d="m0 0 4 1 2 8v16l-3 8h-8l-9-2 2 6v7l5 2 4 15 1 15v21l2 21 3 13 6 11 3 5-1 7-5 4-3 3 5 4 5-1 12-3h24l11 4 10 6 8 7 5 7 1 9-8 6h-11l-5-5-8-6-8-3-11-1-12 4-9 7-4 5-4 11-7 4h-6l-6-3-3-6 1-10 8-14 4-6-1-4-4-3-2 5-8 13-8 17-2 5-19 2h-154v10h-1l-1-10-23-1 5-5 6-8 4-7 1-2h2l2-4 7-13 4-5 2-17v-7l-7-8-3-10-3-3v-2l-17-3h-7l-15 5-16 8-5 3h-2v2l-4 3h-2v2l-8 7-12 14-2 3h-2l-2 6-7 12-8 16-4 12-5-1-5-7-1-8 3-18 5-17 8-16 7-11 8-10 14-12 6-7 1-2 1-21 1-4 2-1h53l5 3 4 9 3 7h7l1-14 3-5 3-2h9l25 4 18 4 6 5 5 8 4 2v3l-10 6-10 9-6 9-3 8v20l4 12 7 10 8 8 14 7 11 2h58l5-10 5-15 4-21 2-18 1-19 1-34 9-19 2-10v-7l-6-6h-3l-2 4-3 1-5-2-2-5 2-9 8-7 14-4 15-4z" fill="#FCBB33"/>
<path transform="translate(1150,347)" d="m0 0 7 1 14 11 16 12 19 14 13 10 13 9 10 7 1 251v157l-11 1h-9l-5-1-1-33v-359l-12-10-13-10-12-9-14-10-5-3 1 328v39l1 3-6 3-4 1h-12l-6-5 1-404 4-2z" fill="#BBBABA"/>
<path transform="translate(700,434)" d="m0 0h17l6 4 3 4 1 8 9 5v2h-10v17l-5 13-4 6-1 4h8l11 3 5 4v15l-2 41-1 7-7-1-10-4-6-8-8-17-18 6-4 1 4 8 7 10 9 12 7 6 25 5 2 1 2 12v20l7 43 6 42 4 57 2 34 5 4 11 3 10 2 2 4-4 4-14 2h-16l-9-1-3-4 1-9 2-5-1-8-11-39-5-21-5-23-5-11-5-15-1-4h-2l-1 9-12 36-12 37-9 29-2 6 1 5 5 4 20 8 1 5-2 2h-22l-18-3-6-3-1-5 5-12 3-6 7-36 3-22 1-13 1-67 1-17v-37l2-16v-21l-6-29v-20l6-7 3-2 6-1 16-1 1-5v-7l-10-13-4-9v-13l3-7 8-7z" fill="#39373D"/>
<path transform="translate(996,420)" d="m0 0h12l8 4 3 7 5 3 2 3v10l-3 9-7 11-2 1-1-3-1 5v13l19 2 7 4v2h2l2 5v12l-6 30v23l1 12v20l1 23 1 68 2 22 3 20 4 21 4 15 3 7v7l-5 3-17 3h-19l-3-2 1-4 5-3 14-5 5-4 1-4-13-37-6-19-5-19-11-32v-2h-2l-3 10-5 12-4 10-6 34-5 17-8 28 4 10-1 6-2 2-6 1h-12l-14-1-9-3 1-5 9-2 12-3 4-4 4-71 4-31 3-13 3-18 2-13 3-18 1-33 17-2h7v-2l8-2 2-2 3-7 3-1 1-4 10-18-9-2-11-4-2 6-7 11-5 5-5 4-9 4h-5l-1-9-1-7v-10l-9-2-2-1 1-5 9-22 4-6 7-4 8-2h6l-1-7-5-6-4-13v-16l-6-2-6-5 1-4 7-6 10-4z" fill="#6E6A69"/>
<path transform="translate(258,675)" d="m0 0h9l13 3 2 1v2l4 2 2 9 3 4v2l4 2 1 2-1 14-1 10-6 8-5 10-3 4h-2l-2 6-6 8-5 6-2 1 22 1 1 1v14l-4 13-6 10-8 8-16 8-7 2h-20l-11-4-11-6-6-5-9-13-5-15-1-11-14-1-1-2h2l1-7 8-17 8-15 4-7h2l2-4 9-10 7-8 4-2v-2l4-3h2v-2l16-9 18-7z" fill="#F79D47"/>
<path transform="translate(740,502)" d="m0 0 32 1 34 2 32 8v15l-4 60-8 3-12 3-11-1h-17l-10-3-32-4-5-1v6h-1v-5l-27-5-10-9-8-11-8-12-1-5 15-6 7-2 8 16 6 9 13 5 4 1 1-33z" fill="#EAB276"/>
<path transform="translate(700,434)" d="m0 0h17l6 4 3 4 1 8 9 5v2h-10v17l-5 13-4 6-1 4h8l11 3 5 4v15l-2 41-1 7-7-1-10-4-6-8-8-17-18 6-4 1 4 8 7 10 9 12 7 6 25 5 2 1 2 12v16l-2 4h-43l-20-2-1 5h-1l-1-13v-15l2-16v-21l-6-29v-20l6-7 3-2 6-1 16-1 1-5v-7l-10-13-4-9v-13l3-7 8-7z" fill="#2F377B"/>
<path transform="translate(595,206)" d="m0 0h15l13 4 11 7 8 8 7 14 3 9v5l-15 14-13 13-9 7-2 4 18-2 2 4 1 11-2 3 8 40-1 3-24 5-18 4h-7l-5-21-4-19v-3l-5-2-2-7v-5l7-3 13-4-2-4-16-15-13-12-10-10-1-7 5-15 8-11 9-8 8-4zm-35 43-5 2 2 5 15 13 15 14 9 9 1-3-5-16-7-20-5-3-4-1zm39-1-10 2-3 2 3 11 10 28h4l12-27 1-2-8 21-3 8 5-1 7-7 6-5 5-6 8-7 11-10-1-4-3-2h-17l-6 3h-2l-7-3z" fill="#F9F9F9"/>
<path transform="translate(1143,371)" d="m0 0 4 2 13 10 2 2v367l1 3-6 3-4 1h-10z" fill="#BDBDBC"/>
<path transform="translate(523,743)" d="m0 0 11 1 10 4 7 6 4 4h11l6-5h2l4 13 1 12-3 13-6 12-7 9-8 6-12 6-7 2h-19l-12-4-13-7-8-9-7-15-2-8v-11l6 2h6l6-3 5-13 7-7 8-5z" fill="#38363C"/>
<path transform="translate(480,729)" d="m0 0 4 2 2 2-1 4-11 19-1 10 2 4 2 21-36 8-24 3h-39l-35-2-35-4-21-3-3-1 3-21 154-1 19-2 5-13 9-17z" fill="#F9F9F9"/>
<path transform="translate(738,620)" d="m0 0 2 1 3 16 7 43 3 23 4 57 2 34 5 4 11 3 10 2 2 4-4 4-14 2h-16l-9-1-3-4 1-9 2-5-1-8-11-39-5-21-5-23-5-11-5-15-1-5 2-3h2l2-12h2v-9l3-12 3-8 8-2z" fill="#2A2940"/>
<path transform="translate(996,420)" d="m0 0h12l8 4 3 7 5 3 2 3v10l-3 9-7 11-2 1-1-3-1 5v13l19 2v1l-8 2-7 9-10 23 1 2-6 11-7 10-9 6-7 3h-5l-1-9-1-7v-10l-9-2-2-1 1-5 9-22 4-6 7-4 8-2h6l-1-7-5-6-4-13v-16l-6-2-6-5 1-4 7-6 10-4z" fill="#8AB58C"/>
<path transform="translate(184,771)" d="m0 0h102v14l-4 13-6 10-8 8-16 8-7 2h-20l-11-4-11-6-6-5-9-13-4-12z" fill="#38363C"/>
<path transform="translate(975,596)" d="m0 0h26v1h-15l5 17 7 21v5l-11 11-1 3 7 5v2h2v6l-6 12-7 38-5 17-8 28 4 10-1 6-2 2-6 1h-12l-14-1-9-3 1-5 9-2 12-3 4-4 4-71 4-31 3-13 3-18 2-13z" fill="#57596B"/>
<path transform="translate(564,34)" d="m0 0h9l17 8 3 1h10l30-5 11 1 6 3 2 3-1 5-9 8-8 4-30 9-5 5-11 20-5 5-10 3h-4l2-6 5-14 3-11-29 4-27 5-9 1-5-5-7-11-7-10 1-4 6-1 10 5 9 6h7l42-11 2-1-8-7-8-5 2-3zm31 19-1 4h4v-4zm-10 2-2 1 1 4 4-1-2-4z" fill="#F9F9F9"/>
<path transform="translate(1137,351)" d="m0 0 4 1 19 12 6 5 7 4 7 5v2l4 2 13 11 6 4 9 7 11 10v11l-4 2-5-6-4-2-14-11-5-3v-2l-9-3-9-7-13-9-9-7-8-6v388l-5-2-2-3z" fill="#7C897F"/>
<path transform="translate(1025,486)" d="m0 0h9l4 3v2h2l2 5v12l-6 30v23l1 12v38h-1v-16h-61v-29l17-2h7v-2l8-2 2-2 3-7 3-1 1-4 10-18-9-2-12-5 9-22 7-10z" fill="#7C8A7F"/>
<path transform="translate(1006,522)" d="m0 0 7 1 10 4 3 1-2 5-8 14-1 3-4 4-2 5-4 3h-6v2l-13 2-28 2-20 3-8 2h-7l-14-4-1-1-13-2v-3l16-1 4-1 2-5 8-4 16-7 9-7 8-12 1-3 10 2 2 1 1 15 1 2v9l10-3 8-5 3-1 2-4 7-11z" fill="#FAB891"/>
<path transform="translate(515,720)" d="m0 0h24l11 4 10 6 8 7 5 7 1 9-8 6h-11l-5-5-8-6-8-3-11-1-12 4-9 7-4 5-4 11-7 4h-6l-6-3-3-6 1-10 8-14 5-9 8-5 4-4 5-1z" fill="#FAA74D"/>
<path transform="translate(1e3 651)" d="m0 0h2l7 19 8 25 4 16 10 29v4l-16-1-39-4 1-8 4-14 7-38 7-15 4-11z" fill="#F8F8F8"/>
<path transform="translate(700,434)" d="m0 0h17l6 4 3 4 1 8 9 5v2h-10v17l-5 13-4 6-1 4h8v1h-7l-1 5-1 1h-12l-5-4v-2h-15v-1l16-1 1-5v-7l-10-13-4-9v-13l3-7 8-7z" fill="#F8B892"/>
<path transform="translate(738,620)" d="m0 0 2 1 3 16 7 43v15l-5 1 1-4-3 2h-3l-1 4-9 9-5-1-3-3-5-11-5-15-1-5 2-3h2l2-12h2v-9l3-12 3-8 8-2z" fill="#282740"/>
<path transform="translate(740,505)" d="m0 0h1l1 39-1 18 3 7-2 5v3l27 7 8 1h30l2-1 15-1 9-2 1-3v10l-8 3-12 3-11-1h-17l-10-3-32-4-5-1v6h-1v-5l-27-5-10-9-8-11-8-12-1-5 15-6 7-2 8 16 6 9 13 5 4 1 1-33z" fill="#FBB993"/>
<path transform="translate(769,510)" d="m0 0h14l1 1-1 26-2 27v22l-17-2-17-5-3-3 1-6-1-3 2-5 3 1 1-29 5 1v6l5 1 2-5 4-1 2-25z" fill="#EAB074"/>
<path transform="translate(1143,371)" d="m0 0 4 2 7 6h-3l-6-4v31l2 18v8l-1 5h2v-5h1v8h-1v4l2-2 1 10v11l-4 16-2 14v24l1 19 3 18-1 22 1 13v28l1 10v22l-1 9v24l-1 6 3 6v16l-2 5-4 3v15l3-1 2-2h2l1 5-3 1h4l2 10v10l1 2-4 1h-10z" fill="#BCB7B1"/>
<path transform="translate(216,771)" d="m0 0h65l-4 5h-3l-1-4-3 1v6l4-1-6 7-7 12-11 9-6 3h-12l-6-2v-2l5 1 2 1 1-5-1-5-10-2-1 5h-2l1-8h-2l-2-3-6 1v5l-4-2-4-8v-7l3 4 1 6 7-1v-14h2z" fill="#7C8A7F"/>
<path transform="translate(1150,347)" d="m0 0 7 1 14 11 16 12 19 14 14 11 5 5 12 8 2 3h-10l-7 2-13-12-6-4-13-10-10-8v-2l-5-2-6-5-7-4-5-4-16-10-4-2v403l-2-1 1-403 4-2z" fill="#9AB798"/>
<path transform="translate(740,502)" d="m0 0 32 1 34 2 9 3 2 2h-23l-8 1-3 55-1 2v11h-1l-1-6 1-24 2-31v-7h-14l-3 39h-1l-1-13-6 6-4-2 1-6-4 1-2 27h-2l-2 5 1 5v4l-4 1-2-2 3-5-2-8-1-1 1-26z" fill="#F79D48"/>
<path transform="translate(541,747)" d="m0 0 3 2-3 4v3l6 5 2-2h3v2l-4 4v21l6 3 3-14h2v7l-4 10-3 3-2-5-4-2-5 5 1 7-3-1v-3h-9l-9-1-9-5-5-6-1-3v-10l4-8 7-7 5-2h10l3-1 3 1 2-6z" fill="#7C897F"/>
<path transform="translate(523,743)" d="m0 0 11 1 7 3-3 7h-5l-2 1h-9l-6 3-7 8-2 5v10l3 6 5 4 6 3 18 2v3h2l-1-6 6-6 4 2 2 3-1 6-8 7-7 3-13 1-9-2-9-6-7-8-5-10-2-11 3-3 4-11 7-7 8-5z" fill="#68666A"/>
<path transform="translate(268,704)" d="m0 0h14l11 2v6l-3 9-8 16-6 9-2 4h2l2-4 4-5 4-7 1 3-7 11h-2l-2 6-6 8-5 6-2 1 22 1v1h-54l-3-2 2-1 17-2 8-2-3-6v-7l10-6 4-2v-3l-9-1-1-2 3-3 8-3 6-3 1-3-8-1 1-5 9-3v-2l-15-1-1-4 4-2v-2z" fill="#FAA74D"/>
<path transform="translate(1219,431)" d="m0 0h1l2 29 1 187v172h-5v-72z" fill="#656369"/>
<path transform="translate(979,699)" d="m0 0 2 4 1 4v10l-5 17-8 28 4 10-1 6-2 2-6 1h-12l-14-1-9-3 1-5 9-2 12-3 4-4 3-54 2-1 1 18 2 6 1 5h2l2-1 5-14 3-15z" fill="#3C3A41"/>
<path transform="translate(996,420)" d="m0 0h12l8 4 3 7 5 3 2 3v10l-3 9-7 11-2 1-1-3v-8l3-10h-7v-5l-9 2h-13l-10-5-4-4 1-4 7-6 10-4z" fill="#3C3A41"/>
<path transform="translate(1e3 442)" d="m0 0h5v5h7l-1 8-2 9-1 6v15l-3 5-2 1-9-1-3-4-1-9-5-6-4-13v-15h15z" fill="#FDB992"/>
<path transform="translate(214,634)" d="m0 0h53l2 2-3 1-9-1 3 5 2 8-1 5-7 2h-32l-10-1v-20z" fill="#F79D47"/>
<path transform="translate(293,632)" d="m0 0h9l25 4 10 2 4 9 1 4-1 2-11 2h-43l-1-2 1-14 3-5z" fill="#F89D48"/>
<path transform="translate(1142,358)" d="m0 0 6 2 17 12 12 9 19 14 11 8 12 9 3 3v11l-3 1-5-6-4-2-14-11-5-3v-2l-9-3-9-7-8-6-5-5-8-6-10-8-1-7z" fill="#6E6B6A"/>
<path transform="translate(1025,486)" d="m0 0h9l4 3v2h2l2 5v12l-6 7-9 15-1-2-9-2-12-5 9-22 7-10z" fill="#585B6B"/>
<path transform="translate(700,434)" d="m0 0h17l6 4 3 4 1 8 9 5v2h-17l-4 1h-12l-6-1-1 5-4 3 4 7v4l-4-2-6-12v-13l3-7 8-7z" fill="#313A7B"/>
<path transform="translate(959,523)" d="m0 0 10 2 2 1 1 10-2 7-8 7-18 8-20 5-8 4h-2l1 3-6-1-1-1-13-2v-3l16-1 4-1 2-5 8-4 16-7 9-7 8-12z" fill="#FDB891"/>
<path transform="translate(709,673)" d="m0 0h2l4 10 9 24 3 13v5h-33l1-7 12-36z" fill="#F6F6F6"/>
<path transform="translate(258,675)" d="m0 0h9l13 3 2 1v2l4 2 2 9 3 4v2l4 2v2l-7-1-12-3-21-2-12-6-3-4h-8l4-3 18-7z" fill="#FBA74D"/>
<path transform="translate(1184,400)" d="m0 0 5 2 2 1v2l5 2 14 11 6 4 4 4 3-1v121h-1l-1-89-1-10-1 300-1 39h-1v-359l-12-10-13-10-8-6z" fill="#A4B0A6"/>
<path transform="translate(256,771)" d="m0 0h25l-4 5h-3l-1-4-3 1v6l4-1-6 7-7 12-11 9-6 3h-12l-6-2v-2l5 1 2 1 1-5-1-5-10-2-1 5h-2l1-8h-2l-2-3-6 1v5l-4-2-4-8v-7l3 4 1 6 7-1v-14h1l1 10 4 6 4 3 5 2 12 1 2-3 6-1-1 8 2-7h2v-5l4 1 7 3-2-2-5-2-1-5v-10z" fill="#5A5B6A"/>
<path transform="translate(465,568)" d="m0 0 6 1 1 3 1 17-2 5-1 10-4 7h-3l-2 4-1-2 2-10v-7l-6-6h-3l-2 4-3 1-5-2-2-5 2-9 8-7z" fill="#FAA853"/>
<path transform="translate(750,689)" d="m0 0h1l2 14v13l-3 9-2 8-1 2-3-1-3-8-3-4-12-2-3-15 7 1 7-8h2l1-4 5-3 2 1-1 3 3-1z" fill="#37353D"/>
<path transform="translate(659,790)" d="m0 0 1 2h12l5 6 8 4 13 4 2 2-1 5-1 1h-22l-18-3-6-3-1-5 4-10z" fill="#29283F"/>
<path transform="translate(750,534)" d="m0 0 5 1v6l5 1 2-5h3v18l-1 8-1 20-10-2-9-4 1-7-1-3 2-5 3 1z" fill="#7C897E"/>
<path transform="translate(496,726)" d="m0 0h4l2 5h-2v2h-2l-1 3h-2l-2 6-7 6-3 5-2 1 4 6 4 3-2-9 5-1 5 3v7l-4 9-6 3h-6l-6-3-3-6 1-10 8-14 5-9 8-5z" fill="#F79E49"/>
<path transform="translate(1049,759)" d="m0 0h2l4 10v7l-5 3-17 3h-19l-3-2 1-4 5-3 14-5 5-4 3-3 4 1 5-2z" fill="#38363D"/>
<path transform="translate(523,743)" d="m0 0 11 1 7 3-3 7h-5l-2 1h-9l-6 3-7 8-2 5-1 10h-1l-1-9-2 2-7-1-1-4 4-11 7-7 8-5z" fill="#6A6769"/>
<path transform="translate(1219,431)" d="m0 0h1l2 29v154l-3 4z" fill="#646369"/>
<path transform="translate(214,634)" d="m0 0h53l2 2-3 1-9-1 3 5 2 8-1 5-7 2h-28v-1l14-2 2-10h-2v-3h-2l-1-4h-14l-9-1z" fill="#FBA74D"/>
<path transform="translate(1139,521)" d="m0 0 2 2v158l-2 3-1-3v-157z" fill="#6E6A69"/>
<path transform="translate(475,772)" d="m0 0 6 2h6l5-1-1 4-4 1-7 2 1 8 3 9 3 1v2h2l5 5 11 7 4 4 5 2 5 5 8 1v1h-14l-12-5-10-6-7-8-7-15-2-8z" fill="#2C2B41"/>
<path transform="translate(572,753)" d="m0 0h2l4 13 1 12-3 13-6 12-7 9-8 6-12 6-3 1h-10l4-1 1-3h3v-3l16-6 4-4h2v-2h2l2-5 6-9 3-6 2-7-1-7-2-8v-3l-4-1-6 1 1-2 6-3z" fill="#2B2A40"/>
<path transform="translate(185,785)" d="m0 0 3 1 3 5v2l3 1 2 4v3l14 3 6 1 3 3v9l4 2 2 5h-7l-15-8-6-5-9-13-3-8z" fill="#2A2940"/>
<path transform="translate(534,721)" d="m0 0h9l16 8 9 8 5 7 1 9-8 6h-11l-5-5-2-4 5 1 6 5 4-1-1-7-3-2-1-9-5-4-5-3v-2l-5-1-9-4z" fill="#FCBA3A"/>
<path transform="translate(293,632)" d="m0 0h9l25 4 10 2 4 9 1 4-1 2-11 2h-43l-1-2 1-5h1l1 5h28l3-1 1-7-5-8-8-2-16-1z" fill="#FAA956"/>
<path transform="translate(1221,614)" d="m0 0h1l1 33v172h-1v-67h-2v-112l-1-3v-19z" fill="#798878"/>
<path transform="translate(543,749)" d="m0 0 5 2 5 6 5 5 2 9v5l-3-1-1 10-2 4-6-3-1-5v-16l3-4h2v-2l-6 3-5-5-1-4z" fill="#646269"/>
<path transform="translate(1223,749)" d="m0 0h1l1 19 4 7 2 2 2 13 2 1-1 7h-2l-1 4-6 8-1 8h-1z" fill="#BDB7B1"/>
<path transform="translate(1011,506)" d="m0 0 7 2 2 3v3l8 2 2 2 2 3-5 9-1-2-9-2-12-5z" fill="#6E6A69"/>
<path transform="translate(324,792)" d="m0 0 9 1 29 1 12 3 7 1h9l3-1v3h-27l-34-1-17-2-2-2z" fill="#F3F3EE"/>
<path transform="translate(971,541)" d="m0 0 2 2v10l-35 9-5 2-3 5-4 1-12-1v-2l10-5 20-5 18-8z" fill="#F9F9F8"/>
<path transform="translate(214,788)" d="m0 0 4 1 1 3h2l-1 8h2l1-5 10 1 2 6-2 5-7-2v2l9 2 2 4v3l-5-2-7-6-10-6-6-6 2-7z" fill="#5C5D6A"/>
<path transform="translate(256,771)" d="m0 0h25l-4 5h-3l-1-4-3 1v6l4-1-6 7-4 7-4-1h3l-2-2-5-2-1-5v-10z" fill="#68676A"/>
<path transform="translate(214,773)" d="m0 0h1l1 10 4 6 4 3 5 2 12 2-4 6v4l12-3 3-3h2v3l-10 6h-12l-6-2v-2l5 1 2 1 1-5-1-5-10-2-1 5h-2l1-8h-2l-2-3-6 1v5l-4-2-4-8v-7l3 4 1 6 7-1z" fill="#6F706F"/>
<path transform="translate(1240,760)" d="m0 0h3v59h-6l1-5-1-13v-6h2v-13l1-4h-3l1-6z" fill="#BDB7B1"/>
<path transform="translate(576,51)" d="m0 0 7 1 1 2v5h3l1-5h4v2l3 1v3l4 1-8 1 12 1v3l-1-2-13 1-12-3h-7l-20 5h-5v-2l7-1 5-1 12-4h8 2l-6-4z" fill="#F3F3EE"/>
<path transform="translate(973,493)" d="m0 0 1 2-2 11v19h-7l-5-2 1-5 9-22z" fill="#5B6166"/>
<path transform="translate(975,596)" d="m0 0h9l-1 3-5 2-1 1-1 12-3 9v9l-1 1-2 15h-2l-1 10-2 3 1-13 3-18 2-13z" fill="#3E3C43"/>
<path transform="translate(736,700)" d="m0 0 5 1 3 8v2l-9 2v2l2 5-6-1-2-1-2-4-1-5 8-7z" fill="#57596A"/>
<path transform="translate(1015,623)" d="m0 0 5 1-1 5-5 9 1 6h-4l-6-6-3-1 2-4z" fill="#7C897F"/>
<path transform="translate(642,587)" d="m0 0 4 1-5 4h-2v4l5 5v2l4-1h8l3 4v6l-2-4-1-3h-8l-6 4h-5v-2l-2-1-1 2-2-4 5-12 3-1v-2h2z" fill="#F3F3EE"/>
<path transform="translate(201,771)" d="m0 0h15v2h-2v14l-7 1-3-7-2 1z" fill="#565662"/>
<path transform="translate(984,655)" d="m0 0 1 3-8 7-1 2h4l2-4 5-5v5h5v4l-10 1v4l-1 5-4-2-7-6 2-4 7-7z" fill="#6E6A69"/>
<path transform="translate(1032,605)" d="m0 0 2 1 1 5 2 1 1 4v31h-1v-29h-3l1 6-4 1-8-8v-3h5l3-8z" fill="#818D83"/>
<path transform="translate(627,53)" d="m0 0h7l-1 7-7 2h-4v-3h-4v4h-9l-1-2 2-1-2-2 13-4h5z" fill="#F3F3EE"/>
<path transform="translate(572,753)" d="m0 0h2l4 13 1 12-2 7h-2l-1-3 1-7-2-7-1-7-4-1-6 1 1-2 6-3z" fill="#2E2C41"/>
<path transform="translate(960,585)" d="m0 0 4 2 2 3v10h-1l-1-10-6 2h-6l-1 1h-7l-3-1h-11v-3l2-2h6l6 1h8l4 1v-2z" fill="#F3F3EE"/>
<path transform="translate(740,505)" d="m0 0h1l1 39-1 19-2 4h-2l1-33z" fill="#9AA097"/>
<path transform="translate(473,756)" d="m0 0h5l2 1v4l2 1v9l4 3-5 1-6-3-3-6z" fill="#FAA854"/>
<path transform="translate(944,557)" d="m0 0 5 1-4 2-12 4-3 5-4 1-12-1v-2l10-5z" fill="#FAFAFA"/>
<path transform="translate(508,62)" d="m0 0 4 1 5 4 6 1h9l4 2-15 2-7-3v4l7 2 5 1-2 2h-7l-5-3-6-9v-3z" fill="#F3F3EE"/>
<path transform="translate(557,775)" d="m0 0h2v7l-4 10-3 3-2-5-4-2-5 5 1 7-3-1v-3h-9l3-3 6-3 5-4 2-5h2v5l6 3z" fill="#69676A"/>
<path transform="translate(1025,486)" d="m0 0h9l4 3v2h2l1 2v11l-4-4-3-5-7-3-3-4z" fill="#3D3D41"/>
<path transform="translate(277,801)" d="m0 0h2l-1 4-7 8-3 3-9 2h-2v-3h2v-2l4-3 6-2v-2z" fill="#2A293F"/>
<path transform="translate(634,732)" d="m0 0 4 1-2 3-5 1-5 4-10 1-8-2 3-2 18-5z" fill="#F8A656"/>
<path transform="translate(1036,631)" d="m0 0h1l1 16v43h-2l-1-3v-27z" fill="#5F5F6A"/>
<path transform="translate(784,512)" d="m0 0h1v20l-2 34-1 2v11h-1l-1-6 1-24 2-31z" fill="#F89D47"/>
<path transform="translate(781,442)" d="m0 0 3 1-2 5-6 9-3 9h2v2h8l-3 3-2 1h-7l-2-4 4-10 4-9h2l1-6z" fill="#F3F3EE"/>
<path transform="translate(497,760)" d="m0 0 4 1 4 2-1 7-2 4-7-1-1-4z" fill="#39373F"/>
<path transform="translate(1009,426)" d="m0 0 5 1v2l4-1-1 12-2 1-5-4-4-4 1-5z" fill="#57596A"/>
<path transform="translate(533,796)" d="m0 0h6l1 7-8 3h-5v-8z" fill="#38363C"/>
<path transform="translate(527,744)" d="m0 0h7l7 3-3 7-9-1-2-1z" fill="#3A383E"/>
<path transform="translate(541,747)" d="m0 0 3 2-3 4v3l6 5 2-2h3v2l-4 4v5h-2l-4-8-4-3v-2l-5-1-1-3 6 1 2-6z" fill="#69686B"/>
<path transform="translate(963,740)" d="m0 0h3v2l2 1-4 11-1 3h-4l-1-10z" fill="#57596B"/>
<path transform="translate(508,749)" d="m0 0h3l3 5v2l-6 5-5-1-3-2 2-4z" fill="#38363D"/>
<path transform="translate(438,795)" d="m0 0h14l-1 2-16 3h-25l1-3v2l23-3z" fill="#F4F4F0"/>
<path transform="translate(515,720)" d="m0 0h24l1 2-15 1-5 2h-9l-8-2z" fill="#F7B858"/>
<path transform="translate(550,761)" d="m0 0h4l3 9v3l-6 1-3-3-1-6z" fill="#37353C"/>
<path transform="translate(505,788)" d="m0 0 4 1 4 4-1 8-5-2-7-8 3-2z" fill="#36343C"/>
<path transform="translate(523,770)" d="m0 0h6l2 2v6l-3 3-5-1-3-5z" fill="#6E6A69"/>
<path transform="translate(750,689)" d="m0 0h1l2 14v6h-1l-1-5-2 1v-2l-4-2-1-3-3-1v-3l4-3 2 1-1 3 3-1z" fill="#60636F"/>
<path transform="translate(687,458)" d="m0 0 3 1 1-1h6l-1 4-4 3 4 7v4l-4-2-5-10z" fill="#46454C"/>
<path transform="translate(992,646)" d="m0 0v3l-1 3 6-3-1 6h2l-2 9-1-3h-2l-8-8z" fill="#706D6B"/>
<path transform="translate(243,795)" d="m0 0h3l1 5h2l-1 3-3 2-8 1-1-4 3-5z" fill="#525364"/>
<path transform="translate(962,667)" d="m0 0h1l1 5 4-2-1 7h2l1-3h3l-1 8 1 3-4-1-6-5-1-4z" fill="#73726F"/>
<path transform="translate(214,773)" d="m0 0h1l1 10 5 8-2 1-2-3-6 1v5l-4-2-4-8v-7l3 4 1 6 7-1z" fill="#64636A"/>
<path transform="translate(550,776)" d="m0 0h7l-1 9-2 4-6-3 1-9z" fill="#38363C"/>
<path transform="translate(546,787)" d="m0 0 4 2 2 3-7 8-3-1-2-6z" fill="#38363C"/>
<path transform="translate(495,777)" d="m0 0h8l2 9-4 2h-3l-3-6z" fill="#38363C"/>
<path transform="translate(975,596)" d="m0 0h9l-1 3-5 2-1 1-1 12-3 8h-1v-11z" fill="#3F3D43"/>
<path transform="translate(543,749)" d="m0 0 5 2 4 5v2l-6 4-5-5-1-4z" fill="#3D3A40"/>
<path transform="translate(519,744)" d="m0 0h5v8l-1 1h-7l-4-4 1-3z" fill="#38363D"/>
<path transform="translate(627,433)" d="m0 0h25l3 3v4l3 1 1 4-5-3-4-5-14-1-17-1v-1z" fill="#F3F3EE"/>
<path transform="translate(205,777)" d="m0 0h7l2 3v7l-7 1-2-6z" fill="#38363C"/>
<path transform="translate(230,771)" d="m0 0h10l1 4-3 5h-5l-3-4z" fill="#6D6A69"/>
<path transform="translate(493,776)" d="m0 0 5 10v2l7-1v2l-4 2 7 8v2l-4-1-6-7-5-10z" fill="#6F7574"/>
<path transform="translate(214,788)" d="m0 0 4 1 1 3h2v5l-2 3-4-2-5-6 1-3z" fill="#38363C"/>
<path transform="translate(1027,538)" d="m0 0 4 1 1 7-4 8-4-2 1-9z" fill="#89B68B"/>
<path transform="translate(740,502)" d="m0 0 32 1 21 1v1l-40 1-6-2h-7z" fill="#CFB59B"/>
<path transform="translate(515,796)" d="m0 0 9 1v8h-7l-3-2z" fill="#38363C"/>
<path transform="translate(402,782)" d="m0 0 2 1 3 12-1 3h-1l-2-7-5 1-2 5h-1l1-9 3-5z" fill="#F3F3EE"/>
<path transform="translate(1220,396)" d="m0 0 21 14-1 4-15 1-2 1v-3l6-2h9l-11-8-7-5z" fill="#BEB9B4"/>
<path transform="translate(223,796)" d="m0 0 9 1 1 5-4 2h-6l-2-4z" fill="#38363C"/>
<path transform="translate(1e3 527)" d="m0 0h1v5l-8 11-3 2h-3l-1-3 4-2 2-4 3-1v-2l4-4z" fill="#7E8E81"/>
<path transform="translate(1184,400)" d="m0 0 5 2 2 1v2l5 2 14 11 6 4 2 2-1 3-12-10-13-10-8-6z" fill="#889489"/>
<path transform="translate(748,773)" d="m0 0 3 3 1 16 1 3h-5l-1-1v-20z" fill="#38363C"/>
<path transform="translate(1e3 642)" d="m0 0 2 1 1 3 5-1-3 5-5 3-1-2h-2l-1-7z" fill="#7E8B81"/>
<path transform="translate(1290,744)" d="m0 0v3l-5 2-9 1h-6l1 3-6 1-1 3-2-3v-2l4-3 16-2 7-2z" fill="#F3F3EE"/>
<path transform="translate(1049,761)" d="m0 0 3 1 3 7v7l-5 3h-7l3-2 5-1-1-10z" fill="#2D2C40"/>
<path transform="translate(747,758)" d="m0 0h2l-1 14h-5l-3-5 1-3 6-3z" fill="#38363C"/>
<path transform="translate(1140,741)" d="m0 0h2v17l-4-1-2-3 1-1 1-10h2z" fill="#706E6C"/>
<path transform="translate(557,775)" d="m0 0h2v7l-4 10-3 3-2-5-4-4 1-5h1v5l6 3z" fill="#67686D"/>
<path transform="translate(503,770)" d="m0 0 2 4v9l-2-4v-2h-8l-1 3-2-1-1-7 3-1 3 2h5z" fill="#656469"/>
<path transform="translate(1013,520)" d="m0 0 10 2v2l4-1v7l-1-2-9-2-5-3-1-2z" fill="#5B5D6A"/>
<path transform="translate(550,794)" d="m0 0h2l-2 5-9 7-5 1-4-2 7-2 2-4 5-1z" fill="#62616A"/>
<path transform="translate(1124,747)" d="m0 0 6 1 5 3-3 1h-15l-3-2z" fill="#F4F4EF"/>
<path transform="translate(480,729)" d="m0 0 4 2 2 2-1 4-1 1-8 1-2 1 2-4z" fill="#F6F6F3"/>
<path transform="translate(967,511)" d="m0 0h2l1 9-8 1v2h-2l1-5 2-5z" fill="#71746E"/>
<path transform="translate(214,634)" d="m0 0h53l2 2-3 1-3-1-49-1z" fill="#FCB88C"/>
<path transform="translate(1036,668)" d="m0 0 2 2v20h-2l-1-3v-18z" fill="#57596B"/>
<path transform="translate(1391,307)" d="m0 0 6 2 4 6 5 3 5 7-4 1-5-8-3-1v-2l-3-1v-2l-4-2z" fill="#F3F3EE"/>
<path transform="translate(525,798)" d="m0 0 2 1v7h9v2l-13 1-3-1v-2h4v-6z" fill="#6D6D6D"/>
<path transform="translate(849,724)" d="m0 0h10l8 2 1 2h-10l-11-1v-2z" fill="#F3F3EE"/>
<path transform="translate(480,322)" d="m0 0 5 2 2 8v7h-1l-2-9-2-4-8 2 1-4z" fill="#F3F3EE"/>
<path transform="translate(930,714)" d="m0 0h6l4 3v2l5 1 2 1 1 8h-2l-1-3-2-1v-2l-4-2-3-4-6-2z" fill="#F3F3EE"/>
<path transform="translate(449,587)" d="m0 0h6l7 6-1 2-5-5h-3l-2 4-3 1-4-1v-2h3z" fill="#FAB95F"/>
<path transform="translate(792,594)" d="m0 0h11l-2 1-1 3-4 1h-7l-2-2 1-2z" fill="#F3F3EE"/>
<path transform="translate(1157,757)" d="m0 0h5l-4 2h-3v5l-10-2-2-1v-2z" fill="#F5A04E"/>
<path transform="translate(523,743)" d="m0 0h6l-2 1v8l6 2-2 1h-12l1-2 3-1z" fill="#686669"/>
<path transform="translate(736,702)" d="m0 0 4 2v2l-5 5-5 1v-4z" fill="#36343D"/>
<path transform="translate(1417,403)" d="m0 0 5 1 1 1v6l-2 1-1-3-6 1v-6z" fill="#F3F3EE"/>
<path transform="translate(617,256)" d="m0 0 1 3-7 19-3 7h-2l1-5 8-19z" fill="#FAFAFA"/>
<path transform="translate(723,705)" d="m0 0 6 2-1 2h-2l2 5 2 2-1 2 7 2v1l-10-1z" fill="#3E3C44"/>
<path transform="translate(482,452)" d="m0 0h3l2 9-3-3-5 5h-2l3-9z" fill="#F3F3EE"/>
<path transform="translate(670,136)" d="m0 0 5 3 4 4v3l-9-1v-3z" fill="#FAFAFA"/>
<path transform="translate(508,800)" d="m0 0h6l1 3 9 2-4 1v2l-6-1-8-5z" fill="#61616A"/>
<path transform="translate(688,542)" d="m0 0 4 1-4 1 1 7 7 10-1 2-6-8-5-9v-2z" fill="#E7E7E6"/>
<path transform="translate(974,538)" d="m0 0 6 8-2 4-4 1-1-12z" fill="#7C897F"/>
<path transform="translate(656,121)" d="m0 0 5 1 6 7v2l-4-1-5-4z" fill="#FAFAFA"/>
<path transform="translate(570,40)" d="m0 0 4 1 3 3v3l-4 1-5-3z" fill="#F3F3EE"/>
<path transform="translate(962,680)" d="m0 0 2 4-1 12-2 9h-1v-11l1-11z" fill="#38363C"/>
<path transform="translate(995,645)" d="m0 0 3 1 1 9h-3v-5l-6 3 2-5z" fill="#57596A"/>
<path transform="translate(484,593)" d="m0 0h9l-2 2h-6l1 17h-1l-2-9-1-2v-6z" fill="#F3F3EE"/>
<path transform="translate(936,723)" d="m0 0 4 1 3 3 5 4 3 3-10-2-2-1v-4l-3-3z" fill="#F3F3EE"/>
<path transform="translate(1166,356)" d="m0 0 5 3 16 12 1 2-5-2-3-2v-2l-5-2-9-7z" fill="#BCB8B3"/>
<path transform="translate(932,771)" d="m0 0h10l-8 4 2 3h-6l-1-4z" fill="#323043"/>
<path transform="translate(1020,618)" d="m0 0h2v3l3 1 1 2 3 1v4l-4-2-7-5z" fill="#7C897F"/>
<path transform="translate(634,575)" d="m0 0 7 1 6 4 1 6h-3l-2-5-9-5z" fill="#F3F3EE"/>
<path transform="translate(927,561)" d="m0 0h6l-4 4-5 2h-4l1-4z" fill="#F4F4EF"/>
<path transform="translate(740,705)" d="m0 0h2l2 6-12 2 6-7z" fill="#545566"/>
<path transform="translate(971,617)" d="m0 0h1l1 6v9l-4 2 1-14z" fill="#4C4C51"/>
<path transform="translate(449,575)" d="m0 0 4 1-2 5-6 2-2-1v-3l5-3z" fill="#F89F4A"/>
<path transform="translate(970,518)" d="m0 0h1l1 7h-7l-3-1v-3l8-1z" fill="#5F636E"/>
<path transform="translate(723,175)" d="m0 0 2 3 1 2v7l-2 4h-2z" fill="#FAFAFA"/>
<path transform="translate(1260,755)" d="m0 0 1 4h-17v-3l16 1z" fill="#F3F3EE"/>
<path transform="translate(975,596)" d="m0 0h9l-1 3-5 2-4 3z" fill="#3C3B41"/>
<path transform="translate(695,221)" d="m0 0 3 1-5 4-5 2-4-1 3-3z" fill="#FAFAFA"/>
<path transform="translate(669,169)" d="m0 0h2l-1 5-6 4h-2l1-4z" fill="#FAFAFA"/>
<path transform="translate(252,789)" d="m0 0 5 1 2 1-1 4-5 1-2-1z" fill="#38363C"/>
<path transform="translate(267,773)" d="m0 0h3v6l4-1-4 5h-4z" fill="#707975"/>
<path transform="translate(220,790)" d="m0 0 4 2 9 3v1l-10-1-1 5h-2z" fill="#6B6A6B"/>
<path transform="translate(705,536)" d="m0 0 3 3 3 7-1 4-4-8-3-1v-2l-2-1z" fill="#E9E9E9"/>
<path transform="translate(749,680)" d="m0 0h1v15l-5 1 1-4v-3l2-2z" fill="#3E3C42"/>
<path transform="translate(634,162)" d="m0 0 4 2 3 9h-3l-4-6z" fill="#FAFAFA"/>
<path transform="translate(636,94)" d="m0 0 3 4 3 9-5-3-2-5z" fill="#FAFAFA"/>
<path transform="translate(285,749)" d="m0 0 1 2-1 6-4 2h-4l2-4 5-5z" fill="#EBB276"/>
<path transform="translate(1394,737)" d="m0 0h6l-5 4-4 11h-1l1-9z" fill="#F3F3EE"/>
<path transform="translate(958,611)" d="m0 0 4 1v11l-2 1v-7l-6-4z" fill="#F3F3EE"/>
<path transform="translate(644,110)" d="m0 0 4 2 7 6v2l-5-2-5-5z" fill="#FAFAFA"/>
<path transform="translate(540,793)" d="m0 0h6l1 5-4 2-3-5z" fill="#2A293E"/>
<path transform="translate(1301,759)" d="m0 0 19 2v1h-21v-2z" fill="#F3F3EE"/>
<path transform="translate(476,588)" d="m0 0 3 2h-3l2 6v7l4 2h-5l-1-1-1-15z" fill="#FEB991"/>
<path transform="translate(516,745)" d="m0 0h4l-1 4-3 1-1 2-3-3 1-3z" fill="#313040"/>
<path transform="translate(502,706)" d="m0 0 3 1 1 4-1 3-6 2z" fill="#F3F3EF"/>
<path transform="translate(709,210)" d="m0 0h2l-2 5-3 3-5 1 1-3z" fill="#FAFAFA"/>
<path transform="translate(720,195)" d="m0 0 1 4-4 7h-3l1-4z" fill="#FAFAFA"/>
<path transform="translate(645,176)" d="m0 0 12 3v2l-4 1-7-3z" fill="#FAFAFA"/>
<path transform="translate(258,778)" d="m0 0 5 2 1 5-4 2 1-5-3 1-1-3z" fill="#36353C"/>
<path transform="translate(228,809)" d="m0 0h7l2 4v3l-5-2z" fill="#57596B"/>
<path transform="translate(282,772)" d="m0 0h4v13l-2 1-1-11z" fill="#2F2E43"/>
<path transform="translate(540,753)" d="m0 0 4 1 1 2 4 2-2 4-7-6z" fill="#2D2C3D"/>
<path transform="translate(579,738)" d="m0 0 2 4-4 4-4-1 1-3z" fill="#F3F3EE"/>
<path transform="translate(1417,656)" d="m0 0 4 1 2 6v5l-2-3-1-5-5-1-1-2z" fill="#F3F3EE"/>
<path transform="translate(474,550)" d="m0 0 3 1-1 7-3 1-1-7z" fill="#F3F3EE"/>
<path transform="translate(500,791)" d="m0 0 8 8v2l-4-1-4-4z" fill="#6A7073"/>
<path transform="translate(247,791)" d="m0 0 2 1-1 7 3-1v2h-4l-1-5-5 1 2-4z" fill="#6D6B6B"/>
<path transform="translate(1046,748)" d="m0 0 3 4 1 7-3 3-2-1 1-2z" fill="#5B5C6A"/>
<path transform="translate(740,563)" d="m0 0 2 4-1 6h-2l-2 2 1-8z" fill="#F89D47"/>
<path transform="translate(264,779)" d="m0 0h1v7l-4 3-3-1v-5l3-1-1 5 3-2v-5z" fill="#5C5D6A"/>
<path transform="translate(503,770)" d="m0 0 2 4v9l-2-4v-2h-8v-1h7z" fill="#57596B"/>
<path transform="translate(499,757)" d="m0 0 5 3h5v2h-2l-1 2-8-4z" fill="#6C6C6D"/>
<path transform="translate(293,719)" d="m0 0h1v7l-6 8-1-2 5-10z" fill="#FBA74D"/>
<path transform="translate(755,604)" d="m0 0 1 2-2 10-2 6h-1v-8z" fill="#F3F3EE"/>
<path transform="translate(621,54)" d="m0 0h3v2l-2 1h-6v2h-8l3-2z" fill="#F4F4F1"/>
<path transform="translate(652,730)" d="m0 0h4v2l-9 3v-2l-2-1z" fill="#F89F47"/>
<path transform="translate(741,563)" d="m0 0 2 2 1 6-3 5h-3v-5l1 2h2z" fill="#7C897F"/>
<path transform="translate(590,344)" d="m0 0 3 1 3 9h2v2l-4-1-2-5z" fill="#F3F3EE"/>
<path transform="translate(744,570)" d="m0 0h2l-1 6 1 2-6-1z" fill="#F29D4A"/>
<path transform="translate(1207,416)" d="m0 0 6 4 5 4-1 3-10-9z" fill="#8D978D"/>
<path transform="translate(642,237)" d="m0 0h2l3 9-1 2-5 1v-2l2-1z" fill="#F3F3EE"/>
<path transform="translate(676,154)" d="m0 0h1l-1 9-3 3-1-2z" fill="#FAFAFA"/>
<path transform="translate(640,148)" d="m0 0h2l-2 5-5 4 1-5z" fill="#FAFAFA"/>
<path transform="translate(1426,765)" d="m0 0 8 4 5 2-4 1-8-3z" fill="#F4F4F0"/>
<path transform="translate(437,729)" d="m0 0 4 1-1 6-5 1v-2l2-1z" fill="#F4F4F0"/>
<path transform="translate(275,646)" d="m0 0 2 3 2 4 6 1v1h-10z" fill="#F9E7DB"/>
<path transform="translate(1017,624)" d="m0 0v3l-2 4h-2v2l-4 1 2-4z" fill="#6E6A69"/>
<path transform="translate(676,228)" d="m0 0h5l-3 4h-8l4-3z" fill="#FAFAFA"/>
<path transform="translate(717,162)" d="m0 0 3 1 3 6v5l-3-4-3-5z" fill="#FAFAFA"/>
<path transform="translate(703,150)" d="m0 0 8 4 2 3-6-2-4-3z" fill="#FAFAFA"/>
<path transform="translate(686,145)" d="m0 0 9 1v3l-9-3z" fill="#FAFAFA"/>
<path transform="translate(636,78)" d="m0 0h1v9h-2z" fill="#FAFAFA"/>
<path transform="translate(1196,279)" d="m0 0" fill="#FAFAFA"/>
<path transform="translate(682,226)" d="m0 0 1 2-2-1z" fill="#FAFAFA"/>
<path transform="translate(713,206)" d="m0 0" fill="#FAFAFA"/>
<path transform="translate(721,194)" d="m0 0" fill="#FAFAFA"/>
<path transform="translate(644,175)" d="m0 0" fill="#FAFAFA"/>
</svg>
