<svg width="116.477" height="37.31" viewBox="0 0 116.477 37.31" xmlns="http://www.w3.org/2000/svg"><g id="svgGroup" stroke-linecap="round" fill-rule="evenodd" font-size="9pt" stroke="#080808e8" stroke-width="0.25mm" fill="#ffffff" style="stroke:#080808e8;stroke-width:0.25mm;fill:#ffffff"><path d="M 14.085 20.171 L 12.195 20.72 A 0.202 0.202 0 0 1 12.172 20.723 Q 12.034 20.734 11.504 20.655 A 10.992 10.992 0 0 0 11.503 20.654 A 0.682 0.682 0 0 1 11.196 20.535 Q 10.921 20.333 10.921 19.819 Q 10.921 19.015 11.144 18.619 A 0.831 0.831 0 0 1 11.305 18.413 Q 11.605 18.139 11.885 17.998 A 1.602 1.602 0 0 1 12.041 17.93 Q 12.481 17.71 13.206 17.435 A 27.092 27.092 0 0 1 13.975 17.158 A 36.44 36.44 0 0 1 14.832 16.875 Q 15.653 13.35 16.326 10.507 A 1453.793 1453.793 0 0 1 16.348 10.415 Q 17.029 7.537 17.622 6.526 Q 18.635 5.016 19.798 4.171 A 6.337 6.337 0 0 1 20.149 3.933 A 5.089 5.089 0 0 1 19.918 3.928 A 6.723 6.723 0 0 1 19.666 3.911 A 6.303 6.303 0 0 0 19.282 3.891 A 5.502 5.502 0 0 0 19.16 3.889 A 20.042 20.042 0 0 0 14.731 4.369 A 18.49 18.49 0 0 0 14.129 4.515 A 20.711 20.711 0 0 0 11.601 5.345 A 16.51 16.51 0 0 0 9.866 6.163 Q 7.998 7.185 6.921 8.427 Q 5.845 9.668 5.845 10.898 A 3.603 3.603 0 0 0 6.328 12.685 A 4.712 4.712 0 0 0 6.669 13.206 A 4.675 4.675 0 0 0 7.501 14.047 Q 7.919 14.381 8.455 14.684 A 10.66 10.66 0 0 0 9.36 15.139 A 9.293 9.293 0 0 1 9.342 15.713 Q 9.317 16.105 9.262 16.556 A 15.069 15.069 0 0 1 9.149 17.317 A 11.011 11.011 0 0 1 9.009 17.996 Q 8.855 18.633 8.723 18.809 Q 5.076 17.314 3.428 15.249 A 8.509 8.509 0 0 1 2.396 13.63 A 5.955 5.955 0 0 1 1.78 11.03 A 7.158 7.158 0 0 1 3.036 7.002 A 9.538 9.538 0 0 1 3.757 6.053 Q 5.735 3.757 9.426 2.208 A 23.601 23.601 0 0 1 13.206 1.005 Q 15.528 0.463 18.259 0.242 A 81.401 81.401 0 0 1 21.568 0.073 A 92.587 92.587 0 0 1 22.72 0.044 A 252.847 252.847 0 0 1 27.488 0 A 217.587 217.587 0 0 1 29.847 0.012 A 189.365 189.365 0 0 1 30.597 0.022 Q 32.08 0.044 33.552 0.044 L 30.454 4.68 A 33.757 33.757 0 0 1 26.795 4.487 A 30.9 30.9 0 0 1 26.29 4.427 A 77.012 77.012 0 0 0 22.663 4.061 A 84.674 84.674 0 0 0 22.127 4.021 Q 21.511 7.141 20.995 10.129 Q 20.479 13.118 19.973 15.886 A 24.926 24.926 0 0 1 21.587 15.729 A 27.139 27.139 0 0 1 21.698 15.721 A 29.628 29.628 0 0 1 23.415 15.667 A 32.292 32.292 0 0 1 23.533 15.667 A 84.922 84.922 0 0 1 25.856 15.699 A 104.52 104.52 0 0 1 28.345 15.798 A 1.327 1.327 0 0 1 28.652 15.831 Q 29.158 15.951 29.158 16.523 A 2.04 2.04 0 0 1 29.043 17.177 Q 28.95 17.451 28.783 17.745 A 4.874 4.874 0 0 1 28.499 18.182 A 2.729 2.729 0 0 1 28.063 18.663 A 1.69 1.69 0 0 1 26.939 19.094 A 343.113 343.113 0 0 0 23.987 19.107 A 307.207 307.207 0 0 0 23.038 19.116 A 45.663 45.663 0 0 0 19.292 19.314 A 84.699 84.699 0 0 1 18.405 23.154 A 65.419 65.419 0 0 1 17.413 26.631 A 28.807 28.807 0 0 1 16.274 29.657 A 21.266 21.266 0 0 1 14.865 32.322 A 12.019 12.019 0 0 1 12.963 34.669 A 10.148 10.148 0 0 1 11.195 36.013 A 8.868 8.868 0 0 1 8.317 37.091 A 12.401 12.401 0 0 1 5.933 37.31 Q 3.911 37.31 2.593 36.486 A 6.297 6.297 0 0 1 1.507 35.638 A 4.898 4.898 0 0 1 0.637 34.497 A 5.819 5.819 0 0 1 0.225 33.569 Q 0.028 32.987 0.004 32.435 A 3.535 3.535 0 0 1 0 32.278 A 3.75 3.75 0 0 1 0.385 30.597 A 2.398 2.398 0 0 1 1.015 29.813 Q 1.287 29.587 1.645 29.401 A 4.486 4.486 0 0 1 1.78 29.334 Q 2.791 28.85 4.68 28.85 A 12.683 12.683 0 0 0 4.511 30.039 A 11.164 11.164 0 0 0 4.483 30.421 A 27.614 27.614 0 0 0 4.45 31.149 A 21.233 21.233 0 0 0 4.439 31.816 Q 4.439 33.223 4.933 34.135 A 1.785 1.785 0 0 0 5.866 34.945 Q 6.176 35.071 6.565 35.127 A 4.183 4.183 0 0 0 6.834 35.156 A 2.305 2.305 0 0 0 8.112 34.756 Q 8.458 34.53 8.787 34.177 A 5.211 5.211 0 0 0 9.042 33.882 A 10.356 10.356 0 0 0 9.837 32.727 Q 10.203 32.116 10.552 31.381 A 21.608 21.608 0 0 0 10.964 30.454 A 38.866 38.866 0 0 0 11.832 28.172 A 50.475 50.475 0 0 0 12.634 25.631 Q 13.403 22.961 14.085 20.171 Z M 67.105 33.354 L 62.908 33.354 A 12.376 12.376 0 0 1 62.944 32.663 Q 63.009 31.836 63.182 30.718 A 47.04 47.04 0 0 1 63.479 29.023 A 60.594 60.594 0 0 1 63.864 27.191 A 135.756 135.756 0 0 1 64.775 23.401 A 92.462 92.462 0 0 1 65.259 21.585 A 72.924 72.924 0 0 1 65.742 19.918 Q 66.175 18.493 66.519 17.587 A 16.729 16.729 0 0 1 66.599 17.38 A 3.516 3.516 0 0 1 66.897 16.765 Q 67.293 16.128 67.896 15.919 Q 68.699 15.641 69.753 15.624 A 8.598 8.598 0 0 1 69.895 15.623 L 71.367 15.623 L 71.115 16.501 A 380.157 380.157 0 0 1 70.98 16.968 Q 70.773 17.686 70.496 18.635 A 938.585 938.585 0 0 1 70.477 18.699 A 213.197 213.197 0 0 1 69.686 21.346 A 980.615 980.615 0 0 1 69.398 22.286 Q 69.286 22.654 69.185 22.982 A 479.036 479.036 0 0 1 68.994 23.599 A 17.518 17.518 0 0 1 69.654 22.477 Q 70.016 21.907 70.459 21.29 A 32.071 32.071 0 0 1 70.763 20.874 A 23.424 23.424 0 0 1 73.279 18.018 A 15.508 15.508 0 0 1 75.275 16.373 A 13.413 13.413 0 0 1 76.223 15.776 A 7.121 7.121 0 0 1 77.632 15.153 A 5.426 5.426 0 0 1 79.255 14.897 Q 81.409 14.897 81.409 17.468 Q 81.409 18.149 81.101 19.336 A 35.955 35.955 0 0 1 80.755 20.575 A 47.188 47.188 0 0 1 80.332 21.918 A 171.411 171.411 0 0 1 79.398 24.664 Q 78.926 26.016 78.618 27.037 A 15.755 15.755 0 0 0 78.491 27.482 Q 78.324 28.103 78.312 28.409 A 1.158 1.158 0 0 0 78.311 28.455 A 0.878 0.878 0 0 0 78.321 28.594 Q 78.36 28.838 78.555 28.85 A 0.333 0.333 0 0 0 78.574 28.85 Q 78.813 28.85 79.19 28.635 A 3.701 3.701 0 0 0 79.343 28.542 A 3.252 3.252 0 0 0 79.505 28.422 Q 79.794 28.193 80.31 27.719 A 82.316 82.316 0 0 0 81.027 27.051 A 112.823 112.823 0 0 0 81.815 26.301 Q 82.639 25.51 83.375 24.807 A 49.022 49.022 0 0 1 83.722 24.479 Q 84.058 24.165 84.303 23.949 A 10.608 10.608 0 0 1 84.507 23.774 L 84.507 26.235 A 63.441 63.441 0 0 1 84.216 26.524 Q 83.887 26.849 83.442 27.281 A 237.882 237.882 0 0 1 83.013 27.697 A 99.285 99.285 0 0 1 81.991 28.669 A 130.047 130.047 0 0 1 80.859 29.718 A 58.504 58.504 0 0 1 78.571 31.712 A 53.828 53.828 0 0 1 78.497 31.772 A 28.628 28.628 0 0 1 77.507 32.553 Q 76.894 33.013 76.344 33.365 Q 75.366 33.992 74.839 33.992 Q 73.879 33.992 73.508 33.573 A 0.859 0.859 0 0 1 73.389 33.398 A 3.309 3.309 0 0 1 73.207 32.986 Q 73.128 32.764 73.099 32.56 A 1.663 1.663 0 0 1 73.081 32.322 A 13.326 13.326 0 0 1 73.516 28.987 A 14.881 14.881 0 0 1 73.576 28.762 Q 74.07 26.96 74.729 25.313 A 139.951 139.951 0 0 0 75.343 23.753 Q 75.629 23.011 75.875 22.345 A 88.235 88.235 0 0 0 75.883 22.324 A 11.706 11.706 0 0 0 76.133 21.575 Q 76.377 20.743 76.377 20.171 A 1.996 1.996 0 0 0 76.349 19.823 Q 76.291 19.495 76.113 19.281 A 1.071 1.071 0 0 0 75.935 19.108 Q 75.743 18.962 75.52 18.962 A 2.279 2.279 0 0 0 74.506 19.213 Q 74.163 19.382 73.818 19.665 A 5.453 5.453 0 0 0 73.345 20.105 A 11.702 11.702 0 0 0 72.398 21.231 Q 71.799 22.036 71.224 23.049 A 36.638 36.638 0 0 0 69.357 26.851 Q 68.511 28.85 67.929 30.597 A 63.36 63.36 0 0 0 67.659 31.424 Q 67.373 32.322 67.2 32.976 A 16.394 16.394 0 0 0 67.105 33.354 Z M 31.201 26.719 L 31.201 24.17 L 35.662 19.138 A 13.013 13.013 0 0 1 34.637 18.846 Q 33.659 18.519 33.108 18.112 A 2.258 2.258 0 0 1 32.717 17.754 Q 32.105 17.026 32.026 16.666 A 0.463 0.463 0 0 1 32.014 16.567 A 3.655 3.655 0 0 1 32.726 14.41 A 4.968 4.968 0 0 1 33.135 13.909 A 3.661 3.661 0 0 1 35.074 12.824 A 5.513 5.513 0 0 1 36.277 12.7 Q 37.206 12.7 37.262 13.729 A 2.505 2.505 0 0 1 37.266 13.865 A 2.562 2.562 0 0 1 37.197 14.434 Q 37.139 14.691 37.03 14.971 A 5.279 5.279 0 0 1 36.881 15.315 A 3.4 3.4 0 0 1 36.598 15.809 Q 36.303 16.232 35.925 16.436 A 2.843 2.843 0 0 0 36.712 16.922 A 3.938 3.938 0 0 0 37.409 17.139 A 8.657 8.657 0 0 0 38.613 17.309 A 10.765 10.765 0 0 0 39.397 17.336 Q 39.737 17.336 40.205 17.267 A 11.07 11.07 0 0 0 40.693 17.183 A 10.265 10.265 0 0 1 41.242 17.09 Q 41.492 17.056 41.711 17.041 A 4.692 4.692 0 0 1 42.034 17.029 Q 42.671 17.029 42.671 17.336 A 1.131 1.131 0 0 1 42.668 17.428 Q 42.659 17.537 42.627 17.6 A 28.06 28.06 0 0 1 42.404 18.117 Q 42.148 18.696 41.783 19.465 A 104.774 104.774 0 0 1 41.43 20.204 Q 40.628 21.863 39.76 23.73 A 56.361 56.361 0 0 0 38.958 25.535 A 43.187 43.187 0 0 0 38.287 27.213 A 16.43 16.43 0 0 0 38.023 27.972 Q 37.683 29.037 37.683 29.663 A 1.231 1.231 0 0 0 37.771 30.125 A 0.324 0.324 0 0 0 37.998 30.326 Q 38.063 30.344 38.145 30.344 A 0.484 0.484 0 0 0 38.312 30.305 Q 38.583 30.201 39.093 29.814 A 13.379 13.379 0 0 0 39.452 29.531 A 38.765 38.765 0 0 0 40.375 28.755 Q 41 28.214 41.704 27.565 A 108.351 108.351 0 0 0 43.509 25.865 A 95.787 95.787 0 0 0 44.077 25.313 A 174.648 174.648 0 0 0 44.6 24.798 Q 45.33 24.077 45.725 23.665 L 45.725 26.169 A 35.713 35.713 0 0 1 42.99 29.037 A 37.377 37.377 0 0 1 40.765 30.975 A 32.613 32.613 0 0 1 40.023 31.553 Q 38.697 32.555 37.537 33.188 A 13.7 13.7 0 0 1 37.266 33.333 Q 36.107 33.932 35.312 33.986 A 2.275 2.275 0 0 1 35.156 33.992 A 1.77 1.77 0 0 1 34.515 33.881 Q 34.063 33.707 33.782 33.257 A 2.106 2.106 0 0 1 33.673 33.058 A 4.424 4.424 0 0 1 33.223 31.113 A 2.976 2.976 0 0 1 33.258 30.685 Q 33.325 30.236 33.514 29.596 A 17.442 17.442 0 0 1 33.728 28.927 A 48.812 48.812 0 0 1 34.286 27.381 A 63.978 63.978 0 0 1 34.948 25.708 Q 35.662 23.972 36.31 22.5 A 267.616 267.616 0 0 0 36.61 21.816 Q 37.024 20.869 37.222 20.391 Q 36.233 21.489 35.541 22.192 A 120.52 120.52 0 0 1 34.873 22.865 A 93.24 93.24 0 0 1 34.255 23.478 A 49.564 49.564 0 0 0 33.635 24.099 A 67.121 67.121 0 0 0 32.959 24.796 A 44.542 44.542 0 0 0 32.586 25.192 Q 32.076 25.739 31.42 26.473 A 130.378 130.378 0 0 0 31.201 26.719 Z M 116.477 23.73 L 116.477 26.147 Q 113.445 29.707 110.424 31.871 Q 107.402 34.036 104.172 34.036 A 6.497 6.497 0 0 1 102.26 33.767 A 5.086 5.086 0 0 1 99.932 32.278 A 6.029 6.029 0 0 1 98.504 29.352 A 8.577 8.577 0 0 1 98.35 27.686 A 14.327 14.327 0 0 1 99.13 23.027 A 13.889 13.889 0 0 1 101.349 18.907 A 11.128 11.128 0 0 1 104.766 15.985 A 8.88 8.88 0 0 1 108.952 14.899 A 10.442 10.442 0 0 1 109.138 14.897 A 9.27 9.27 0 0 1 110.842 15.046 Q 111.931 15.25 112.808 15.732 Q 114.296 16.552 114.323 18.684 A 6.26 6.26 0 0 1 114.324 18.765 A 5.445 5.445 0 0 1 113.368 21.874 A 7.184 7.184 0 0 1 110.918 24.137 A 6.325 6.325 0 0 1 107.754 24.983 Q 106.831 24.983 105.722 24.434 A 4.414 4.414 0 0 1 104.53 23.556 A 6.176 6.176 0 0 1 103.777 22.61 A 10.057 10.057 0 0 0 103.054 24.626 A 8.012 8.012 0 0 0 102.832 26.477 A 9.688 9.688 0 0 0 102.983 28.212 A 8.43 8.43 0 0 0 103.151 28.949 A 4.119 4.119 0 0 0 103.647 30.083 A 3.586 3.586 0 0 0 104.282 30.828 Q 105.028 31.493 106.292 31.548 A 5.336 5.336 0 0 0 106.524 31.553 A 3.083 3.083 0 0 0 107.438 31.404 Q 108.094 31.2 108.831 30.718 Q 110.105 29.883 111.467 28.619 A 80.488 80.488 0 0 0 114.126 26.038 A 100.404 100.404 0 0 1 115.214 24.947 Q 115.884 24.287 116.477 23.73 Z M 100.173 23.643 L 100.173 26.104 A 17.917 17.917 0 0 1 98.724 27.81 A 22.513 22.513 0 0 1 97.537 28.96 A 24.705 24.705 0 0 1 94.186 31.498 A 19.999 19.999 0 0 1 91.361 32.991 A 17.866 17.866 0 0 1 90.56 33.311 A 11.469 11.469 0 0 1 88.772 33.821 A 8.82 8.82 0 0 1 87.078 33.992 A 6.726 6.726 0 0 1 85.627 33.845 Q 84.697 33.64 84.019 33.145 A 3.685 3.685 0 0 1 83.211 32.333 A 6.228 6.228 0 0 1 82.109 29.636 A 8.339 8.339 0 0 1 82.002 28.279 A 12.151 12.151 0 0 1 82.316 25.591 A 15.563 15.563 0 0 1 82.826 23.84 A 16.423 16.423 0 0 1 85.166 19.479 A 12.958 12.958 0 0 1 88.737 16.172 A 8.4 8.4 0 0 1 93.252 14.897 A 8.316 8.316 0 0 1 93.948 14.929 Q 94.298 14.958 94.689 15.015 A 15.767 15.767 0 0 1 95.054 15.073 A 4.37 4.37 0 0 1 96.242 15.447 A 3.87 3.87 0 0 1 96.856 15.82 Q 97.609 16.38 97.624 17.551 A 3.735 3.735 0 0 1 97.625 17.6 A 1.875 1.875 0 0 1 96.994 19.018 A 2.677 2.677 0 0 1 96.801 19.182 Q 95.977 19.819 94.724 19.819 A 0.815 0.815 0 0 1 94.088 19.533 A 1.147 1.147 0 0 1 93.988 19.402 A 7.563 7.563 0 0 1 93.718 18.956 Q 93.578 18.709 93.439 18.424 A 3.645 3.645 0 0 0 92.798 17.499 A 3.453 3.453 0 0 0 92.747 17.446 A 1.371 1.371 0 0 0 92.097 17.088 Q 91.879 17.033 91.621 17.029 A 2.629 2.629 0 0 0 91.582 17.029 A 2.388 2.388 0 0 0 90.308 17.406 A 3.495 3.495 0 0 0 89.725 17.864 A 6.682 6.682 0 0 0 88.862 18.89 A 9.198 9.198 0 0 0 88.198 20.028 A 12.968 12.968 0 0 0 87.297 22.436 A 14.701 14.701 0 0 0 87.177 22.917 A 13.93 13.93 0 0 0 86.849 25.011 A 12.049 12.049 0 0 0 86.814 25.928 Q 86.814 27.562 87.357 28.754 A 4.962 4.962 0 0 0 87.473 28.993 A 2.358 2.358 0 0 0 88.15 29.811 Q 88.607 30.151 89.24 30.231 A 3.243 3.243 0 0 0 89.649 30.256 A 6.936 6.936 0 0 0 91.621 29.949 Q 93.085 29.515 94.746 28.466 A 21.772 21.772 0 0 0 97.943 25.98 A 28.432 28.432 0 0 0 100.173 23.643 Z M 66.379 23.357 L 66.379 25.884 A 14.056 14.056 0 0 1 66.004 26.317 Q 65.605 26.761 65.041 27.331 A 48.41 48.41 0 0 1 64.852 27.521 Q 63.853 28.521 62.6 29.641 Q 61.348 30.762 60.084 31.75 Q 58.954 32.635 57.965 33.229 A 14.503 14.503 0 0 1 57.733 33.365 A 7.654 7.654 0 0 1 57.186 33.654 Q 56.631 33.916 56.216 33.975 A 1.637 1.637 0 0 1 55.986 33.992 A 1.677 1.677 0 0 1 55.456 33.913 Q 54.897 33.728 54.657 33.102 A 5.132 5.132 0 0 1 54.357 31.844 A 6.449 6.449 0 0 1 54.317 31.113 A 11.591 11.591 0 0 1 54.371 29.982 Q 54.426 29.421 54.492 28.982 Q 53.591 30.146 52.339 31.311 A 12.175 12.175 0 0 1 49.614 33.234 Q 48.142 33.992 46.582 33.992 A 3.315 3.315 0 0 1 45.707 33.883 A 2.34 2.34 0 0 1 44.462 33.069 A 4.913 4.913 0 0 1 43.623 31.474 A 6.052 6.052 0 0 1 43.462 30.85 A 13.518 13.518 0 0 1 43.249 29.44 A 10.846 10.846 0 0 1 43.198 28.411 A 10.796 10.796 0 0 1 44.02 24.326 A 12.841 12.841 0 0 1 44.352 23.577 A 15.298 15.298 0 0 1 47.339 19.4 A 17.299 17.299 0 0 1 47.527 19.215 Q 49.548 17.249 52.174 16.073 A 13.425 13.425 0 0 1 57.722 14.897 A 8.36 8.36 0 0 1 59.115 15.01 A 7.344 7.344 0 0 1 59.59 15.106 Q 60.469 15.315 61.414 15.623 A 4.605 4.605 0 0 1 61.389 15.753 Q 61.326 16.075 61.139 16.895 A 163.046 163.046 0 0 1 61.106 17.04 A 235.056 235.056 0 0 0 60.896 17.968 Q 60.803 18.382 60.702 18.839 A 445.445 445.445 0 0 0 60.491 19.797 A 277.821 277.821 0 0 0 59.799 23.049 A 125.697 125.697 0 0 0 59.504 24.519 Q 59.369 25.211 59.259 25.83 A 73.757 73.757 0 0 0 59.227 26.005 A 29.27 29.27 0 0 0 59.126 26.611 Q 59 27.431 58.997 27.843 A 2.711 2.711 0 0 0 58.997 27.861 A 4.531 4.531 0 0 0 59.018 28.321 Q 59.065 28.781 59.217 29.018 A 0.497 0.497 0 0 0 59.656 29.268 A 1.232 1.232 0 0 0 60.04 29.198 Q 60.405 29.077 60.881 28.746 A 7.568 7.568 0 0 0 61.271 28.455 A 18.871 18.871 0 0 0 62.079 27.771 Q 62.433 27.455 62.816 27.087 A 38.449 38.449 0 0 0 63.611 26.301 A 86.783 86.783 0 0 0 64.962 24.895 A 107.031 107.031 0 0 0 66.379 23.357 Z M 54.756 27.378 L 57.283 16.567 A 6.872 6.872 0 0 0 53.904 17.466 A 8.142 8.142 0 0 0 53.745 17.556 A 11.273 11.273 0 0 0 50.776 20.088 A 12.67 12.67 0 0 0 50.735 20.138 A 13.479 13.479 0 0 0 48.648 23.588 Q 47.879 25.444 47.879 27.18 A 5.913 5.913 0 0 0 48.012 28.46 A 4.831 4.831 0 0 0 48.351 29.465 Q 48.823 30.476 50.032 30.476 A 2.234 2.234 0 0 0 50.616 30.393 Q 50.883 30.32 51.173 30.185 A 5.061 5.061 0 0 0 51.581 29.971 A 11.511 11.511 0 0 0 52.769 29.172 A 13.64 13.64 0 0 0 53.306 28.74 Q 54.072 28.092 54.628 27.513 A 11.902 11.902 0 0 0 54.756 27.378 Z M 108.106 23.093 Q 109.402 23.093 110.325 21.819 A 4.688 4.688 0 0 0 111.248 19.006 Q 111.248 17.947 110.854 17.469 A 1.059 1.059 0 0 0 110.698 17.314 A 1.861 1.861 0 0 0 110.051 16.987 Q 109.789 16.91 109.476 16.886 A 3.843 3.843 0 0 0 109.182 16.875 A 3.687 3.687 0 0 0 106.897 17.622 A 7.046 7.046 0 0 0 105.64 18.832 A 6.331 6.331 0 0 0 105.282 19.325 Q 104.684 20.237 104.437 20.879 A 3.961 3.961 0 0 0 104.414 20.94 A 6.481 6.481 0 0 0 105.401 21.985 A 5.48 5.48 0 0 0 106.161 22.522 A 4.432 4.432 0 0 0 107.075 22.932 A 3.443 3.443 0 0 0 108.106 23.093 Z" vector-effect="non-scaling-stroke"/></g></svg>