<svg width="170.938" height="80.586" viewBox="0 0 170.938 80.586" xmlns="http://www.w3.org/2000/svg"><g id="svgGroup" stroke-linecap="round" fill-rule="evenodd" font-size="9pt" stroke="#080808e8" stroke-width="0.25mm" fill="#ffffff" style="stroke:#080808e8;stroke-width:0.25mm;fill:#ffffff"><path d="M 10.703 59.219 L 2.656 59.219 A 26.487 26.487 0 0 1 2.783 56.729 Q 2.993 54.507 3.555 51.797 A 137.678 137.678 0 0 1 4.58 47.256 A 182.501 182.501 0 0 1 5.859 42.305 Q 7.266 37.149 8.809 31.563 A 227.267 227.267 0 0 0 11.602 20.352 L 14.805 7.93 L 2.227 16.836 L 1.055 17.227 A 0.946 0.946 0 0 1 0.696 17.163 Q 0.361 17.027 0.215 16.602 A 3.978 3.978 0 0 1 0.017 15.643 A 4.808 4.808 0 0 1 0 15.235 A 1.9 1.9 0 0 1 0.083 14.688 A 2.371 2.371 0 0 1 0.176 14.434 Q 0.352 14.024 0.977 13.633 L 17.773 3.047 A 23.155 23.155 0 0 1 18.142 2.814 Q 18.56 2.555 19.134 2.217 A 89.256 89.256 0 0 1 19.688 1.895 A 26.595 26.595 0 0 1 22.266 0.586 Q 23.443 0.067 24.222 0.008 A 2.553 2.553 0 0 1 24.414 0 A 1.188 1.188 0 0 1 24.718 0.036 Q 25.107 0.139 25.179 0.542 A 1.137 1.137 0 0 1 25.195 0.742 Q 25.195 1.713 24.984 3.037 A 28.689 28.689 0 0 1 24.727 4.414 A 112.233 112.233 0 0 1 23.672 8.945 A 592.84 592.84 0 0 1 23.182 10.861 Q 22.956 11.736 22.751 12.517 A 339.193 339.193 0 0 1 22.617 13.027 A 35.661 35.661 0 0 0 22.435 13.748 Q 22.148 14.933 22.148 15.391 L 21.523 18.594 A 112.127 112.127 0 0 1 25.564 14.037 Q 27.529 11.946 29.358 10.261 A 51.234 51.234 0 0 1 31.797 8.145 A 65.903 65.903 0 0 1 34.866 5.793 Q 36.401 4.691 37.799 3.85 A 28.552 28.552 0 0 1 40.02 2.637 A 39.265 39.265 0 0 1 42.143 1.676 Q 44.357 0.758 46.035 0.449 Q 47.97 0.093 49.132 0.02 A 8.818 8.818 0 0 1 49.688 0 A 4.789 4.789 0 0 1 50.615 0.084 Q 51.137 0.187 51.532 0.418 A 2.196 2.196 0 0 1 52.227 1.055 Q 52.969 2.11 52.969 3.633 A 5.865 5.865 0 0 1 52.937 4.176 Q 52.825 5.342 52.314 7.961 A 126.239 126.239 0 0 1 52.305 8.008 Q 51.848 10.344 51.253 13.373 A 9198.269 9198.269 0 0 1 50.684 16.27 Q 49.727 21.133 48.77 26.543 A 247.402 247.402 0 0 0 47.499 34.45 A 219.988 219.988 0 0 0 47.148 36.992 A 91.39 91.39 0 0 0 46.744 40.579 Q 46.582 42.347 46.521 43.907 A 46.17 46.17 0 0 0 46.484 45.703 A 31.634 31.634 0 0 0 46.623 48.621 A 35.362 35.362 0 0 0 46.68 49.18 Q 46.846 50.71 47.296 51.844 A 6.869 6.869 0 0 0 47.461 52.227 A 2.856 2.856 0 0 0 47.828 52.824 A 1.671 1.671 0 0 0 49.18 53.477 A 2.266 2.266 0 0 0 49.701 53.411 Q 49.944 53.354 50.212 53.246 A 5.295 5.295 0 0 0 50.645 53.047 Q 51.255 52.735 51.937 52.113 A 11.073 11.073 0 0 0 52.461 51.602 L 62.461 42.031 L 62.383 46.328 Q 62.237 46.474 61.578 47.151 A 724.78 724.78 0 0 0 61.484 47.246 A 752.346 752.346 0 0 1 60.746 48.003 Q 60.303 48.457 59.805 48.965 A 1214.001 1214.001 0 0 0 58.911 49.878 A 892.92 892.92 0 0 0 58.105 50.703 A 61.246 61.246 0 0 1 57.838 50.976 Q 57.3 51.521 57.109 51.68 A 115.223 115.223 0 0 1 56.536 52.207 Q 55.605 53.057 54.258 54.258 A 93.564 93.564 0 0 1 51.471 56.642 A 108.201 108.201 0 0 1 50.391 57.52 A 36.396 36.396 0 0 1 48.099 59.22 A 28.544 28.544 0 0 1 46.367 60.313 Q 44.414 61.445 43.047 61.445 A 4.108 4.108 0 0 1 41.706 61.236 A 3.442 3.442 0 0 1 40.176 60.176 A 7.245 7.245 0 0 1 39.14 58.531 A 9.86 9.86 0 0 1 38.574 56.953 A 22.81 22.81 0 0 1 37.877 52.938 A 24.93 24.93 0 0 1 37.871 52.871 A 54.958 54.958 0 0 1 37.739 50.835 A 41.035 41.035 0 0 1 37.695 48.985 A 132.744 132.744 0 0 1 39.063 30.117 Q 40.43 20.586 43.047 12.266 A 7.805 7.805 0 0 0 43.339 11.286 Q 43.455 10.767 43.473 10.292 A 4.561 4.561 0 0 0 43.477 10.117 A 3.795 3.795 0 0 0 43.402 9.347 Q 43.297 8.84 43.044 8.444 A 2.404 2.404 0 0 0 43.027 8.418 A 1.478 1.478 0 0 0 42.476 7.906 Q 42.2 7.761 41.851 7.739 A 2.045 2.045 0 0 0 41.719 7.735 A 1.941 1.941 0 0 0 41.342 7.775 Q 40.945 7.854 40.43 8.086 A 42.721 42.721 0 0 0 28.965 16.602 A 56.805 56.805 0 0 0 20.176 28.457 A 62.057 62.057 0 0 0 14.57 41.953 A 89.715 89.715 0 0 0 13.809 44.849 A 111.785 111.785 0 0 0 13.086 47.988 A 332.125 332.125 0 0 0 12.097 52.738 A 291.996 291.996 0 0 0 11.797 54.258 A 131.708 131.708 0 0 1 11.509 55.696 Q 11.084 57.754 10.703 59.219 Z M 86.094 67.774 L 96.914 59.453 L 98.164 52.813 Q 95.776 54.938 93.819 56.368 A 30.071 30.071 0 0 1 92.012 57.598 A 25.22 25.22 0 0 1 90.138 58.665 Q 88.638 59.431 87.344 59.785 A 15.63 15.63 0 0 1 83.203 60.352 A 4.081 4.081 0 0 1 81.531 60.015 A 3.946 3.946 0 0 1 80.313 59.16 A 7.183 7.183 0 0 1 78.969 57.227 A 9.058 9.058 0 0 1 78.535 56.152 A 11.486 11.486 0 0 1 77.93 52.5 A 26.04 26.04 0 0 1 78.831 45.817 A 31.053 31.053 0 0 1 79.531 43.535 Q 81.133 38.945 84.063 35.059 Q 86.992 31.172 91.016 28.789 A 17.008 17.008 0 0 1 99.844 26.406 A 27.6 27.6 0 0 1 101.795 26.481 Q 102.881 26.558 104.113 26.716 A 56.248 56.248 0 0 1 105.645 26.934 A 259.705 259.705 0 0 1 108.055 27.321 Q 109.008 27.479 109.875 27.631 A 144.956 144.956 0 0 1 111.523 27.93 L 105.547 53.203 A 1425.087 1425.087 0 0 0 107.305 51.554 Q 108 50.901 108.635 50.302 A 808.398 808.398 0 0 0 109.844 49.16 A 180.6 180.6 0 0 0 113.379 45.723 A 69.491 69.491 0 0 0 115.132 43.902 A 92.413 92.413 0 0 0 116.992 41.836 L 116.992 46.367 Q 114.102 49.57 110.957 52.559 Q 107.813 55.547 104.727 58.32 Q 103.516 65.195 100.625 70.195 A 32.426 32.426 0 0 1 98.167 73.878 Q 96.29 76.29 94.18 77.891 Q 91.542 79.891 89.076 80.407 A 8.252 8.252 0 0 1 87.383 80.586 Q 85.742 80.586 84.043 79.981 A 7.203 7.203 0 0 1 81.396 78.354 A 7.055 7.055 0 0 1 81.172 78.125 Q 80 76.875 80 74.961 A 4.603 4.603 0 0 1 81.191 71.872 A 6.66 6.66 0 0 1 81.875 71.192 A 81.314 81.314 0 0 1 83.867 69.527 A 105.727 105.727 0 0 1 86.094 67.774 Z M 145.117 47.422 L 145.117 42.891 L 153.047 33.945 A 23.134 23.134 0 0 1 151.226 33.425 Q 148.75 32.598 147.813 31.485 Q 146.563 30 146.563 29.375 A 6.498 6.498 0 0 1 147.828 25.539 A 8.833 8.833 0 0 1 148.555 24.649 A 6.508 6.508 0 0 1 152.003 22.721 A 9.801 9.801 0 0 1 154.141 22.5 Q 155.898 22.5 155.898 24.57 Q 155.898 25.703 155.215 27.149 A 6.044 6.044 0 0 1 154.712 28.027 Q 154.4 28.474 154.037 28.783 A 2.998 2.998 0 0 1 153.516 29.141 A 5.054 5.054 0 0 0 154.914 30.006 A 7 7 0 0 0 156.152 30.391 A 15.391 15.391 0 0 0 158.293 30.693 A 19.137 19.137 0 0 0 159.688 30.742 A 7.812 7.812 0 0 0 160.365 30.71 Q 160.717 30.679 161.124 30.619 A 19.681 19.681 0 0 0 161.992 30.469 A 18.249 18.249 0 0 1 162.967 30.305 Q 163.411 30.243 163.801 30.216 A 8.341 8.341 0 0 1 164.375 30.195 A 3.545 3.545 0 0 1 164.746 30.213 Q 165.122 30.253 165.313 30.383 A 0.414 0.414 0 0 1 165.508 30.742 Q 165.508 31.019 165.446 31.174 A 0.484 0.484 0 0 1 165.43 31.211 Q 164.891 32.497 163.929 34.527 A 186.258 186.258 0 0 1 163.301 35.84 A 417.864 417.864 0 0 0 161.846 38.882 A 493.713 493.713 0 0 0 160.332 42.11 A 100.197 100.197 0 0 0 158.906 45.318 A 76.777 76.777 0 0 0 157.715 48.301 A 29.21 29.21 0 0 0 157.245 49.65 Q 156.81 51.012 156.688 51.971 A 5.466 5.466 0 0 0 156.641 52.656 Q 156.641 53.086 156.797 53.477 A 0.576 0.576 0 0 0 157.2 53.836 Q 157.309 53.865 157.443 53.867 A 1.297 1.297 0 0 0 157.461 53.867 A 0.861 0.861 0 0 0 157.759 53.798 Q 158.24 53.612 159.147 52.924 A 23.785 23.785 0 0 0 159.785 52.422 A 68.915 68.915 0 0 0 161.426 51.041 Q 162.537 50.079 163.789 48.926 A 192.624 192.624 0 0 0 166.997 45.905 A 170.278 170.278 0 0 0 168.008 44.922 A 310.463 310.463 0 0 0 168.938 44.006 Q 170.219 42.74 170.921 42.01 A 45.031 45.031 0 0 0 170.938 41.992 L 170.938 46.445 Q 168.711 49.063 166.074 51.543 A 66.449 66.449 0 0 1 162.119 54.989 A 57.979 57.979 0 0 1 160.801 56.016 A 43.189 43.189 0 0 1 158.565 57.602 Q 157.434 58.348 156.38 58.924 A 24.356 24.356 0 0 1 155.898 59.18 Q 153.839 60.245 152.425 60.342 A 4.045 4.045 0 0 1 152.148 60.352 A 3.147 3.147 0 0 1 151.009 60.156 Q 150.204 59.845 149.706 59.045 A 3.744 3.744 0 0 1 149.512 58.692 A 7.865 7.865 0 0 1 148.711 55.235 A 5.291 5.291 0 0 1 148.774 54.473 Q 148.95 53.284 149.609 51.348 A 86.778 86.778 0 0 1 150.601 48.599 A 113.741 113.741 0 0 1 151.777 45.625 Q 153.047 42.539 154.199 39.922 A 475.797 475.797 0 0 0 154.733 38.706 Q 155.469 37.022 155.82 36.172 A 154.978 154.978 0 0 1 154.974 37.105 Q 153.794 38.395 152.892 39.314 A 53.279 53.279 0 0 1 152.832 39.375 Q 151.602 40.625 150.547 41.66 A 88.114 88.114 0 0 0 149.443 42.764 A 119.332 119.332 0 0 0 148.242 44.004 Q 146.992 45.313 145.117 47.422 Z M 145.859 42.11 L 145.859 46.406 A 74.561 74.561 0 0 1 141.146 51.469 Q 138.497 54.049 135.853 56.029 A 44.573 44.573 0 0 1 135.098 56.582 A 21.796 21.796 0 0 1 130.154 59.279 A 17.244 17.244 0 0 1 123.984 60.43 A 11.55 11.55 0 0 1 120.584 59.953 A 9.041 9.041 0 0 1 116.445 57.305 A 10.719 10.719 0 0 1 113.907 52.103 A 15.248 15.248 0 0 1 113.633 49.141 A 25.471 25.471 0 0 1 115.02 40.86 A 24.691 24.691 0 0 1 118.965 33.535 A 19.784 19.784 0 0 1 125.039 28.34 A 15.787 15.787 0 0 1 132.481 26.409 A 18.563 18.563 0 0 1 132.813 26.406 A 16.481 16.481 0 0 1 135.841 26.671 Q 137.687 27.016 139.189 27.811 A 10.293 10.293 0 0 1 139.336 27.891 A 4.938 4.938 0 0 1 141.794 31.176 Q 142.016 32.063 142.03 33.137 A 11.128 11.128 0 0 1 142.031 33.281 A 9.679 9.679 0 0 1 140.332 38.809 A 12.772 12.772 0 0 1 135.977 42.832 A 11.244 11.244 0 0 1 130.352 44.336 A 6.523 6.523 0 0 1 128.741 44.122 Q 128.027 43.94 127.26 43.603 A 12.454 12.454 0 0 1 126.738 43.36 A 7.848 7.848 0 0 1 124.621 41.8 A 10.979 10.979 0 0 1 123.281 40.117 A 17.879 17.879 0 0 0 121.996 43.701 A 14.243 14.243 0 0 0 121.602 46.992 A 17.224 17.224 0 0 0 121.869 50.077 A 14.987 14.987 0 0 0 122.168 51.387 A 7.323 7.323 0 0 0 123.05 53.402 A 6.374 6.374 0 0 0 124.18 54.727 A 4.822 4.822 0 0 0 126.144 55.767 Q 126.879 55.969 127.753 56.007 A 9.486 9.486 0 0 0 128.164 56.016 A 5.481 5.481 0 0 0 129.79 55.752 Q 130.482 55.537 131.225 55.147 A 12.508 12.508 0 0 0 132.266 54.531 A 30.956 30.956 0 0 0 134.57 52.857 A 41.717 41.717 0 0 0 136.953 50.801 Q 139.375 48.555 141.68 46.211 Q 143.66 44.197 145.324 42.615 A 104.8 104.8 0 0 1 145.859 42.11 Z M 80.234 42.11 L 80.234 46.485 A 433.006 433.006 0 0 1 77.087 49.546 Q 72.598 53.867 69.492 56.563 Q 66.836 58.868 64.405 59.775 A 8.955 8.955 0 0 1 61.758 60.352 Q 60.042 60.352 59.242 58.961 A 3.701 3.701 0 0 1 59.102 58.692 A 8.027 8.027 0 0 1 58.32 55.235 A 10.259 10.259 0 0 1 58.356 54.434 Q 58.447 53.287 58.77 51.504 A 106.067 106.067 0 0 1 59.277 48.897 A 142.168 142.168 0 0 1 59.902 46.035 A 219.293 219.293 0 0 1 61.348 40.098 Q 62.109 37.149 62.754 34.902 Q 63.347 32.835 63.692 31.942 A 8.074 8.074 0 0 1 63.75 31.797 Q 64.57 29.688 65.762 28.848 A 5.493 5.493 0 0 1 67.802 27.973 A 6.915 6.915 0 0 1 68.594 27.852 A 32.231 32.231 0 0 1 70.126 27.745 Q 70.912 27.708 71.789 27.699 A 56.182 56.182 0 0 1 72.383 27.695 A 179.425 179.425 0 0 1 72.166 28.428 Q 71.807 29.629 71.25 31.445 A 352.739 352.739 0 0 0 70.479 33.999 A 470.82 470.82 0 0 0 69.648 36.817 Q 68.789 39.766 68.008 42.676 Q 67.227 45.586 66.719 47.93 Q 66.316 49.787 66.233 50.908 A 7.278 7.278 0 0 0 66.211 51.445 A 3.323 3.323 0 0 0 66.231 51.79 Q 66.27 52.164 66.387 52.679 A 14.547 14.547 0 0 0 66.465 53.008 A 1.971 1.971 0 0 0 66.623 53.44 Q 66.916 54.003 67.533 54.023 A 1.415 1.415 0 0 0 67.578 54.024 Q 68.047 54.024 69.707 52.578 Q 70.848 51.585 72.202 50.305 A 126.737 126.737 0 0 0 73.477 49.082 A 169.179 169.179 0 0 0 76.509 46.061 A 149.224 149.224 0 0 0 77.461 45.078 Q 79.336 43.125 80.234 42.11 Z M 98.75 48.32 L 103.281 29.297 A 161.896 161.896 0 0 0 102.598 29.132 Q 101.631 28.902 101.016 28.77 Q 100.195 28.594 99.453 28.594 Q 96.719 28.594 94.375 30.274 A 15.674 15.674 0 0 0 91.238 33.288 A 18.955 18.955 0 0 0 90.254 34.649 A 23.372 23.372 0 0 0 87.48 40.488 A 21.528 21.528 0 0 0 86.627 44.312 A 18.087 18.087 0 0 0 86.484 46.563 A 23.061 23.061 0 0 0 86.565 48.56 Q 86.77 50.913 87.5 52.246 Q 88.516 54.102 90.273 54.102 A 5.342 5.342 0 0 0 92.423 53.592 Q 95.138 52.392 98.713 48.362 A 47.096 47.096 0 0 0 98.75 48.32 Z M 96.406 63.789 L 90 69.219 A 96.508 96.508 0 0 0 87.984 70.938 A 112.16 112.16 0 0 0 87.168 71.66 Q 85.966 72.734 85.75 74.819 A 9.352 9.352 0 0 0 85.703 75.781 A 5.268 5.268 0 0 0 85.748 76.499 Q 85.884 77.481 86.426 77.891 Q 87.148 78.438 88.594 78.438 Q 90.781 78.438 92.363 76.485 Q 93.665 74.877 94.57 72.344 A 23.072 23.072 0 0 0 94.941 71.211 A 38.147 38.147 0 0 0 95.895 67.229 A 49.62 49.62 0 0 0 96.406 63.789 Z M 130.977 40.977 A 4.361 4.361 0 0 0 134.003 39.755 A 6.876 6.876 0 0 0 134.922 38.711 Q 136.563 36.445 136.563 33.711 A 7.913 7.913 0 0 0 136.501 32.688 Q 136.318 31.289 135.586 30.703 Q 134.763 30.045 133.414 29.941 A 6.832 6.832 0 0 0 132.891 29.922 Q 130.586 29.922 128.828 31.25 A 12.526 12.526 0 0 0 126.594 33.401 A 11.255 11.255 0 0 0 125.957 34.277 A 24.025 24.025 0 0 0 125.328 35.288 Q 124.751 36.273 124.455 37.04 A 7.044 7.044 0 0 0 124.414 37.149 A 11.521 11.521 0 0 0 126.168 39.007 A 9.743 9.743 0 0 0 127.52 39.961 A 7.879 7.879 0 0 0 129.145 40.69 A 6.121 6.121 0 0 0 130.977 40.977 Z M 71.417 18.365 A 4.614 4.614 0 0 0 72.266 18.438 Q 74.063 18.438 75.586 17.461 A 8.092 8.092 0 0 0 78.047 15.039 A 7.837 7.837 0 0 0 78.206 14.784 Q 78.534 14.233 78.724 13.699 A 4.262 4.262 0 0 0 78.984 12.266 A 2.611 2.611 0 0 0 78.605 10.895 A 3.368 3.368 0 0 0 77.969 10.137 A 2.501 2.501 0 0 0 77.811 10.006 Q 77.086 9.451 75.812 9.288 A 9.158 9.158 0 0 0 74.648 9.219 Q 73.047 9.219 71.816 10.215 A 6.938 6.938 0 0 0 69.902 12.637 A 7.599 7.599 0 0 0 69.473 13.736 A 5.739 5.739 0 0 0 69.219 15.391 Q 69.219 16.602 69.922 17.52 A 2.057 2.057 0 0 0 70.584 18.08 Q 70.945 18.277 71.417 18.365 Z" vector-effect="non-scaling-stroke"/></g></svg>