<svg width="85.737" height="45.505" viewBox="0 0 85.737 45.505" xmlns="http://www.w3.org/2000/svg"><g id="svgGroup" stroke-linecap="round" fill-rule="evenodd" font-size="9pt" stroke="#080808e8" stroke-width="0.25mm" fill="#ffffff" style="stroke:#080808e8;stroke-width:0.25mm;fill:#ffffff"><path d="M 5.933 34.739 Q 3.911 34.739 2.593 33.915 A 6.297 6.297 0 0 1 1.507 33.067 A 4.898 4.898 0 0 1 0.637 31.926 A 5.819 5.819 0 0 1 0.225 30.998 Q 0.028 30.416 0.004 29.864 A 3.535 3.535 0 0 1 0 29.707 A 3.75 3.75 0 0 1 0.385 28.026 A 2.398 2.398 0 0 1 1.015 27.242 Q 1.287 27.016 1.645 26.83 A 4.486 4.486 0 0 1 1.78 26.763 Q 2.791 26.279 4.68 26.279 A 12.683 12.683 0 0 0 4.511 27.468 A 11.164 11.164 0 0 0 4.483 27.85 A 27.614 27.614 0 0 0 4.45 28.578 A 21.233 21.233 0 0 0 4.439 29.246 A 6.762 6.762 0 0 0 4.502 30.204 Q 4.616 30.998 4.933 31.575 Q 5.427 32.476 6.834 32.585 Q 8.064 32.585 9.152 31.278 A 10.55 10.55 0 0 0 10.012 30.069 Q 10.394 29.45 10.756 28.708 A 21.284 21.284 0 0 0 11.184 27.773 A 41.182 41.182 0 0 0 12.205 25.142 A 52.764 52.764 0 0 0 12.942 22.874 A 96.721 96.721 0 0 0 14.425 17.347 A 287.847 287.847 0 0 0 15.065 14.593 A 245.17 245.17 0 0 0 15.645 11.975 Q 16.022 10.223 16.343 8.777 A 359.113 359.113 0 0 1 16.622 7.526 A 50.316 50.316 0 0 1 16.829 6.643 Q 17.128 5.422 17.358 4.812 A 5.043 5.043 0 0 1 18.776 3.746 Q 19.43 3.415 20.383 3.354 A 6.984 6.984 0 0 1 20.83 3.34 A 14.948 14.948 0 0 0 19.38 3.01 Q 18.633 2.878 17.82 2.878 Q 15.447 2.878 13.283 3.582 A 15.395 15.395 0 0 0 10.712 4.672 A 13.086 13.086 0 0 0 9.448 5.449 A 11.974 11.974 0 0 0 7.965 6.661 A 9.069 9.069 0 0 0 6.812 8.009 A 5.957 5.957 0 0 0 6.17 9.183 A 4.348 4.348 0 0 0 5.845 10.811 A 3.603 3.603 0 0 0 6.328 12.597 A 4.712 4.712 0 0 0 6.669 13.118 A 4.595 4.595 0 0 0 7.511 13.963 Q 7.927 14.291 8.461 14.588 A 10.394 10.394 0 0 0 9.36 15.029 Q 9.36 15.646 9.268 16.407 A 15.93 15.93 0 0 1 9.262 16.458 A 15.466 15.466 0 0 1 9.149 17.213 A 11.815 11.815 0 0 1 9.009 17.897 Q 8.874 18.467 8.755 18.671 A 0.496 0.496 0 0 1 8.723 18.721 A 19.554 19.554 0 0 1 6.546 17.679 Q 5.48 17.078 4.669 16.405 A 8.446 8.446 0 0 1 3.439 15.161 A 8.509 8.509 0 0 1 2.41 13.534 A 5.985 5.985 0 0 1 1.802 10.942 A 6.833 6.833 0 0 1 2.5 7.966 A 8.715 8.715 0 0 1 3.043 6.998 A 11.475 11.475 0 0 1 4.919 4.794 A 14.96 14.96 0 0 1 6.504 3.527 A 17.067 17.067 0 0 1 9.587 1.835 A 21.605 21.605 0 0 1 11.733 1.055 Q 14.744 0.132 18.259 0.132 A 22.087 22.087 0 0 1 21.045 0.315 A 26.543 26.543 0 0 1 22.478 0.538 A 1751.586 1751.586 0 0 0 26.95 1.351 A 25.211 25.211 0 0 0 30.381 1.738 A 22.398 22.398 0 0 0 31.311 1.758 Q 33.311 1.758 34.926 1.033 A 29.14 29.14 0 0 1 35.978 0.584 Q 36.926 0.202 37.661 0 A 8.434 8.434 0 0 1 36.271 2.792 A 7.805 7.805 0 0 1 34.651 4.362 A 8.38 8.38 0 0 1 29.913 5.948 A 10.328 10.328 0 0 1 29.553 5.955 A 9.302 9.302 0 0 1 26.027 5.273 A 90.037 90.037 0 0 0 22.632 3.977 Q 22.083 6.614 21.456 9.899 Q 20.83 13.184 19.984 16.644 A 61.567 61.567 0 0 1 17.952 23.324 Q 16.765 26.543 15.106 29.125 Q 13.447 31.707 11.195 33.223 A 8.906 8.906 0 0 1 6.99 34.69 A 11.202 11.202 0 0 1 5.933 34.739 Z M 48.911 38.298 L 54.998 33.618 L 55.701 29.883 A 40.602 40.602 0 0 1 54.39 31.004 Q 53.794 31.49 53.257 31.883 A 16.915 16.915 0 0 1 52.24 32.574 Q 50.779 33.486 49.614 33.805 A 8.792 8.792 0 0 1 47.285 34.124 A 2.295 2.295 0 0 1 46.345 33.934 A 2.22 2.22 0 0 1 45.659 33.453 A 4.04 4.04 0 0 1 44.903 32.366 A 5.095 5.095 0 0 1 44.66 31.761 Q 44.319 30.74 44.319 29.707 A 14.648 14.648 0 0 1 44.826 25.948 A 17.467 17.467 0 0 1 45.22 24.664 A 17.396 17.396 0 0 1 47.769 19.896 A 13.459 13.459 0 0 1 51.68 16.37 Q 53.943 15.029 56.646 15.029 A 15.525 15.525 0 0 1 57.743 15.071 Q 58.354 15.114 59.047 15.203 A 31.64 31.64 0 0 1 59.909 15.326 Q 61.809 15.623 63.215 15.886 L 59.854 30.103 A 801.702 801.702 0 0 0 60.842 29.175 Q 61.234 28.807 61.591 28.471 A 454.669 454.669 0 0 0 62.271 27.828 Q 63.303 26.851 64.259 25.895 A 39.089 39.089 0 0 0 65.245 24.87 A 51.982 51.982 0 0 0 66.292 23.708 L 66.292 26.257 Q 64.666 28.059 62.897 29.74 A 171.704 171.704 0 0 1 59.392 32.981 A 23.655 23.655 0 0 1 58.511 36.48 A 17.699 17.699 0 0 1 57.085 39.661 Q 55.67 42.108 53.973 43.574 A 10.405 10.405 0 0 1 53.46 43.989 Q 51.976 45.114 50.589 45.405 A 4.642 4.642 0 0 1 49.636 45.505 Q 48.713 45.505 47.758 45.165 A 4.052 4.052 0 0 1 46.269 44.25 A 3.968 3.968 0 0 1 46.143 44.121 Q 45.483 43.418 45.483 42.341 A 2.589 2.589 0 0 1 46.153 40.604 A 3.746 3.746 0 0 1 46.538 40.221 A 45.739 45.739 0 0 1 47.659 39.284 A 59.472 59.472 0 0 1 48.911 38.298 Z M 40.43 27.246 L 40.584 27.246 A 3.262 3.262 0 0 0 41.991 26.912 Q 42.454 26.693 42.917 26.329 A 6.513 6.513 0 0 0 43.176 26.115 A 38.009 38.009 0 0 0 44.192 25.193 Q 44.743 24.676 45.342 24.079 A 69.129 69.129 0 0 0 46.077 23.335 L 46.077 25.752 A 9.384 9.384 0 0 1 45.025 26.961 Q 44.361 27.598 43.64 27.99 A 5.411 5.411 0 0 1 43.231 28.191 A 10.816 10.816 0 0 1 42.309 28.55 Q 41.835 28.709 41.415 28.789 A 4.317 4.317 0 0 1 40.606 28.872 A 4.08 4.08 0 0 1 40.406 28.867 Q 40.178 28.855 39.852 28.821 A 20.8 20.8 0 0 1 39.529 28.784 A 15.954 15.954 0 0 1 37.557 31.335 Q 36.256 32.683 34.805 33.379 A 7.475 7.475 0 0 1 31.531 34.124 A 8.091 8.091 0 0 1 29.931 33.975 Q 28.949 33.776 28.182 33.315 A 4.654 4.654 0 0 1 27.686 32.97 A 6.54 6.54 0 0 1 25.587 30.059 Q 24.939 28.301 24.939 26.521 A 13.587 13.587 0 0 1 25.295 23.337 A 10.42 10.42 0 0 1 26.675 20.083 A 11 11 0 0 1 30.967 16.253 A 13.378 13.378 0 0 1 31.542 15.974 A 15.514 15.514 0 0 1 35.612 14.782 A 20.73 20.73 0 0 1 38.804 14.546 Q 38.996 14.546 39.112 14.6 A 0.291 0.291 0 0 1 39.287 14.832 A 3.205 3.205 0 0 1 39.282 15.024 Q 39.271 15.202 39.239 15.325 A 0.863 0.863 0 0 1 39.232 15.348 A 0.375 0.375 0 0 1 39.174 15.46 Q 39.104 15.557 38.961 15.667 A 2.446 2.446 0 0 1 38.804 15.776 A 12.364 12.364 0 0 0 36.573 15.966 Q 35.279 16.204 34.233 16.738 A 7.079 7.079 0 0 0 33.563 17.128 A 8.206 8.206 0 0 0 30.52 20.676 Q 29.531 22.874 29.531 25.422 A 8.622 8.622 0 0 0 29.647 26.882 Q 29.781 27.664 30.073 28.282 A 3.854 3.854 0 0 0 30.773 29.312 A 4.52 4.52 0 0 0 31.841 30.151 A 3.607 3.607 0 0 0 33.618 30.608 Q 34.651 30.608 35.772 29.971 Q 36.695 29.446 37.589 28.398 A 11.444 11.444 0 0 0 37.969 27.927 Q 36.365 26.938 35.53 25.411 A 7.24 7.24 0 0 1 34.931 23.992 A 5.554 5.554 0 0 1 34.695 22.412 A 4.391 4.391 0 0 1 34.953 20.885 A 3.938 3.938 0 0 1 35.695 19.644 A 3.024 3.024 0 0 1 36.954 18.805 Q 37.78 18.501 38.936 18.501 A 5.368 5.368 0 0 1 39.985 18.596 Q 40.573 18.714 41.019 18.976 A 2.525 2.525 0 0 1 41.77 19.644 A 4.279 4.279 0 0 1 42.604 21.861 A 5.47 5.47 0 0 1 42.627 22.368 A 6.053 6.053 0 0 1 42.326 24.223 A 7.469 7.469 0 0 1 42.045 24.961 Q 41.462 26.279 40.43 27.246 Z M 80.09 27.246 L 80.244 27.246 A 3.262 3.262 0 0 0 81.652 26.912 Q 82.115 26.693 82.578 26.329 A 6.513 6.513 0 0 0 82.837 26.115 A 38.009 38.009 0 0 0 83.853 25.193 Q 84.404 24.676 85.002 24.079 A 69.129 69.129 0 0 0 85.737 23.335 L 85.737 25.752 A 9.384 9.384 0 0 1 84.686 26.961 Q 84.022 27.598 83.3 27.99 A 5.411 5.411 0 0 1 82.892 28.191 A 10.816 10.816 0 0 1 81.97 28.55 Q 81.496 28.709 81.076 28.789 A 4.317 4.317 0 0 1 80.266 28.872 A 4.08 4.08 0 0 1 80.067 28.867 Q 79.839 28.855 79.513 28.821 A 20.8 20.8 0 0 1 79.19 28.784 A 15.954 15.954 0 0 1 77.218 31.335 Q 75.917 32.683 74.465 33.379 A 7.475 7.475 0 0 1 71.192 34.124 A 8.091 8.091 0 0 1 69.592 33.975 Q 68.61 33.776 67.843 33.315 A 4.654 4.654 0 0 1 67.346 32.97 A 6.54 6.54 0 0 1 65.248 30.059 Q 64.6 28.301 64.6 26.521 A 13.587 13.587 0 0 1 64.956 23.337 A 10.42 10.42 0 0 1 66.336 20.083 A 11 11 0 0 1 70.628 16.253 A 13.378 13.378 0 0 1 71.202 15.974 A 15.514 15.514 0 0 1 75.273 14.782 A 20.73 20.73 0 0 1 78.464 14.546 Q 78.656 14.546 78.773 14.6 A 0.291 0.291 0 0 1 78.948 14.832 A 3.205 3.205 0 0 1 78.942 15.024 Q 78.932 15.202 78.899 15.325 A 0.863 0.863 0 0 1 78.893 15.348 A 0.375 0.375 0 0 1 78.835 15.46 Q 78.764 15.557 78.621 15.667 A 2.446 2.446 0 0 1 78.464 15.776 A 12.364 12.364 0 0 0 76.234 15.966 Q 74.94 16.204 73.894 16.738 A 7.079 7.079 0 0 0 73.224 17.128 A 8.206 8.206 0 0 0 70.181 20.676 Q 69.192 22.874 69.192 25.422 A 8.622 8.622 0 0 0 69.307 26.882 Q 69.442 27.664 69.734 28.282 A 3.854 3.854 0 0 0 70.433 29.312 A 4.52 4.52 0 0 0 71.502 30.151 A 3.607 3.607 0 0 0 73.279 30.608 Q 74.312 30.608 75.432 29.971 Q 76.356 29.446 77.25 28.398 A 11.444 11.444 0 0 0 77.629 27.927 Q 76.025 26.938 75.191 25.411 A 7.24 7.24 0 0 1 74.591 23.992 A 5.554 5.554 0 0 1 74.356 22.412 A 4.391 4.391 0 0 1 74.613 20.885 A 3.938 3.938 0 0 1 75.355 19.644 A 3.024 3.024 0 0 1 76.615 18.805 Q 77.441 18.501 78.596 18.501 A 5.368 5.368 0 0 1 79.646 18.596 Q 80.234 18.714 80.68 18.976 A 2.525 2.525 0 0 1 81.431 19.644 A 4.279 4.279 0 0 1 82.265 21.861 A 5.47 5.47 0 0 1 82.288 22.368 A 6.053 6.053 0 0 1 81.987 24.223 A 7.469 7.469 0 0 1 81.705 24.961 Q 81.123 26.279 80.09 27.246 Z M 56.03 27.356 L 58.579 16.655 Q 57.957 16.504 57.54 16.41 A 25.055 25.055 0 0 0 57.305 16.359 Q 56.843 16.26 56.426 16.26 A 4.795 4.795 0 0 0 53.611 17.175 A 5.839 5.839 0 0 0 53.569 17.205 A 8.816 8.816 0 0 0 51.805 18.9 A 10.662 10.662 0 0 0 51.251 19.666 Q 50.252 21.182 49.691 22.95 A 12.109 12.109 0 0 0 49.211 25.101 A 10.174 10.174 0 0 0 49.131 26.367 Q 49.131 28.521 49.702 29.564 A 2.533 2.533 0 0 0 50.073 30.086 A 1.572 1.572 0 0 0 51.262 30.608 Q 53.152 30.608 56.03 27.356 Z M 54.712 36.057 L 51.108 39.111 A 54.286 54.286 0 0 0 49.975 40.078 A 63.09 63.09 0 0 0 49.515 40.485 A 2.256 2.256 0 0 0 48.897 41.432 Q 48.766 41.803 48.718 42.262 A 5.26 5.26 0 0 0 48.692 42.803 A 2.963 2.963 0 0 0 48.717 43.206 Q 48.793 43.759 49.098 43.989 Q 49.386 44.208 49.88 44.271 A 3.444 3.444 0 0 0 50.317 44.297 A 2.523 2.523 0 0 0 52.09 43.573 A 3.696 3.696 0 0 0 52.438 43.198 A 6.55 6.55 0 0 0 53.148 42.101 Q 53.438 41.543 53.679 40.869 A 12.978 12.978 0 0 0 53.888 40.232 A 21.458 21.458 0 0 0 54.425 37.992 A 27.911 27.911 0 0 0 54.712 36.057 Z M 39.221 26.455 A 2.529 2.529 0 0 0 39.482 26.105 Q 39.791 25.616 40.1 24.774 A 8.351 8.351 0 0 0 40.376 23.877 Q 40.489 23.417 40.524 23.001 A 4.395 4.395 0 0 0 40.54 22.632 A 3.026 3.026 0 0 0 40.462 21.93 A 2.305 2.305 0 0 0 40.155 21.204 Q 39.771 20.61 38.738 20.61 A 2.28 2.28 0 0 0 38.223 20.665 Q 37.877 20.745 37.632 20.944 A 1.306 1.306 0 0 0 37.376 21.226 A 2.364 2.364 0 0 0 37.017 22.106 A 3.282 3.282 0 0 0 36.958 22.742 A 3.074 3.074 0 0 0 37.101 23.641 Q 37.262 24.169 37.606 24.741 A 5.494 5.494 0 0 0 38.621 25.99 A 4.945 4.945 0 0 0 39.221 26.455 Z M 78.882 26.455 A 2.529 2.529 0 0 0 79.143 26.105 Q 79.452 25.616 79.761 24.774 A 8.351 8.351 0 0 0 80.037 23.877 Q 80.149 23.417 80.184 23.001 A 4.395 4.395 0 0 0 80.2 22.632 A 3.026 3.026 0 0 0 80.123 21.93 A 2.305 2.305 0 0 0 79.816 21.204 Q 79.431 20.61 78.399 20.61 A 2.28 2.28 0 0 0 77.884 20.665 Q 77.538 20.745 77.293 20.944 A 1.306 1.306 0 0 0 77.036 21.226 A 2.364 2.364 0 0 0 76.677 22.106 A 3.282 3.282 0 0 0 76.619 22.742 A 3.074 3.074 0 0 0 76.761 23.641 Q 76.923 24.169 77.267 24.741 A 5.494 5.494 0 0 0 78.282 25.99 A 4.945 4.945 0 0 0 78.882 26.455 Z" vector-effect="non-scaling-stroke"/></g></svg>