<?xml version="1.0" encoding="UTF-8"?>
<svg version="1.1" viewBox="0 0 2000 2000" width="500" height="500" xmlns="http://www.w3.org/2000/svg">
<path transform="translate(1065,173)" d="m0 0h28l24 3 16 4 15 5 22 10 17 10 11 8 11 9 10 9 12 14 12 17 3 4 9-2 24-8 23-5 19-2h22l21 2 22 5 21 7 17 8 18 11 13 10 13 11 11 11 11 14 9 13 11 17 3 1 14-6 19-5 16-3 20-2h19l26 3 21 5 22 8 16 8 16 10 14 11 10 9 12 12 10 13 10 15 13 25 9 25 5 25 1 6 1 21-1 18-4 24-8 33 5 2 12 8 12 9 13 11 8 7 7 8 12 15 10 16 10 19 9 25 5 23 2 17v28l-3 22-5 19-5 15-7 16-8 14-13 19-13 15-11 11-11 9-21 14-17 9-18 7-23 6-19 3-25 2-63 1-238-1h-280l-1 85-2 7-7 7-2 1-45 1h-110l-17-1-6-4-4-7-1-67v-23l-77 1h-64l-428-1-26-1-25-3-21-5-20-7-21-10-17-11-14-11-21-21-13-17-10-16-10-21-7-22-4-20-2-15v-28l3-23 4-16 5-16 8-18 8-15 11-16 11-13 13-13 11-9 15-11 24-14 17-8 1-4-5-24-3-20v-35l3-20 5-20 10-25 8-15 10-15 10-13 11-12 7-7 14-11 10-7 17-10 21-9 20-6 20-4 26-3 5-3 10-12 7-8 9-9 14-11 15-10 18-10 19-8 23-6 21-3h38l21 3 24 6 13 5h6l20-14 17-10 20-9 19-6 20-4 19-2h25l23 3 26 7 20 8 21 11 3-1 13-17 6-7h2l2-4 7-7 14-11 14-10 18-10 15-7 24-8 23-4z" fill="#F9F9F9"/>
<path transform="translate(377,1154)" d="m0 0h1249l14 1 7 4 7 8 16 23 15 22 16 23 14 21 13 19 12 17 28 40 10 15 3 6v10l-4 6-4 4-8 2-111 1-1 430-1 15-7 8-5 2-16 1h-1258l-8-2-7-6-2-6v-442l-111-1-8-2-7-6-3-9 3-10 16-24 11-15 15-22 12-17 14-20 13-19 11-16 12-17 9-13 15-22 8-7 3-1z" fill="#C2C2C2"/>
<path transform="translate(1e3 488)" d="m0 0 9 2 8 6 8 10 12 17 26 36 14 19 26 36 14 19 26 36 14 19 13 18 14 19 12 17 4 8v7l-3 7-6 7-5 2-11 1h-75v207l-1 5-1 82-2 7-7 7-2 1-45 1h-110l-17-1-6-4-4-7-1-67-1-23-1-1v-131l1-76h-81l-8-2-8-7-3-7v-8l4-8 10-14 28-38 26-36 14-19 26-36 14-19 9-12 13-18 14-19 12-17 12-16 7-7z" fill="#939393"/>
</svg>
